%TF.GenerationSoftware,KiCad,Pcbnew,7.0.11+dfsg-1build4*%
%TF.CreationDate,2026-10-10T02:45:49+00:00*%
%TF.ProjectId,spark_meter,73706172-6b5f-46d6-9574-65722e6b6963,rev?*%
%TF.SameCoordinates,Original*%
%TF.FileFunction,Copper,L1,Top*%
%TF.FilePolarity,Positive*%
%FSLAX46Y46*%
G04 Gerber Fmt 4.6, Leading zero omitted, Abs format (unit mm)*
G04 Created by KiCad (PCBNEW 7.0.11+dfsg-1build4) date 2026-10-10 02:45:49*
%MOMM*%
%LPD*%
G01*
G04 APERTURE LIST*
G04 Aperture macros list*
%AMRoundRect*
0 Rectangle with rounded corners*
0 $1 Rounding radius*
0 $2 $3 $4 $5 $6 $7 $8 $9 X,Y pos of 4 corners*
0 Add a 4 corners polygon primitive as box body*
4,1,4,$2,$3,$4,$5,$6,$7,$8,$9,$2,$3,0*
0 Add four circle primitives for the rounded corners*
1,1,$1+$1,$2,$3*
1,1,$1+$1,$4,$5*
1,1,$1+$1,$6,$7*
1,1,$1+$1,$8,$9*
0 Add four rect primitives between the rounded corners*
20,1,$1+$1,$2,$3,$4,$5,0*
20,1,$1+$1,$4,$5,$6,$7,0*
20,1,$1+$1,$6,$7,$8,$9,0*
20,1,$1+$1,$8,$9,$2,$3,0*%
G04 Aperture macros list end*
%TA.AperFunction,SMDPad,CuDef*%
%ADD10RoundRect,0.200000X0.275000X-0.200000X0.275000X0.200000X-0.275000X0.200000X-0.275000X-0.200000X0*%
%TD*%
%TA.AperFunction,ComponentPad*%
%ADD11R,1.700000X1.700000*%
%TD*%
%TA.AperFunction,ComponentPad*%
%ADD12O,1.700000X1.700000*%
%TD*%
%TA.AperFunction,SMDPad,CuDef*%
%ADD13RoundRect,0.225000X-0.225000X-0.250000X0.225000X-0.250000X0.225000X0.250000X-0.225000X0.250000X0*%
%TD*%
%TA.AperFunction,SMDPad,CuDef*%
%ADD14C,1.500000*%
%TD*%
%TA.AperFunction,SMDPad,CuDef*%
%ADD15RoundRect,0.250000X-0.362500X-1.425000X0.362500X-1.425000X0.362500X1.425000X-0.362500X1.425000X0*%
%TD*%
%TA.AperFunction,SMDPad,CuDef*%
%ADD16RoundRect,0.250000X-0.250000X-0.475000X0.250000X-0.475000X0.250000X0.475000X-0.250000X0.475000X0*%
%TD*%
%TA.AperFunction,SMDPad,CuDef*%
%ADD17RoundRect,0.200000X-0.200000X-0.275000X0.200000X-0.275000X0.200000X0.275000X-0.200000X0.275000X0*%
%TD*%
%TA.AperFunction,SMDPad,CuDef*%
%ADD18RoundRect,0.150000X-0.825000X-0.150000X0.825000X-0.150000X0.825000X0.150000X-0.825000X0.150000X0*%
%TD*%
%TA.AperFunction,SMDPad,CuDef*%
%ADD19RoundRect,0.150000X0.425000X-0.150000X0.425000X0.150000X-0.425000X0.150000X-0.425000X-0.150000X0*%
%TD*%
%TA.AperFunction,SMDPad,CuDef*%
%ADD20RoundRect,0.075000X0.500000X-0.075000X0.500000X0.075000X-0.500000X0.075000X-0.500000X-0.075000X0*%
%TD*%
%TA.AperFunction,ComponentPad*%
%ADD21O,2.100000X1.000000*%
%TD*%
%TA.AperFunction,ComponentPad*%
%ADD22O,1.800000X1.000000*%
%TD*%
%TA.AperFunction,SMDPad,CuDef*%
%ADD23RoundRect,0.150000X-0.425000X0.150000X-0.425000X-0.150000X0.425000X-0.150000X0.425000X0.150000X0*%
%TD*%
%TA.AperFunction,SMDPad,CuDef*%
%ADD24RoundRect,0.075000X-0.500000X0.075000X-0.500000X-0.075000X0.500000X-0.075000X0.500000X0.075000X0*%
%TD*%
%TA.AperFunction,SMDPad,CuDef*%
%ADD25RoundRect,0.218750X-0.218750X-0.256250X0.218750X-0.256250X0.218750X0.256250X-0.218750X0.256250X0*%
%TD*%
%TA.AperFunction,ViaPad*%
%ADD26C,0.600000*%
%TD*%
%TA.AperFunction,Conductor*%
%ADD27C,0.200000*%
%TD*%
%TA.AperFunction,Conductor*%
%ADD28C,0.500000*%
%TD*%
G04 APERTURE END LIST*
D10*
%TO.P,R4,1*%
%TO.N,VBUS_OUT*%
X58000000Y-31825000D03*
%TO.P,R4,2*%
%TO.N,CC2_OUT*%
X58000000Y-30175000D03*
%TD*%
D11*
%TO.P,J4,1*%
%TO.N,+3V3*%
X19000000Y-46500000D03*
D12*
%TO.P,J4,2*%
%TO.N,GND*%
X21540000Y-46500000D03*
%TO.P,J4,3*%
%TO.N,SDA*%
X24080000Y-46500000D03*
%TO.P,J4,4*%
%TO.N,SCL*%
X26620000Y-46500000D03*
%TO.P,J4,5*%
%TO.N,MARKER*%
X29160000Y-46500000D03*
%TO.P,J4,6*%
%TO.N,TEMP_DQ*%
X31700000Y-46500000D03*
%TD*%
D10*
%TO.P,R2,1*%
%TO.N,CC2_IN*%
X17000000Y-31825000D03*
%TO.P,R2,2*%
%TO.N,GND*%
X17000000Y-30175000D03*
%TD*%
D11*
%TO.P,J5,1*%
%TO.N,+3V3*%
X54000000Y-46500000D03*
D12*
%TO.P,J5,2*%
%TO.N,TEMP_DQ*%
X56540000Y-46500000D03*
%TO.P,J5,3*%
%TO.N,GND*%
X59080000Y-46500000D03*
%TD*%
D13*
%TO.P,C1,1*%
%TO.N,+3V3*%
X27225000Y-27000000D03*
%TO.P,C1,2*%
%TO.N,GND*%
X28775000Y-27000000D03*
%TD*%
%TO.P,C2,1*%
%TO.N,+3V3*%
X42225000Y-27000000D03*
%TO.P,C2,2*%
%TO.N,GND*%
X43775000Y-27000000D03*
%TD*%
D11*
%TO.P,J3,1*%
%TO.N,MARKER*%
X46000000Y-46500000D03*
D12*
%TO.P,J3,2*%
%TO.N,GND*%
X48540000Y-46500000D03*
%TD*%
D14*
%TO.P,TP3,1*%
%TO.N,GND*%
X46000000Y-40500000D03*
%TD*%
D10*
%TO.P,R6,1*%
%TO.N,+3V3*%
X37000000Y-41325000D03*
%TO.P,R6,2*%
%TO.N,SCL*%
X37000000Y-39675000D03*
%TD*%
%TO.P,R5,1*%
%TO.N,+3V3*%
X34000000Y-41325000D03*
%TO.P,R5,2*%
%TO.N,SDA*%
X34000000Y-39675000D03*
%TD*%
D15*
%TO.P,RS1,1*%
%TO.N,VBUS_IN*%
X33037500Y-9000000D03*
%TO.P,RS1,2*%
%TO.N,VBUS_OUT*%
X38962500Y-9000000D03*
%TD*%
D16*
%TO.P,C3,1*%
%TO.N,VBUS_OUT*%
X57050000Y-9000000D03*
%TO.P,C3,2*%
%TO.N,GND*%
X58950000Y-9000000D03*
%TD*%
%TO.P,C4,1*%
%TO.N,VBUS_IN*%
X13050000Y-9000000D03*
%TO.P,C4,2*%
%TO.N,GND*%
X14950000Y-9000000D03*
%TD*%
D17*
%TO.P,R8,1*%
%TO.N,VBUS_IN*%
X13175000Y-4500000D03*
%TO.P,R8,2*%
%TO.N,LED_A*%
X14825000Y-4500000D03*
%TD*%
D14*
%TO.P,TP1,1*%
%TO.N,VBUS_IN*%
X22000000Y-9000000D03*
%TD*%
D18*
%TO.P,U2,1*%
%TO.N,SDA*%
X40525000Y-31095000D03*
%TO.P,U2,2*%
%TO.N,SCL*%
X40525000Y-32365000D03*
%TO.P,U2,3*%
%TO.N,N/C*%
X40525000Y-33635000D03*
%TO.P,U2,4*%
%TO.N,GND*%
X40525000Y-34905000D03*
%TO.P,U2,5*%
X45475000Y-34905000D03*
%TO.P,U2,6*%
X45475000Y-33635000D03*
%TO.P,U2,7*%
X45475000Y-32365000D03*
%TO.P,U2,8*%
%TO.N,+3V3*%
X45475000Y-31095000D03*
%TD*%
D19*
%TO.P,J2,A1*%
%TO.N,GND*%
X64645000Y-27200000D03*
%TO.P,J2,A4*%
%TO.N,VBUS_OUT*%
X64645000Y-26400000D03*
D20*
%TO.P,J2,A5*%
%TO.N,CC1_OUT*%
X64645000Y-25250000D03*
%TO.P,J2,A6*%
%TO.N,USB_DP*%
X64645000Y-24250000D03*
%TO.P,J2,A7*%
%TO.N,USB_DN*%
X64645000Y-23750000D03*
%TO.P,J2,A8*%
%TO.N,N/C*%
X64645000Y-22750000D03*
D19*
%TO.P,J2,A9*%
%TO.N,VBUS_OUT*%
X64645000Y-21600000D03*
%TO.P,J2,A12*%
%TO.N,GND*%
X64645000Y-20800000D03*
%TO.P,J2,B1*%
X64645000Y-20800000D03*
%TO.P,J2,B4*%
%TO.N,VBUS_OUT*%
X64645000Y-21600000D03*
D20*
%TO.P,J2,B5*%
%TO.N,CC2_OUT*%
X64645000Y-22250000D03*
%TO.P,J2,B6*%
%TO.N,USB_DP*%
X64645000Y-23250000D03*
%TO.P,J2,B7*%
%TO.N,USB_DN*%
X64645000Y-24750000D03*
%TO.P,J2,B8*%
%TO.N,N/C*%
X64645000Y-25750000D03*
D19*
%TO.P,J2,B9*%
%TO.N,VBUS_OUT*%
X64645000Y-26400000D03*
%TO.P,J2,B12*%
%TO.N,GND*%
X64645000Y-27200000D03*
D21*
%TO.P,J2,S1*%
X65220000Y-28320000D03*
D22*
X69400000Y-28320000D03*
D21*
X65220000Y-19680000D03*
D22*
X69400000Y-19680000D03*
%TD*%
D18*
%TO.P,U1,1*%
%TO.N,GND*%
X25525000Y-31095000D03*
%TO.P,U1,2*%
X25525000Y-32365000D03*
%TO.P,U1,3*%
%TO.N,SDA*%
X25525000Y-33635000D03*
%TO.P,U1,4*%
%TO.N,SCL*%
X25525000Y-34905000D03*
%TO.P,U1,5*%
%TO.N,+3V3*%
X30475000Y-34905000D03*
%TO.P,U1,6*%
%TO.N,GND*%
X30475000Y-33635000D03*
%TO.P,U1,7*%
%TO.N,VBUS_OUT*%
X30475000Y-32365000D03*
%TO.P,U1,8*%
%TO.N,VBUS_IN*%
X30475000Y-31095000D03*
%TD*%
D10*
%TO.P,R3,1*%
%TO.N,VBUS_OUT*%
X55000000Y-31825000D03*
%TO.P,R3,2*%
%TO.N,CC1_OUT*%
X55000000Y-30175000D03*
%TD*%
D23*
%TO.P,J1,A1*%
%TO.N,GND*%
X7355000Y-20800000D03*
%TO.P,J1,A4*%
%TO.N,VBUS_IN*%
X7355000Y-21600000D03*
D24*
%TO.P,J1,A5*%
%TO.N,CC1_IN*%
X7355000Y-22750000D03*
%TO.P,J1,A6*%
%TO.N,USB_DP*%
X7355000Y-23750000D03*
%TO.P,J1,A7*%
%TO.N,USB_DN*%
X7355000Y-24250000D03*
%TO.P,J1,A8*%
%TO.N,N/C*%
X7355000Y-25250000D03*
D23*
%TO.P,J1,A9*%
%TO.N,VBUS_IN*%
X7355000Y-26400000D03*
%TO.P,J1,A12*%
%TO.N,GND*%
X7355000Y-27200000D03*
%TO.P,J1,B1*%
X7355000Y-27200000D03*
%TO.P,J1,B4*%
%TO.N,VBUS_IN*%
X7355000Y-26400000D03*
D24*
%TO.P,J1,B5*%
%TO.N,CC2_IN*%
X7355000Y-25750000D03*
%TO.P,J1,B6*%
%TO.N,USB_DP*%
X7355000Y-24750000D03*
%TO.P,J1,B7*%
%TO.N,USB_DN*%
X7355000Y-23250000D03*
%TO.P,J1,B8*%
%TO.N,N/C*%
X7355000Y-22250000D03*
D23*
%TO.P,J1,B9*%
%TO.N,VBUS_IN*%
X7355000Y-21600000D03*
%TO.P,J1,B12*%
%TO.N,GND*%
X7355000Y-20800000D03*
D21*
%TO.P,J1,S1*%
X6780000Y-19680000D03*
D22*
X2600000Y-19680000D03*
D21*
X6780000Y-28320000D03*
D22*
X2600000Y-28320000D03*
%TD*%
D25*
%TO.P,D1,1*%
%TO.N,GND*%
X18212500Y-4500000D03*
%TO.P,D1,2*%
%TO.N,LED_A*%
X19787500Y-4500000D03*
%TD*%
D10*
%TO.P,R7,1*%
%TO.N,+3V3*%
X40000000Y-41325000D03*
%TO.P,R7,2*%
%TO.N,TEMP_DQ*%
X40000000Y-39675000D03*
%TD*%
D14*
%TO.P,TP2,1*%
%TO.N,VBUS_OUT*%
X50000000Y-9000000D03*
%TD*%
D10*
%TO.P,R1,1*%
%TO.N,CC1_IN*%
X14000000Y-31825000D03*
%TO.P,R1,2*%
%TO.N,GND*%
X14000000Y-30175000D03*
%TD*%
D26*
%TO.N,USB_DP*%
X6327400Y-24637400D03*
X62154500Y-23959300D03*
%TO.N,USB_DN*%
X6318500Y-23750400D03*
X59573400Y-24088000D03*
%TO.N,SDA*%
X38816400Y-31174300D03*
X32875700Y-39807400D03*
%TO.N,+3V3*%
X47723300Y-33250000D03*
X41320900Y-27257400D03*
%TD*%
D27*
%TO.N,GND*%
X63918100Y-13968100D02*
X63918100Y-19680000D01*
X57978200Y-46435100D02*
X58043100Y-46500000D01*
X18212500Y-4500000D02*
X15940700Y-6771800D01*
X41798400Y-32365000D02*
X45475000Y-32365000D01*
X8081900Y-28320000D02*
X12145000Y-28320000D01*
X41520700Y-31809400D02*
X41798400Y-32087100D01*
X13583700Y-3765600D02*
X14128800Y-4310700D01*
X48540000Y-46500000D02*
X49641900Y-46500000D01*
X15940700Y-6771800D02*
X14950000Y-7762500D01*
X28775000Y-27000000D02*
X31712100Y-29937100D01*
X58043100Y-46592300D02*
X57033500Y-47601900D01*
X58950000Y-9000000D02*
X63918100Y-13968100D01*
X30401700Y-31728500D02*
X30400200Y-31730000D01*
X46000000Y-40500000D02*
X52124700Y-40500000D01*
X37983400Y-31809400D02*
X41520700Y-31809400D01*
X8081900Y-28320000D02*
X8081900Y-27926900D01*
X57978100Y-46353400D02*
X57978100Y-46435100D01*
X6780000Y-19680000D02*
X6834900Y-19680000D01*
X14950000Y-7762500D02*
X14950000Y-9000000D01*
X65220000Y-19680000D02*
X63918100Y-19680000D01*
X45475000Y-33635000D02*
X45475000Y-34905000D01*
X63918100Y-19680000D02*
X63918100Y-20073100D01*
X46000000Y-35430000D02*
X46000000Y-40500000D01*
X63918100Y-27926900D02*
X64645000Y-27200000D01*
X30200800Y-33635000D02*
X30475000Y-33635000D01*
X25525000Y-32365000D02*
X25234500Y-32365000D01*
X50743800Y-47601900D02*
X49641900Y-46500000D01*
X31712100Y-29937100D02*
X33096800Y-28552400D01*
X12145000Y-28320000D02*
X14000000Y-30175000D01*
X58043100Y-46500000D02*
X58043100Y-46592300D01*
X45475000Y-34905000D02*
X46000000Y-35430000D01*
X52124700Y-40500000D02*
X57978100Y-46353400D01*
X29565800Y-31730000D02*
X28930800Y-32365000D01*
X31712100Y-31451300D02*
X31434900Y-31728500D01*
X30400200Y-31730000D02*
X29565800Y-31730000D01*
X42222600Y-28552400D02*
X43775000Y-27000000D01*
X57978100Y-46435100D02*
X57978200Y-46435100D01*
X31434900Y-31728500D02*
X30401700Y-31728500D01*
X59080000Y-46500000D02*
X58043100Y-46500000D01*
X7355000Y-19680000D02*
X7355000Y-9185200D01*
X41798400Y-32087100D02*
X41798400Y-32365000D01*
X14000000Y-30175000D02*
X17000000Y-30175000D01*
X25525000Y-31095000D02*
X25525000Y-32365000D01*
X65220000Y-28320000D02*
X63918100Y-28320000D01*
X25234500Y-32365000D02*
X21540000Y-36059500D01*
X17000000Y-30175000D02*
X24605000Y-30175000D01*
X28930800Y-32365000D02*
X30200800Y-33635000D01*
X25525000Y-32365000D02*
X28930800Y-32365000D01*
X6780000Y-28320000D02*
X8081900Y-28320000D01*
X6834900Y-19680000D02*
X7355000Y-19680000D01*
X63918100Y-28320000D02*
X63918100Y-27926900D01*
X8081900Y-27926900D02*
X7355000Y-27200000D01*
X30475000Y-33635000D02*
X36157800Y-33635000D01*
X45475000Y-32365000D02*
X45475000Y-33635000D01*
X7355000Y-9185200D02*
X12774600Y-3765600D01*
X31712100Y-29937100D02*
X31712100Y-31451300D01*
X7355000Y-19680000D02*
X7355000Y-20800000D01*
X24605000Y-30175000D02*
X25525000Y-31095000D01*
X41798400Y-32365000D02*
X41798400Y-33913400D01*
X14128800Y-4310700D02*
X14128800Y-4960000D01*
X21540000Y-36059500D02*
X21540000Y-46500000D01*
X40806800Y-34905000D02*
X40525000Y-34905000D01*
X41798400Y-33913400D02*
X40806800Y-34905000D01*
X33096800Y-28552400D02*
X42222600Y-28552400D01*
X63918100Y-20073100D02*
X64645000Y-20800000D01*
X12774600Y-3765600D02*
X13583700Y-3765600D01*
X36157800Y-33635000D02*
X37983400Y-31809400D01*
X57033500Y-47601900D02*
X50743800Y-47601900D01*
X14128800Y-4960000D02*
X15940700Y-6771800D01*
D28*
%TO.N,VBUS_IN*%
X15437500Y-20839800D02*
X15437500Y-11387500D01*
X13050000Y-4625000D02*
X13050000Y-9000000D01*
X14034000Y-22243300D02*
X15437500Y-20839800D01*
X8751800Y-22243300D02*
X8751800Y-25610500D01*
X7962300Y-26400000D02*
X7355000Y-26400000D01*
X8108500Y-21600000D02*
X8751800Y-22243300D01*
X8751800Y-25610500D02*
X7962300Y-26400000D01*
X8751800Y-22243300D02*
X14034000Y-22243300D01*
X23761500Y-29163800D02*
X15437500Y-20839800D01*
X30475000Y-31095000D02*
X28543800Y-29163800D01*
X7355000Y-21600000D02*
X8108500Y-21600000D01*
X15437500Y-11387500D02*
X13050000Y-9000000D01*
X13175000Y-4500000D02*
X13050000Y-4625000D01*
X22000000Y-9000000D02*
X19612500Y-11387500D01*
X28543800Y-29163800D02*
X23761500Y-29163800D01*
X19612500Y-11387500D02*
X15437500Y-11387500D01*
X33037500Y-9000000D02*
X22000000Y-9000000D01*
D27*
%TO.N,CC1_IN*%
X5067500Y-28767800D02*
X8124700Y-31825000D01*
X6513100Y-22750000D02*
X5067500Y-24195600D01*
X7355000Y-22750000D02*
X6513100Y-22750000D01*
X5067500Y-24195600D02*
X5067500Y-28767800D01*
X8124700Y-31825000D02*
X14000000Y-31825000D01*
%TO.N,CC2_IN*%
X7839800Y-31000000D02*
X16175000Y-31000000D01*
X7355000Y-25750000D02*
X6344200Y-25750000D01*
X6344200Y-25750000D02*
X5426000Y-26668200D01*
X5426000Y-28586200D02*
X7839800Y-31000000D01*
X5426000Y-26668200D02*
X5426000Y-28586200D01*
X16175000Y-31000000D02*
X17000000Y-31825000D01*
%TO.N,USB_DP*%
X7355000Y-24750000D02*
X7906300Y-24750000D01*
X63799300Y-23959300D02*
X64090000Y-24250000D01*
X6440000Y-24750000D02*
X7355000Y-24750000D01*
X63799300Y-23512800D02*
X63799300Y-23959300D01*
X7906300Y-24750000D02*
X8216100Y-24440200D01*
X8216100Y-24070900D02*
X7895200Y-23750000D01*
X63799300Y-23959300D02*
X62154500Y-23959300D01*
X7895200Y-23750000D02*
X7355000Y-23750000D01*
X64062100Y-23250000D02*
X63799300Y-23512800D01*
X6327400Y-24637400D02*
X6440000Y-24750000D01*
X64645000Y-23250000D02*
X64062100Y-23250000D01*
X64090000Y-24250000D02*
X64645000Y-24250000D01*
X8216100Y-24440200D02*
X8216100Y-24070900D01*
%TO.N,USB_DN*%
X6495100Y-23750400D02*
X6495100Y-23976200D01*
X65259900Y-23750000D02*
X64645000Y-23750000D01*
X65192700Y-24750000D02*
X65493100Y-24449600D01*
X65493100Y-24449600D02*
X65493100Y-23983200D01*
X6768900Y-24250000D02*
X7355000Y-24250000D01*
X7355000Y-23250000D02*
X6754500Y-23250000D01*
X6495100Y-23976200D02*
X6768900Y-24250000D01*
X64645000Y-24750000D02*
X60235400Y-24750000D01*
X60235400Y-24750000D02*
X59573400Y-24088000D01*
X64645000Y-24750000D02*
X65192700Y-24750000D01*
X65493100Y-23983200D02*
X65259900Y-23750000D01*
X6495100Y-23509400D02*
X6495100Y-23750400D01*
X6754500Y-23250000D02*
X6495100Y-23509400D01*
X6495100Y-23750400D02*
X6318500Y-23750400D01*
D28*
%TO.N,VBUS_OUT*%
X58896000Y-30929000D02*
X58896000Y-29338500D01*
X57188800Y-29338500D02*
X55417800Y-31109500D01*
X34821400Y-30379200D02*
X32835600Y-32365000D01*
X61068900Y-21600000D02*
X64645000Y-21600000D01*
X54091300Y-30379200D02*
X54091300Y-28577600D01*
X54585600Y-31109500D02*
X54091300Y-30615200D01*
X61834500Y-26400000D02*
X58896000Y-29338500D01*
X58896000Y-29338500D02*
X57188800Y-29338500D01*
X55000000Y-31109500D02*
X55000000Y-31825000D01*
X54091300Y-30615200D02*
X54091300Y-30379200D01*
X55417800Y-31109500D02*
X55000000Y-31109500D01*
X50000000Y-9000000D02*
X38962500Y-9000000D01*
X57050000Y-9000000D02*
X50000000Y-9000000D01*
X58000000Y-31825000D02*
X58896000Y-30929000D01*
X64645000Y-26400000D02*
X61834500Y-26400000D01*
X55000000Y-31109500D02*
X54585600Y-31109500D01*
X54091300Y-28577600D02*
X61068900Y-21600000D01*
X57050000Y-9000000D02*
X57050000Y-17581100D01*
X57050000Y-17581100D02*
X61068900Y-21600000D01*
X54091300Y-30379200D02*
X34821400Y-30379200D01*
X32835600Y-32365000D02*
X30475000Y-32365000D01*
D27*
%TO.N,CC1_OUT*%
X59925000Y-25250000D02*
X55000000Y-30175000D01*
X64645000Y-25250000D02*
X59925000Y-25250000D01*
%TO.N,CC2_OUT*%
X66527100Y-28647500D02*
X66527100Y-23575200D01*
X57223600Y-30951400D02*
X57223600Y-32228200D01*
X57223600Y-32228200D02*
X57497200Y-32501800D01*
X65201900Y-22250000D02*
X64645000Y-22250000D01*
X57497200Y-32501800D02*
X62672800Y-32501800D01*
X66527100Y-23575200D02*
X65201900Y-22250000D01*
X58000000Y-30175000D02*
X57223600Y-30951400D01*
X62672800Y-32501800D02*
X66527100Y-28647500D01*
%TO.N,SDA*%
X38816400Y-31174300D02*
X40445700Y-31174300D01*
X25242300Y-33635000D02*
X24080000Y-34797300D01*
X24080000Y-34797300D02*
X24080000Y-46500000D01*
X25525000Y-33635000D02*
X25242300Y-33635000D01*
X32875700Y-39807400D02*
X33867600Y-39807400D01*
X40445700Y-31174300D02*
X40525000Y-31095000D01*
X33867600Y-39807400D02*
X34000000Y-39675000D01*
%TO.N,SCL*%
X26620000Y-46500000D02*
X26620000Y-36000000D01*
X38959100Y-32365000D02*
X37000000Y-34324100D01*
X37000000Y-34324100D02*
X28295900Y-34324100D01*
X28295900Y-34324100D02*
X26620000Y-36000000D01*
X40525000Y-32365000D02*
X38959100Y-32365000D01*
X26620000Y-36000000D02*
X25525000Y-34905000D01*
X37000000Y-34324100D02*
X37000000Y-39675000D01*
%TO.N,+3V3*%
X37000000Y-41325000D02*
X34000000Y-41325000D01*
X21087700Y-47623500D02*
X27083800Y-47623500D01*
X47723300Y-33059300D02*
X45759000Y-31095000D01*
X27225000Y-27000000D02*
X27988600Y-26236400D01*
X32762100Y-41325000D02*
X34000000Y-41325000D01*
X47723300Y-33250000D02*
X47723300Y-33059300D01*
X41967600Y-27257400D02*
X41320900Y-27257400D01*
X27890000Y-46817300D02*
X27890000Y-46197100D01*
X30475000Y-39037900D02*
X32762100Y-41325000D01*
X30475000Y-34905000D02*
X30475000Y-39037900D01*
X19000000Y-46500000D02*
X20101900Y-46500000D01*
X27083800Y-47623500D02*
X27890000Y-46817300D01*
X20101900Y-46637700D02*
X21087700Y-47623500D01*
X54000000Y-46500000D02*
X52898100Y-46500000D01*
X40299900Y-26236400D02*
X41320900Y-27257400D01*
X27988600Y-26236400D02*
X40299900Y-26236400D01*
X20101900Y-46500000D02*
X20101900Y-46637700D01*
X40000000Y-41325000D02*
X37000000Y-41325000D01*
X52898100Y-46500000D02*
X51444300Y-45046200D01*
X27890000Y-46197100D02*
X32762100Y-41325000D01*
X43721200Y-45046200D02*
X40000000Y-41325000D01*
X42225000Y-27000000D02*
X41967600Y-27257400D01*
X45759000Y-31095000D02*
X45475000Y-31095000D01*
X51444300Y-45046200D02*
X43721200Y-45046200D01*
%TO.N,TEMP_DQ*%
X55438100Y-45801400D02*
X55438100Y-46500000D01*
X40000000Y-39675000D02*
X44886400Y-44561400D01*
X56540000Y-46500000D02*
X55438100Y-46500000D01*
X44886400Y-44561400D02*
X54198100Y-44561400D01*
X54198100Y-44561400D02*
X55438100Y-45801400D01*
%TO.N,LED_A*%
X15590600Y-3734400D02*
X19021900Y-3734400D01*
X19021900Y-3734400D02*
X19787500Y-4500000D01*
X14825000Y-4500000D02*
X15590600Y-3734400D01*
%TO.N,MARKER*%
X43768900Y-47629200D02*
X31162800Y-47629200D01*
X30261900Y-46728300D02*
X30261900Y-46500000D01*
X31162800Y-47629200D02*
X30261900Y-46728300D01*
X44898100Y-46500000D02*
X43768900Y-47629200D01*
X46000000Y-46500000D02*
X44898100Y-46500000D01*
X29160000Y-46500000D02*
X30261900Y-46500000D01*
%TD*%
%TA.AperFunction,Conductor*%
%TO.N,GND*%
G36*
X64046894Y-26911289D02*
G01*
X64094696Y-26935646D01*
X64188481Y-26950500D01*
X65101518Y-26950499D01*
X65101521Y-26950499D01*
X65120104Y-26947556D01*
X65180536Y-26957128D01*
X65223800Y-27000393D01*
X65230579Y-27017444D01*
X65255450Y-27102146D01*
X65255455Y-27102156D01*
X65334038Y-27224434D01*
X65334039Y-27224435D01*
X65334040Y-27224436D01*
X65443896Y-27319626D01*
X65443897Y-27319626D01*
X65443898Y-27319627D01*
X65576119Y-27380011D01*
X65683842Y-27395500D01*
X65683847Y-27395500D01*
X65756158Y-27395500D01*
X65845925Y-27382592D01*
X65863880Y-27380011D01*
X65863881Y-27380011D01*
X65996102Y-27319627D01*
X65996104Y-27319626D01*
X66012769Y-27305186D01*
X66069128Y-27281368D01*
X66128723Y-27295226D01*
X66168791Y-27341467D01*
X66176600Y-27380005D01*
X66176600Y-28461310D01*
X66157693Y-28519501D01*
X66147604Y-28531314D01*
X62556614Y-32122304D01*
X62502097Y-32150081D01*
X62486610Y-32151300D01*
X58824500Y-32151300D01*
X58766309Y-32132393D01*
X58730345Y-32082893D01*
X58725500Y-32052300D01*
X58725500Y-31848319D01*
X58744407Y-31790128D01*
X58754490Y-31778322D01*
X59204328Y-31328483D01*
X59220805Y-31315205D01*
X59227128Y-31311143D01*
X59260250Y-31272915D01*
X59265040Y-31267771D01*
X59275220Y-31257593D01*
X59283844Y-31246071D01*
X59288275Y-31240574D01*
X59321376Y-31202374D01*
X59321375Y-31202374D01*
X59321377Y-31202373D01*
X59324492Y-31195549D01*
X59335296Y-31177342D01*
X59335921Y-31176506D01*
X59339796Y-31171331D01*
X59357466Y-31123952D01*
X59360159Y-31117450D01*
X59381165Y-31071457D01*
X59382233Y-31064022D01*
X59387467Y-31043515D01*
X59390091Y-31036483D01*
X59393698Y-30986043D01*
X59394453Y-30979030D01*
X59394501Y-30978700D01*
X59396500Y-30964799D01*
X59396500Y-30950418D01*
X59396752Y-30943355D01*
X59397747Y-30929442D01*
X59400359Y-30892927D01*
X59398762Y-30885585D01*
X59396500Y-30864542D01*
X59396500Y-29586822D01*
X59415407Y-29528631D01*
X59425496Y-29516818D01*
X62012818Y-26929496D01*
X62067335Y-26901719D01*
X62082822Y-26900500D01*
X64001950Y-26900500D01*
X64046894Y-26911289D01*
G37*
%TD.AperFunction*%
%TA.AperFunction,Conductor*%
G36*
X71559191Y-418907D02*
G01*
X71595155Y-468407D01*
X71600000Y-499000D01*
X71600000Y-51501000D01*
X71581093Y-51559191D01*
X71531593Y-51595155D01*
X71501000Y-51600000D01*
X499000Y-51600000D01*
X440809Y-51581093D01*
X404845Y-51531593D01*
X400000Y-51501000D01*
X400000Y-48133433D01*
X2219500Y-48133433D01*
X2259272Y-48397304D01*
X2259274Y-48397314D01*
X2337930Y-48652311D01*
X2453717Y-48892744D01*
X2604047Y-49113240D01*
X2785553Y-49308857D01*
X2785559Y-49308863D01*
X2994187Y-49475237D01*
X2994196Y-49475244D01*
X2994200Y-49475246D01*
X2994201Y-49475247D01*
X3225291Y-49608667D01*
X3225295Y-49608669D01*
X3225304Y-49608674D01*
X3473717Y-49706169D01*
X3733886Y-49765551D01*
X3800381Y-49770534D01*
X3933363Y-49780500D01*
X3933371Y-49780500D01*
X4066637Y-49780500D01*
X4189389Y-49771300D01*
X4266114Y-49765551D01*
X4526283Y-49706169D01*
X4774696Y-49608674D01*
X5005804Y-49475244D01*
X5096276Y-49403094D01*
X5214440Y-49308863D01*
X5214446Y-49308857D01*
X5395952Y-49113240D01*
X5395951Y-49113240D01*
X5395955Y-49113237D01*
X5546282Y-48892747D01*
X5662069Y-48652314D01*
X5740727Y-48397310D01*
X5780500Y-48133433D01*
X66219500Y-48133433D01*
X66259272Y-48397304D01*
X66259274Y-48397314D01*
X66337930Y-48652311D01*
X66453717Y-48892744D01*
X66604047Y-49113240D01*
X66785553Y-49308857D01*
X66785559Y-49308863D01*
X66994187Y-49475237D01*
X66994196Y-49475244D01*
X66994200Y-49475246D01*
X66994201Y-49475247D01*
X67225291Y-49608667D01*
X67225295Y-49608669D01*
X67225304Y-49608674D01*
X67473717Y-49706169D01*
X67733886Y-49765551D01*
X67800381Y-49770534D01*
X67933363Y-49780500D01*
X67933371Y-49780500D01*
X68066637Y-49780500D01*
X68189389Y-49771300D01*
X68266114Y-49765551D01*
X68526283Y-49706169D01*
X68774696Y-49608674D01*
X69005804Y-49475244D01*
X69096276Y-49403094D01*
X69214440Y-49308863D01*
X69214446Y-49308857D01*
X69395952Y-49113240D01*
X69395951Y-49113240D01*
X69395955Y-49113237D01*
X69546282Y-48892747D01*
X69662069Y-48652314D01*
X69740727Y-48397310D01*
X69780500Y-48133430D01*
X69780500Y-47866570D01*
X69740727Y-47602690D01*
X69662069Y-47347686D01*
X69546282Y-47107254D01*
X69395955Y-46886763D01*
X69395953Y-46886761D01*
X69395952Y-46886759D01*
X69214446Y-46691142D01*
X69214440Y-46691136D01*
X69005812Y-46524762D01*
X69005798Y-46524752D01*
X68774708Y-46391332D01*
X68774699Y-46391327D01*
X68774696Y-46391326D01*
X68774692Y-46391324D01*
X68774689Y-46391323D01*
X68526285Y-46293831D01*
X68278885Y-46237364D01*
X68266114Y-46234449D01*
X68266113Y-46234448D01*
X68266109Y-46234448D01*
X68066637Y-46219500D01*
X68066629Y-46219500D01*
X67933371Y-46219500D01*
X67933363Y-46219500D01*
X67733890Y-46234448D01*
X67733881Y-46234450D01*
X67473714Y-46293831D01*
X67225310Y-46391323D01*
X67225291Y-46391332D01*
X66994201Y-46524752D01*
X66994187Y-46524762D01*
X66785559Y-46691136D01*
X66785553Y-46691142D01*
X66604047Y-46886759D01*
X66453717Y-47107254D01*
X66337931Y-47347686D01*
X66259274Y-47602685D01*
X66259272Y-47602695D01*
X66219500Y-47866566D01*
X66219500Y-48133433D01*
X5780500Y-48133433D01*
X5780500Y-48133430D01*
X5780500Y-47866570D01*
X5740727Y-47602690D01*
X5662069Y-47347686D01*
X5546282Y-47107254D01*
X5395955Y-46886763D01*
X5395953Y-46886761D01*
X5395952Y-46886759D01*
X5214446Y-46691142D01*
X5214440Y-46691136D01*
X5005812Y-46524762D01*
X5005798Y-46524752D01*
X4774708Y-46391332D01*
X4774699Y-46391327D01*
X4774696Y-46391326D01*
X4774692Y-46391324D01*
X4774689Y-46391323D01*
X4526285Y-46293831D01*
X4278885Y-46237364D01*
X4266114Y-46234449D01*
X4266113Y-46234448D01*
X4266109Y-46234448D01*
X4066637Y-46219500D01*
X4066629Y-46219500D01*
X3933371Y-46219500D01*
X3933363Y-46219500D01*
X3733890Y-46234448D01*
X3733881Y-46234450D01*
X3473714Y-46293831D01*
X3225310Y-46391323D01*
X3225291Y-46391332D01*
X2994201Y-46524752D01*
X2994187Y-46524762D01*
X2785559Y-46691136D01*
X2785553Y-46691142D01*
X2604047Y-46886759D01*
X2453717Y-47107254D01*
X2337931Y-47347686D01*
X2259274Y-47602685D01*
X2259272Y-47602695D01*
X2219500Y-47866566D01*
X2219500Y-48133433D01*
X400000Y-48133433D01*
X400000Y-28753115D01*
X4712457Y-28753115D01*
X4714279Y-28767730D01*
X4716240Y-28783462D01*
X4717000Y-28795707D01*
X4717000Y-28796841D01*
X4720251Y-28816328D01*
X4720837Y-28820347D01*
X4723608Y-28842570D01*
X4726927Y-28869193D01*
X4729027Y-28876248D01*
X4731407Y-28883180D01*
X4754822Y-28926446D01*
X4756695Y-28930085D01*
X4778301Y-28974282D01*
X4782578Y-28980272D01*
X4787081Y-28986058D01*
X4823264Y-29019367D01*
X4826217Y-29022199D01*
X7843899Y-32039881D01*
X7856774Y-32055737D01*
X7863263Y-32065669D01*
X7887390Y-32084448D01*
X7896577Y-32092560D01*
X7897390Y-32093372D01*
X7897394Y-32093376D01*
X7913484Y-32104864D01*
X7916748Y-32107298D01*
X7919833Y-32109699D01*
X7955574Y-32137517D01*
X7955575Y-32137517D01*
X7955576Y-32137518D01*
X7962037Y-32141014D01*
X7968634Y-32144240D01*
X8015802Y-32158282D01*
X8019664Y-32159520D01*
X8030011Y-32163072D01*
X8066212Y-32175500D01*
X8066214Y-32175500D01*
X8073433Y-32176705D01*
X8080739Y-32177615D01*
X8080746Y-32177617D01*
X8129886Y-32175584D01*
X8133976Y-32175500D01*
X13230135Y-32175500D01*
X13288326Y-32194407D01*
X13316618Y-32232448D01*
X13318742Y-32231326D01*
X13322207Y-32237883D01*
X13402845Y-32347144D01*
X13402847Y-32347146D01*
X13402850Y-32347150D01*
X13402853Y-32347152D01*
X13402855Y-32347154D01*
X13512116Y-32427792D01*
X13512117Y-32427792D01*
X13512118Y-32427793D01*
X13640301Y-32472646D01*
X13670725Y-32475499D01*
X13670727Y-32475500D01*
X13670734Y-32475500D01*
X14329273Y-32475500D01*
X14329273Y-32475499D01*
X14359699Y-32472646D01*
X14487882Y-32427793D01*
X14597150Y-32347150D01*
X14677793Y-32237882D01*
X14722646Y-32109699D01*
X14725499Y-32079273D01*
X14725500Y-32079273D01*
X14725500Y-31570727D01*
X14725499Y-31570725D01*
X14722646Y-31540301D01*
X14702315Y-31482198D01*
X14700942Y-31421028D01*
X14735785Y-31370733D01*
X14793537Y-31350525D01*
X14795759Y-31350500D01*
X15988810Y-31350500D01*
X16047001Y-31369407D01*
X16058814Y-31379496D01*
X16245504Y-31566186D01*
X16273281Y-31620703D01*
X16274500Y-31636190D01*
X16274500Y-32079274D01*
X16277353Y-32109694D01*
X16277355Y-32109703D01*
X16322207Y-32237883D01*
X16402845Y-32347144D01*
X16402847Y-32347146D01*
X16402850Y-32347150D01*
X16402853Y-32347152D01*
X16402855Y-32347154D01*
X16512116Y-32427792D01*
X16512117Y-32427792D01*
X16512118Y-32427793D01*
X16640301Y-32472646D01*
X16670725Y-32475499D01*
X16670727Y-32475500D01*
X16670734Y-32475500D01*
X17329273Y-32475500D01*
X17329273Y-32475499D01*
X17359699Y-32472646D01*
X17487882Y-32427793D01*
X17597150Y-32347150D01*
X17677793Y-32237882D01*
X17722646Y-32109699D01*
X17725499Y-32079273D01*
X17725500Y-32079273D01*
X17725500Y-31570727D01*
X17725499Y-31570725D01*
X17722646Y-31540301D01*
X17677793Y-31412118D01*
X17675735Y-31409330D01*
X17597154Y-31302855D01*
X17597152Y-31302853D01*
X17597150Y-31302850D01*
X17597146Y-31302847D01*
X17597144Y-31302845D01*
X17487883Y-31222207D01*
X17359703Y-31177355D01*
X17359694Y-31177353D01*
X17329274Y-31174500D01*
X17329266Y-31174500D01*
X16886190Y-31174500D01*
X16827999Y-31155593D01*
X16816186Y-31145504D01*
X16455801Y-30785119D01*
X16442925Y-30769262D01*
X16436437Y-30759331D01*
X16412304Y-30740548D01*
X16403119Y-30732437D01*
X16402307Y-30731625D01*
X16386225Y-30720143D01*
X16382961Y-30717710D01*
X16344126Y-30687483D01*
X16344124Y-30687482D01*
X16337677Y-30683993D01*
X16331070Y-30680763D01*
X16331066Y-30680760D01*
X16283909Y-30666720D01*
X16280015Y-30665472D01*
X16233487Y-30649499D01*
X16226260Y-30648293D01*
X16218955Y-30647383D01*
X16218954Y-30647383D01*
X16218952Y-30647383D01*
X16169824Y-30649415D01*
X16165733Y-30649500D01*
X8025989Y-30649500D01*
X7967798Y-30630593D01*
X7955985Y-30620504D01*
X5805496Y-28470014D01*
X5777719Y-28415497D01*
X5776500Y-28400010D01*
X5776500Y-27339366D01*
X5795407Y-27281175D01*
X5844907Y-27245211D01*
X5906093Y-27245211D01*
X5940331Y-27264547D01*
X6003895Y-27319626D01*
X6003897Y-27319627D01*
X6136119Y-27380011D01*
X6243842Y-27395500D01*
X6243847Y-27395500D01*
X6316158Y-27395500D01*
X6405925Y-27382592D01*
X6423880Y-27380011D01*
X6423881Y-27380011D01*
X6508279Y-27341467D01*
X6556104Y-27319626D01*
X6665960Y-27224436D01*
X6744547Y-27102152D01*
X6769419Y-27017443D01*
X6803955Y-26966939D01*
X6861582Y-26946377D01*
X6879888Y-26947555D01*
X6898481Y-26950500D01*
X7811518Y-26950499D01*
X7811520Y-26950499D01*
X7858411Y-26943072D01*
X7905304Y-26935646D01*
X7953102Y-26911291D01*
X7994608Y-26901325D01*
X7994567Y-26900753D01*
X7998025Y-26900505D01*
X7998048Y-26900500D01*
X7998099Y-26900500D01*
X8012343Y-26898451D01*
X8019343Y-26897698D01*
X8069783Y-26894091D01*
X8076815Y-26891467D01*
X8097322Y-26886233D01*
X8104757Y-26885165D01*
X8150750Y-26864159D01*
X8157252Y-26861466D01*
X8204631Y-26843796D01*
X8210642Y-26839296D01*
X8228849Y-26828492D01*
X8235673Y-26825377D01*
X8273889Y-26792261D01*
X8279353Y-26787858D01*
X8290893Y-26779221D01*
X8301077Y-26769035D01*
X8306221Y-26764245D01*
X8344443Y-26731128D01*
X8348502Y-26724811D01*
X8361777Y-26708335D01*
X9060135Y-26009977D01*
X9076611Y-25996702D01*
X9082928Y-25992643D01*
X9116045Y-25954421D01*
X9120835Y-25949277D01*
X9131021Y-25939093D01*
X9139658Y-25927553D01*
X9144061Y-25922089D01*
X9177177Y-25883873D01*
X9180292Y-25877049D01*
X9191096Y-25858842D01*
X9191721Y-25858006D01*
X9195596Y-25852831D01*
X9213266Y-25805452D01*
X9215959Y-25798950D01*
X9236965Y-25752957D01*
X9238033Y-25745522D01*
X9243267Y-25725015D01*
X9245891Y-25717983D01*
X9249498Y-25667543D01*
X9250253Y-25660530D01*
X9252300Y-25646298D01*
X9252300Y-25631918D01*
X9252552Y-25624855D01*
X9252942Y-25619407D01*
X9256159Y-25574427D01*
X9254562Y-25567085D01*
X9252300Y-25546042D01*
X9252300Y-22842800D01*
X9271207Y-22784609D01*
X9320707Y-22748645D01*
X9351300Y-22743800D01*
X13969544Y-22743800D01*
X13990590Y-22746063D01*
X13991830Y-22746332D01*
X13997927Y-22747659D01*
X14048356Y-22744052D01*
X14055419Y-22743800D01*
X14069799Y-22743800D01*
X14084043Y-22741751D01*
X14091043Y-22740998D01*
X14141483Y-22737391D01*
X14148515Y-22734767D01*
X14169022Y-22729533D01*
X14176457Y-22728465D01*
X14222450Y-22707459D01*
X14228952Y-22704766D01*
X14276331Y-22687096D01*
X14282342Y-22682596D01*
X14300549Y-22671792D01*
X14307373Y-22668677D01*
X14345589Y-22635561D01*
X14351053Y-22631158D01*
X14362593Y-22622521D01*
X14372777Y-22612335D01*
X14377921Y-22607545D01*
X14416143Y-22574428D01*
X14420202Y-22568111D01*
X14433477Y-22551635D01*
X15367498Y-21617614D01*
X15422012Y-21589840D01*
X15482444Y-21599411D01*
X15507503Y-21617617D01*
X23362018Y-29472132D01*
X23375296Y-29488610D01*
X23379356Y-29494927D01*
X23379357Y-29494928D01*
X23417558Y-29528029D01*
X23422717Y-29532831D01*
X23432907Y-29543021D01*
X23432910Y-29543023D01*
X23444430Y-29551647D01*
X23449932Y-29556081D01*
X23488124Y-29589175D01*
X23488125Y-29589175D01*
X23488127Y-29589177D01*
X23494954Y-29592295D01*
X23513151Y-29603091D01*
X23517631Y-29606444D01*
X23519170Y-29607597D01*
X23566529Y-29625260D01*
X23573060Y-29627965D01*
X23619043Y-29648965D01*
X23626478Y-29650033D01*
X23646984Y-29655268D01*
X23648532Y-29655845D01*
X23654017Y-29657891D01*
X23654015Y-29657891D01*
X23661462Y-29658423D01*
X23704457Y-29661498D01*
X23711453Y-29662251D01*
X23725701Y-29664300D01*
X23740081Y-29664300D01*
X23747144Y-29664552D01*
X23797573Y-29668159D01*
X23803970Y-29666767D01*
X23804910Y-29666563D01*
X23825956Y-29664300D01*
X28295478Y-29664300D01*
X28353669Y-29683207D01*
X28365482Y-29693296D01*
X29290293Y-30618106D01*
X29318070Y-30672623D01*
X29308499Y-30733054D01*
X29264354Y-30819694D01*
X29249500Y-30913477D01*
X29249500Y-31276520D01*
X29249501Y-31276523D01*
X29264352Y-31370299D01*
X29264354Y-31370304D01*
X29321950Y-31483342D01*
X29411658Y-31573050D01*
X29524696Y-31630646D01*
X29534625Y-31632218D01*
X29589140Y-31659993D01*
X29616919Y-31714509D01*
X29607349Y-31774941D01*
X29564086Y-31818207D01*
X29534628Y-31827780D01*
X29524698Y-31829353D01*
X29524695Y-31829354D01*
X29411659Y-31886949D01*
X29321949Y-31976659D01*
X29264354Y-32089695D01*
X29249500Y-32183477D01*
X29249500Y-32546520D01*
X29249501Y-32546523D01*
X29264352Y-32640299D01*
X29264354Y-32640304D01*
X29321950Y-32753342D01*
X29411658Y-32843050D01*
X29524696Y-32900646D01*
X29618481Y-32915500D01*
X31331518Y-32915499D01*
X31331521Y-32915499D01*
X31331522Y-32915498D01*
X31365489Y-32910118D01*
X31425300Y-32900647D01*
X31425301Y-32900647D01*
X31425302Y-32900646D01*
X31425304Y-32900646D01*
X31455674Y-32885171D01*
X31473106Y-32876290D01*
X31518050Y-32865500D01*
X32771144Y-32865500D01*
X32792190Y-32867763D01*
X32793430Y-32868032D01*
X32799527Y-32869359D01*
X32849956Y-32865752D01*
X32857019Y-32865500D01*
X32871399Y-32865500D01*
X32885643Y-32863451D01*
X32892643Y-32862698D01*
X32943083Y-32859091D01*
X32950115Y-32856467D01*
X32970622Y-32851233D01*
X32978057Y-32850165D01*
X33024050Y-32829159D01*
X33030552Y-32826466D01*
X33077931Y-32808796D01*
X33083942Y-32804296D01*
X33102149Y-32793492D01*
X33108973Y-32790377D01*
X33147189Y-32757261D01*
X33152653Y-32752858D01*
X33164193Y-32744221D01*
X33174377Y-32734035D01*
X33179521Y-32729245D01*
X33217743Y-32696128D01*
X33221802Y-32689811D01*
X33235077Y-32673335D01*
X34999717Y-30908696D01*
X35054234Y-30880919D01*
X35069721Y-30879700D01*
X38194408Y-30879700D01*
X38252599Y-30898607D01*
X38288563Y-30948107D01*
X38288563Y-31009293D01*
X38285883Y-31016555D01*
X38280070Y-31030591D01*
X38280069Y-31030594D01*
X38261150Y-31174299D01*
X38261150Y-31174300D01*
X38280069Y-31318008D01*
X38280070Y-31318009D01*
X38330859Y-31440628D01*
X38335539Y-31451925D01*
X38423779Y-31566921D01*
X38538775Y-31655161D01*
X38672691Y-31710630D01*
X38816400Y-31729550D01*
X38960109Y-31710630D01*
X39094025Y-31655161D01*
X39209021Y-31566921D01*
X39209785Y-31565924D01*
X39211623Y-31563531D01*
X39262049Y-31528876D01*
X39290164Y-31524800D01*
X39372401Y-31524800D01*
X39430592Y-31543707D01*
X39442398Y-31553790D01*
X39461658Y-31573050D01*
X39574696Y-31630646D01*
X39584625Y-31632218D01*
X39639140Y-31659993D01*
X39666919Y-31714509D01*
X39657349Y-31774941D01*
X39614086Y-31818207D01*
X39584628Y-31827780D01*
X39574698Y-31829353D01*
X39574695Y-31829354D01*
X39461659Y-31886949D01*
X39461658Y-31886949D01*
X39461658Y-31886950D01*
X39371950Y-31976658D01*
X39371949Y-31976659D01*
X39366441Y-31982168D01*
X39364757Y-31980484D01*
X39324601Y-32009656D01*
X39294013Y-32014500D01*
X39005719Y-32014500D01*
X38985404Y-32012393D01*
X38973785Y-32009957D01*
X38954244Y-32012393D01*
X38943438Y-32013740D01*
X38931193Y-32014500D01*
X38930060Y-32014500D01*
X38910570Y-32017751D01*
X38906531Y-32018339D01*
X38857707Y-32024426D01*
X38850681Y-32026517D01*
X38843716Y-32028908D01*
X38800461Y-32052317D01*
X38796824Y-32054189D01*
X38752620Y-32075799D01*
X38746642Y-32080066D01*
X38740844Y-32084580D01*
X38707531Y-32120765D01*
X38704701Y-32123715D01*
X36883814Y-33944604D01*
X36829297Y-33972381D01*
X36813810Y-33973600D01*
X28342520Y-33973600D01*
X28322205Y-33971493D01*
X28310586Y-33969057D01*
X28291045Y-33971493D01*
X28280239Y-33972840D01*
X28267994Y-33973600D01*
X28266857Y-33973600D01*
X28247383Y-33976849D01*
X28243340Y-33977438D01*
X28194513Y-33983525D01*
X28187438Y-33985632D01*
X28180518Y-33988008D01*
X28137252Y-34011421D01*
X28133617Y-34013292D01*
X28089421Y-34034898D01*
X28083447Y-34039163D01*
X28077644Y-34043680D01*
X28044331Y-34079865D01*
X28041501Y-34082815D01*
X26911882Y-35212435D01*
X26857365Y-35240212D01*
X26796933Y-35230641D01*
X26753668Y-35187376D01*
X26744097Y-35126944D01*
X26750500Y-35086519D01*
X26750499Y-34723482D01*
X26742951Y-34675819D01*
X26735647Y-34629700D01*
X26735646Y-34629698D01*
X26735646Y-34629696D01*
X26678050Y-34516658D01*
X26588342Y-34426950D01*
X26475304Y-34369354D01*
X26475306Y-34369354D01*
X26465372Y-34367781D01*
X26410856Y-34340002D01*
X26383080Y-34285485D01*
X26392652Y-34225053D01*
X26435917Y-34181790D01*
X26465376Y-34172218D01*
X26475304Y-34170646D01*
X26588342Y-34113050D01*
X26678050Y-34023342D01*
X26735646Y-33910304D01*
X26750500Y-33816519D01*
X26750499Y-33453482D01*
X26735646Y-33359696D01*
X26678050Y-33246658D01*
X26588342Y-33156950D01*
X26475304Y-33099354D01*
X26475305Y-33099354D01*
X26381521Y-33084500D01*
X24668478Y-33084500D01*
X24668476Y-33084501D01*
X24574700Y-33099352D01*
X24574695Y-33099354D01*
X24461659Y-33156949D01*
X24371949Y-33246659D01*
X24314354Y-33359695D01*
X24299500Y-33453477D01*
X24299500Y-33816520D01*
X24299501Y-33816523D01*
X24314352Y-33910299D01*
X24314353Y-33910302D01*
X24334679Y-33950194D01*
X24344250Y-34010626D01*
X24316473Y-34065143D01*
X23865118Y-34516498D01*
X23849265Y-34529371D01*
X23839335Y-34535859D01*
X23839332Y-34535861D01*
X23820548Y-34559995D01*
X23812437Y-34569180D01*
X23811627Y-34569989D01*
X23811619Y-34569998D01*
X23800133Y-34586086D01*
X23797690Y-34589363D01*
X23767482Y-34628174D01*
X23763981Y-34634643D01*
X23760759Y-34641234D01*
X23746718Y-34688396D01*
X23745470Y-34692290D01*
X23729500Y-34738810D01*
X23728293Y-34746043D01*
X23727383Y-34753347D01*
X23729415Y-34802475D01*
X23729500Y-34806566D01*
X23729500Y-45387771D01*
X23710593Y-45445962D01*
X23666262Y-45480086D01*
X23587363Y-45510652D01*
X23413959Y-45618019D01*
X23263236Y-45755421D01*
X23254711Y-45766710D01*
X23140328Y-45918177D01*
X23140323Y-45918186D01*
X23059872Y-46079755D01*
X23049418Y-46100750D01*
X22993603Y-46296917D01*
X22974785Y-46500000D01*
X22993603Y-46703083D01*
X23049418Y-46899250D01*
X23140327Y-47081821D01*
X23164884Y-47114340D01*
X23184863Y-47172171D01*
X23167034Y-47230701D01*
X23118207Y-47267573D01*
X23085880Y-47273000D01*
X21273889Y-47273000D01*
X21215698Y-47254093D01*
X21203885Y-47244004D01*
X20483951Y-46524069D01*
X20457984Y-46478368D01*
X20456031Y-46470658D01*
X20456032Y-46470656D01*
X20446232Y-46431960D01*
X20444560Y-46423981D01*
X20437992Y-46384619D01*
X20437992Y-46384618D01*
X20436821Y-46382454D01*
X20427918Y-46359638D01*
X20427316Y-46357259D01*
X20405492Y-46323855D01*
X20401313Y-46316842D01*
X20382318Y-46281742D01*
X20380508Y-46280076D01*
X20364680Y-46261387D01*
X20363337Y-46259331D01*
X20363334Y-46259329D01*
X20362545Y-46258715D01*
X20354631Y-46252554D01*
X20331850Y-46234823D01*
X20325607Y-46229536D01*
X20296256Y-46202516D01*
X20296254Y-46202515D01*
X20296253Y-46202514D01*
X20293996Y-46201524D01*
X20272967Y-46188993D01*
X20271029Y-46187485D01*
X20271027Y-46187484D01*
X20271026Y-46187483D01*
X20233284Y-46174525D01*
X20225687Y-46171561D01*
X20189132Y-46155527D01*
X20181183Y-46153515D01*
X20181653Y-46151656D01*
X20134890Y-46132057D01*
X20103139Y-46079755D01*
X20100500Y-46057047D01*
X20100500Y-45625327D01*
X20100498Y-45625315D01*
X20093407Y-45589667D01*
X20085966Y-45552260D01*
X20083415Y-45548442D01*
X20030602Y-45469400D01*
X20030599Y-45469397D01*
X19947742Y-45414035D01*
X19947740Y-45414034D01*
X19947737Y-45414033D01*
X19947736Y-45414033D01*
X19874684Y-45399501D01*
X19874674Y-45399500D01*
X18125326Y-45399500D01*
X18125325Y-45399500D01*
X18125315Y-45399501D01*
X18052263Y-45414033D01*
X18052257Y-45414035D01*
X17969400Y-45469397D01*
X17969397Y-45469400D01*
X17914035Y-45552257D01*
X17914033Y-45552263D01*
X17899501Y-45625315D01*
X17899500Y-45625327D01*
X17899500Y-47374672D01*
X17899501Y-47374684D01*
X17914033Y-47447736D01*
X17914035Y-47447742D01*
X17969397Y-47530599D01*
X17969399Y-47530601D01*
X18052260Y-47585966D01*
X18107808Y-47597015D01*
X18125315Y-47600498D01*
X18125320Y-47600498D01*
X18125326Y-47600500D01*
X18125327Y-47600500D01*
X19874673Y-47600500D01*
X19874674Y-47600500D01*
X19947740Y-47585966D01*
X20030601Y-47530601D01*
X20085966Y-47447740D01*
X20100500Y-47374674D01*
X20100500Y-47370989D01*
X20119407Y-47312798D01*
X20168907Y-47276834D01*
X20230093Y-47276834D01*
X20269504Y-47300985D01*
X20806897Y-47838378D01*
X20819772Y-47854234D01*
X20826263Y-47864169D01*
X20850394Y-47882951D01*
X20859578Y-47891060D01*
X20860389Y-47891870D01*
X20860393Y-47891874D01*
X20876473Y-47903356D01*
X20879751Y-47905800D01*
X20916377Y-47934307D01*
X20918574Y-47936017D01*
X20918578Y-47936018D01*
X20925054Y-47939522D01*
X20931634Y-47942740D01*
X20978802Y-47956782D01*
X20982664Y-47958020D01*
X20990800Y-47960813D01*
X21029212Y-47974000D01*
X21029214Y-47974000D01*
X21036433Y-47975205D01*
X21043739Y-47976115D01*
X21043746Y-47976117D01*
X21092886Y-47974084D01*
X21096976Y-47974000D01*
X27037181Y-47974000D01*
X27057496Y-47976107D01*
X27059406Y-47976507D01*
X27069115Y-47978543D01*
X27099462Y-47974759D01*
X27111707Y-47974000D01*
X27112843Y-47974000D01*
X27132321Y-47970749D01*
X27136352Y-47970161D01*
X27185193Y-47964073D01*
X27185196Y-47964071D01*
X27192229Y-47961977D01*
X27199175Y-47959592D01*
X27199181Y-47959592D01*
X27242455Y-47936171D01*
X27246079Y-47934307D01*
X27290282Y-47912699D01*
X27290282Y-47912698D01*
X27290284Y-47912698D01*
X27290285Y-47912696D01*
X27296270Y-47908423D01*
X27302055Y-47903920D01*
X27302055Y-47903919D01*
X27302058Y-47903918D01*
X27335379Y-47867720D01*
X27338164Y-47864816D01*
X28097215Y-47105765D01*
X28151730Y-47077990D01*
X28212162Y-47087561D01*
X28246220Y-47116110D01*
X28288556Y-47172171D01*
X28343236Y-47244579D01*
X28493959Y-47381981D01*
X28667363Y-47489348D01*
X28857544Y-47563024D01*
X29058024Y-47600500D01*
X29261976Y-47600500D01*
X29462456Y-47563024D01*
X29652637Y-47489348D01*
X29826041Y-47381981D01*
X29976764Y-47244579D01*
X30039747Y-47161175D01*
X30089900Y-47126134D01*
X30151075Y-47127265D01*
X30188752Y-47150834D01*
X30881999Y-47844081D01*
X30894874Y-47859937D01*
X30901363Y-47869869D01*
X30925490Y-47888648D01*
X30934677Y-47896760D01*
X30935491Y-47897574D01*
X30935495Y-47897577D01*
X30951555Y-47909043D01*
X30954839Y-47911491D01*
X30986564Y-47936183D01*
X30993674Y-47941717D01*
X30993678Y-47941718D01*
X31000154Y-47945222D01*
X31006734Y-47948440D01*
X31053902Y-47962482D01*
X31057764Y-47963720D01*
X31065900Y-47966513D01*
X31104312Y-47979700D01*
X31104314Y-47979700D01*
X31111536Y-47980905D01*
X31118839Y-47981815D01*
X31118846Y-47981817D01*
X31167976Y-47979785D01*
X31172067Y-47979700D01*
X43722281Y-47979700D01*
X43742596Y-47981807D01*
X43744506Y-47982207D01*
X43754215Y-47984243D01*
X43784562Y-47980459D01*
X43796807Y-47979700D01*
X43797943Y-47979700D01*
X43817421Y-47976449D01*
X43821452Y-47975861D01*
X43870293Y-47969773D01*
X43870296Y-47969771D01*
X43877329Y-47967677D01*
X43884275Y-47965292D01*
X43884281Y-47965292D01*
X43927555Y-47941871D01*
X43931179Y-47940007D01*
X43975382Y-47918399D01*
X43975382Y-47918398D01*
X43975384Y-47918398D01*
X43975385Y-47918396D01*
X43981370Y-47914123D01*
X43987155Y-47909620D01*
X43987155Y-47909619D01*
X43987158Y-47909618D01*
X44020479Y-47873420D01*
X44023264Y-47870516D01*
X44730497Y-47163284D01*
X44785013Y-47135508D01*
X44845445Y-47145079D01*
X44888710Y-47188344D01*
X44899500Y-47233289D01*
X44899500Y-47374672D01*
X44899501Y-47374684D01*
X44914033Y-47447736D01*
X44914035Y-47447742D01*
X44969397Y-47530599D01*
X44969399Y-47530601D01*
X45052260Y-47585966D01*
X45107808Y-47597015D01*
X45125315Y-47600498D01*
X45125320Y-47600498D01*
X45125326Y-47600500D01*
X45125327Y-47600500D01*
X46874673Y-47600500D01*
X46874674Y-47600500D01*
X46947740Y-47585966D01*
X47030601Y-47530601D01*
X47085966Y-47447740D01*
X47100500Y-47374674D01*
X47100500Y-45625326D01*
X47085966Y-45552260D01*
X47085963Y-45552255D01*
X47084923Y-45550698D01*
X47084079Y-45547705D01*
X47082233Y-45543248D01*
X47082760Y-45543029D01*
X47068317Y-45491809D01*
X47089497Y-45434406D01*
X47140373Y-45400416D01*
X47167241Y-45396700D01*
X51258110Y-45396700D01*
X51316301Y-45415607D01*
X51328114Y-45425696D01*
X52617299Y-46714881D01*
X52630174Y-46730737D01*
X52636663Y-46740669D01*
X52660790Y-46759448D01*
X52669977Y-46767560D01*
X52670790Y-46768372D01*
X52670794Y-46768376D01*
X52686884Y-46779864D01*
X52690148Y-46782298D01*
X52728974Y-46812517D01*
X52728975Y-46812517D01*
X52728976Y-46812518D01*
X52735437Y-46816014D01*
X52742034Y-46819240D01*
X52789202Y-46833282D01*
X52793064Y-46834520D01*
X52813237Y-46841445D01*
X52832645Y-46848108D01*
X52881544Y-46884885D01*
X52899500Y-46941744D01*
X52899500Y-47374672D01*
X52899501Y-47374684D01*
X52914033Y-47447736D01*
X52914035Y-47447742D01*
X52969397Y-47530599D01*
X52969399Y-47530601D01*
X53052260Y-47585966D01*
X53107808Y-47597015D01*
X53125315Y-47600498D01*
X53125320Y-47600498D01*
X53125326Y-47600500D01*
X53125327Y-47600500D01*
X54874673Y-47600500D01*
X54874674Y-47600500D01*
X54947740Y-47585966D01*
X55030601Y-47530601D01*
X55085966Y-47447740D01*
X55100500Y-47374674D01*
X55100500Y-46886182D01*
X55119407Y-46827991D01*
X55168907Y-46792027D01*
X55230093Y-46792027D01*
X55239261Y-46795517D01*
X55243741Y-46797482D01*
X55243744Y-46797484D01*
X55245997Y-46798472D01*
X55267034Y-46811007D01*
X55268974Y-46812517D01*
X55306715Y-46825473D01*
X55314299Y-46828432D01*
X55350868Y-46844473D01*
X55353316Y-46844675D01*
X55377292Y-46849704D01*
X55379606Y-46850498D01*
X55379612Y-46850500D01*
X55419514Y-46850500D01*
X55427683Y-46850838D01*
X55432200Y-46851212D01*
X55488632Y-46874856D01*
X55512652Y-46905746D01*
X55572960Y-47026861D01*
X55600327Y-47081821D01*
X55723236Y-47244579D01*
X55873959Y-47381981D01*
X56047363Y-47489348D01*
X56237544Y-47563024D01*
X56438024Y-47600500D01*
X56641976Y-47600500D01*
X56842456Y-47563024D01*
X57032637Y-47489348D01*
X57206041Y-47381981D01*
X57356764Y-47244579D01*
X57479673Y-47081821D01*
X57570582Y-46899250D01*
X57626397Y-46703083D01*
X57645215Y-46500000D01*
X57626397Y-46296917D01*
X57570582Y-46100750D01*
X57479673Y-45918179D01*
X57356764Y-45755421D01*
X57206041Y-45618019D01*
X57032637Y-45510652D01*
X56842456Y-45436976D01*
X56842455Y-45436975D01*
X56842453Y-45436975D01*
X56641976Y-45399500D01*
X56438024Y-45399500D01*
X56237546Y-45436975D01*
X56167632Y-45464059D01*
X56047363Y-45510652D01*
X55930286Y-45583143D01*
X55873949Y-45618025D01*
X55870525Y-45620611D01*
X55812691Y-45640582D01*
X55754163Y-45622745D01*
X55730302Y-45599123D01*
X55723048Y-45588962D01*
X55718519Y-45583143D01*
X55718518Y-45583142D01*
X55682321Y-45549820D01*
X55679394Y-45547012D01*
X54478901Y-44346519D01*
X54466025Y-44330662D01*
X54459537Y-44320731D01*
X54435408Y-44301951D01*
X54426219Y-44293837D01*
X54425407Y-44293025D01*
X54409325Y-44281543D01*
X54406061Y-44279110D01*
X54367226Y-44248883D01*
X54367224Y-44248882D01*
X54360777Y-44245393D01*
X54354170Y-44242163D01*
X54354166Y-44242160D01*
X54307009Y-44228120D01*
X54303115Y-44226872D01*
X54256587Y-44210899D01*
X54249360Y-44209693D01*
X54242055Y-44208783D01*
X54242054Y-44208783D01*
X54242052Y-44208783D01*
X54192924Y-44210815D01*
X54188833Y-44210900D01*
X45072590Y-44210900D01*
X45014399Y-44191993D01*
X45002586Y-44181904D01*
X40754496Y-39933814D01*
X40726719Y-39879297D01*
X40725500Y-39863810D01*
X40725500Y-39420727D01*
X40725499Y-39420725D01*
X40724942Y-39414781D01*
X40722646Y-39390301D01*
X40677793Y-39262118D01*
X40673394Y-39256158D01*
X40597154Y-39152855D01*
X40597152Y-39152853D01*
X40597150Y-39152850D01*
X40597146Y-39152847D01*
X40597144Y-39152845D01*
X40487883Y-39072207D01*
X40359703Y-39027355D01*
X40359694Y-39027353D01*
X40329274Y-39024500D01*
X40329266Y-39024500D01*
X39670734Y-39024500D01*
X39670725Y-39024500D01*
X39640305Y-39027353D01*
X39640296Y-39027355D01*
X39512116Y-39072207D01*
X39402855Y-39152845D01*
X39402845Y-39152855D01*
X39322207Y-39262116D01*
X39277355Y-39390296D01*
X39277353Y-39390305D01*
X39274500Y-39420725D01*
X39274500Y-39929274D01*
X39277353Y-39959694D01*
X39277355Y-39959703D01*
X39322207Y-40087883D01*
X39402845Y-40197144D01*
X39402847Y-40197146D01*
X39402850Y-40197150D01*
X39402853Y-40197152D01*
X39402855Y-40197154D01*
X39512116Y-40277792D01*
X39512117Y-40277792D01*
X39512118Y-40277793D01*
X39640301Y-40322646D01*
X39670725Y-40325499D01*
X39670727Y-40325500D01*
X39670734Y-40325500D01*
X40113810Y-40325500D01*
X40172001Y-40344407D01*
X40183814Y-40354496D01*
X40334814Y-40505496D01*
X40362591Y-40560013D01*
X40353020Y-40620445D01*
X40309755Y-40663710D01*
X40264810Y-40674500D01*
X39670725Y-40674500D01*
X39640305Y-40677353D01*
X39640296Y-40677355D01*
X39512116Y-40722207D01*
X39402855Y-40802845D01*
X39402845Y-40802855D01*
X39322207Y-40912116D01*
X39318742Y-40918674D01*
X39316501Y-40917490D01*
X39286524Y-40956871D01*
X39230135Y-40974500D01*
X37769865Y-40974500D01*
X37711674Y-40955593D01*
X37683381Y-40917551D01*
X37681258Y-40918674D01*
X37677792Y-40912116D01*
X37597154Y-40802855D01*
X37597152Y-40802853D01*
X37597150Y-40802850D01*
X37597146Y-40802847D01*
X37597144Y-40802845D01*
X37487883Y-40722207D01*
X37359703Y-40677355D01*
X37359694Y-40677353D01*
X37329274Y-40674500D01*
X37329266Y-40674500D01*
X36670734Y-40674500D01*
X36670725Y-40674500D01*
X36640305Y-40677353D01*
X36640296Y-40677355D01*
X36512116Y-40722207D01*
X36402855Y-40802845D01*
X36402845Y-40802855D01*
X36322207Y-40912116D01*
X36318742Y-40918674D01*
X36316501Y-40917490D01*
X36286524Y-40956871D01*
X36230135Y-40974500D01*
X34769865Y-40974500D01*
X34711674Y-40955593D01*
X34683381Y-40917551D01*
X34681258Y-40918674D01*
X34677792Y-40912116D01*
X34597154Y-40802855D01*
X34597152Y-40802853D01*
X34597150Y-40802850D01*
X34597146Y-40802847D01*
X34597144Y-40802845D01*
X34487883Y-40722207D01*
X34359703Y-40677355D01*
X34359694Y-40677353D01*
X34329274Y-40674500D01*
X34329266Y-40674500D01*
X33670734Y-40674500D01*
X33670725Y-40674500D01*
X33640305Y-40677353D01*
X33640296Y-40677355D01*
X33512116Y-40722207D01*
X33402855Y-40802845D01*
X33402845Y-40802855D01*
X33322207Y-40912116D01*
X33318742Y-40918674D01*
X33316501Y-40917490D01*
X33286524Y-40956871D01*
X33230135Y-40974500D01*
X32948290Y-40974500D01*
X32890099Y-40955593D01*
X32878286Y-40945504D01*
X31740182Y-39807400D01*
X32320450Y-39807400D01*
X32339369Y-39951108D01*
X32339370Y-39951109D01*
X32394839Y-40085025D01*
X32483079Y-40200021D01*
X32598075Y-40288261D01*
X32731991Y-40343730D01*
X32875700Y-40362650D01*
X33019409Y-40343730D01*
X33153325Y-40288261D01*
X33268321Y-40200021D01*
X33268322Y-40200019D01*
X33273468Y-40196071D01*
X33274552Y-40197484D01*
X33321534Y-40173547D01*
X33381966Y-40183118D01*
X33396300Y-40193532D01*
X33396881Y-40192745D01*
X33512116Y-40277792D01*
X33512117Y-40277792D01*
X33512118Y-40277793D01*
X33640301Y-40322646D01*
X33670725Y-40325499D01*
X33670727Y-40325500D01*
X33670734Y-40325500D01*
X34329273Y-40325500D01*
X34329273Y-40325499D01*
X34359699Y-40322646D01*
X34487882Y-40277793D01*
X34597150Y-40197150D01*
X34677793Y-40087882D01*
X34722646Y-39959699D01*
X34725499Y-39929273D01*
X34725500Y-39929273D01*
X34725500Y-39420727D01*
X34725499Y-39420725D01*
X34724942Y-39414781D01*
X34722646Y-39390301D01*
X34677793Y-39262118D01*
X34673394Y-39256158D01*
X34597154Y-39152855D01*
X34597152Y-39152853D01*
X34597150Y-39152850D01*
X34597146Y-39152847D01*
X34597144Y-39152845D01*
X34487883Y-39072207D01*
X34359703Y-39027355D01*
X34359694Y-39027353D01*
X34329274Y-39024500D01*
X34329266Y-39024500D01*
X33670734Y-39024500D01*
X33670725Y-39024500D01*
X33640305Y-39027353D01*
X33640296Y-39027355D01*
X33512116Y-39072207D01*
X33402855Y-39152845D01*
X33402845Y-39152855D01*
X33322207Y-39262115D01*
X33313871Y-39285940D01*
X33276805Y-39334620D01*
X33218204Y-39352216D01*
X33160452Y-39332007D01*
X33160160Y-39331783D01*
X33153330Y-39326542D01*
X33153321Y-39326537D01*
X33019409Y-39271070D01*
X33019408Y-39271069D01*
X32875700Y-39252150D01*
X32731991Y-39271069D01*
X32731990Y-39271070D01*
X32598078Y-39326537D01*
X32598074Y-39326539D01*
X32483081Y-39414777D01*
X32483077Y-39414781D01*
X32394839Y-39529774D01*
X32394837Y-39529778D01*
X32339370Y-39663690D01*
X32339369Y-39663691D01*
X32320450Y-39807399D01*
X32320450Y-39807400D01*
X31740182Y-39807400D01*
X30854496Y-38921714D01*
X30826719Y-38867197D01*
X30825500Y-38851710D01*
X30825500Y-35554499D01*
X30844407Y-35496308D01*
X30893907Y-35460344D01*
X30924500Y-35455499D01*
X31331521Y-35455499D01*
X31331522Y-35455498D01*
X31378411Y-35448072D01*
X31425299Y-35440647D01*
X31425299Y-35440646D01*
X31425304Y-35440646D01*
X31538342Y-35383050D01*
X31628050Y-35293342D01*
X31685646Y-35180304D01*
X31700500Y-35086519D01*
X31700499Y-34773599D01*
X31719406Y-34715410D01*
X31768906Y-34679446D01*
X31799499Y-34674600D01*
X36550500Y-34674600D01*
X36608691Y-34693507D01*
X36644655Y-34743007D01*
X36649500Y-34773600D01*
X36649500Y-38953890D01*
X36630593Y-39012081D01*
X36583199Y-39047334D01*
X36512115Y-39072207D01*
X36402855Y-39152845D01*
X36402845Y-39152855D01*
X36322207Y-39262116D01*
X36277355Y-39390296D01*
X36277353Y-39390305D01*
X36274500Y-39420725D01*
X36274500Y-39929274D01*
X36277353Y-39959694D01*
X36277355Y-39959703D01*
X36322207Y-40087883D01*
X36402845Y-40197144D01*
X36402847Y-40197146D01*
X36402850Y-40197150D01*
X36402853Y-40197152D01*
X36402855Y-40197154D01*
X36512116Y-40277792D01*
X36512117Y-40277792D01*
X36512118Y-40277793D01*
X36640301Y-40322646D01*
X36670725Y-40325499D01*
X36670727Y-40325500D01*
X36670734Y-40325500D01*
X37329273Y-40325500D01*
X37329273Y-40325499D01*
X37359699Y-40322646D01*
X37487882Y-40277793D01*
X37597150Y-40197150D01*
X37677793Y-40087882D01*
X37722646Y-39959699D01*
X37725499Y-39929273D01*
X37725500Y-39929273D01*
X37725500Y-39420727D01*
X37725499Y-39420725D01*
X37724942Y-39414781D01*
X37722646Y-39390301D01*
X37677793Y-39262118D01*
X37673394Y-39256158D01*
X37597154Y-39152855D01*
X37597152Y-39152853D01*
X37597150Y-39152850D01*
X37597146Y-39152847D01*
X37597144Y-39152845D01*
X37487884Y-39072207D01*
X37416801Y-39047334D01*
X37368121Y-39010268D01*
X37350500Y-38953890D01*
X37350500Y-34510289D01*
X37369407Y-34452098D01*
X37379496Y-34440285D01*
X39075285Y-32744496D01*
X39129802Y-32716719D01*
X39145289Y-32715500D01*
X39294013Y-32715500D01*
X39352204Y-32734407D01*
X39366035Y-32748237D01*
X39366441Y-32747832D01*
X39371948Y-32753339D01*
X39371950Y-32753342D01*
X39461658Y-32843050D01*
X39574696Y-32900646D01*
X39584625Y-32902218D01*
X39639140Y-32929993D01*
X39666919Y-32984509D01*
X39657349Y-33044941D01*
X39614086Y-33088207D01*
X39584628Y-33097780D01*
X39574698Y-33099353D01*
X39574695Y-33099354D01*
X39461659Y-33156949D01*
X39371949Y-33246659D01*
X39314354Y-33359695D01*
X39299500Y-33453477D01*
X39299500Y-33816520D01*
X39299501Y-33816523D01*
X39314352Y-33910299D01*
X39314354Y-33910304D01*
X39371950Y-34023342D01*
X39461658Y-34113050D01*
X39574696Y-34170646D01*
X39668481Y-34185500D01*
X41381518Y-34185499D01*
X41381521Y-34185499D01*
X41381522Y-34185498D01*
X41428411Y-34178072D01*
X41475299Y-34170647D01*
X41475299Y-34170646D01*
X41475304Y-34170646D01*
X41588342Y-34113050D01*
X41678050Y-34023342D01*
X41735646Y-33910304D01*
X41750500Y-33816519D01*
X41750499Y-33453482D01*
X41735646Y-33359696D01*
X41678050Y-33246658D01*
X41588342Y-33156950D01*
X41475304Y-33099354D01*
X41475306Y-33099354D01*
X41465372Y-33097781D01*
X41410856Y-33070002D01*
X41383080Y-33015485D01*
X41392652Y-32955053D01*
X41435917Y-32911790D01*
X41465376Y-32902218D01*
X41475304Y-32900646D01*
X41588342Y-32843050D01*
X41678050Y-32753342D01*
X41735646Y-32640304D01*
X41750500Y-32546519D01*
X41750499Y-32183482D01*
X41743220Y-32137518D01*
X41735647Y-32089700D01*
X41735646Y-32089698D01*
X41735646Y-32089696D01*
X41678050Y-31976658D01*
X41588342Y-31886950D01*
X41475304Y-31829354D01*
X41475306Y-31829354D01*
X41465372Y-31827781D01*
X41410856Y-31800002D01*
X41383080Y-31745485D01*
X41392652Y-31685053D01*
X41435917Y-31641790D01*
X41465376Y-31632218D01*
X41475304Y-31630646D01*
X41588342Y-31573050D01*
X41678050Y-31483342D01*
X41735646Y-31370304D01*
X41750500Y-31276519D01*
X41750499Y-30978699D01*
X41769406Y-30920510D01*
X41818906Y-30884546D01*
X41849499Y-30879700D01*
X44150500Y-30879700D01*
X44208691Y-30898607D01*
X44244655Y-30948107D01*
X44249500Y-30978700D01*
X44249500Y-31276520D01*
X44249501Y-31276523D01*
X44264352Y-31370299D01*
X44264354Y-31370304D01*
X44321950Y-31483342D01*
X44411658Y-31573050D01*
X44524696Y-31630646D01*
X44618481Y-31645500D01*
X45772809Y-31645499D01*
X45831000Y-31664406D01*
X45842813Y-31674495D01*
X47165863Y-32997545D01*
X47193640Y-33052062D01*
X47187988Y-33099841D01*
X47188650Y-33100019D01*
X47187428Y-33104577D01*
X47187329Y-33105421D01*
X47186971Y-33106284D01*
X47186970Y-33106289D01*
X47168050Y-33249999D01*
X47168050Y-33250000D01*
X47186969Y-33393708D01*
X47186970Y-33393709D01*
X47242439Y-33527625D01*
X47330679Y-33642621D01*
X47445675Y-33730861D01*
X47579591Y-33786330D01*
X47723300Y-33805250D01*
X47867009Y-33786330D01*
X48000925Y-33730861D01*
X48115921Y-33642621D01*
X48204161Y-33527625D01*
X48259630Y-33393709D01*
X48278550Y-33250000D01*
X48259630Y-33106291D01*
X48204161Y-32972375D01*
X48115921Y-32857379D01*
X48000925Y-32769139D01*
X48000924Y-32769138D01*
X47896029Y-32725690D01*
X47863911Y-32704230D01*
X46683964Y-31524282D01*
X46656187Y-31469765D01*
X46665757Y-31409337D01*
X46685646Y-31370304D01*
X46700500Y-31276519D01*
X46700499Y-30978699D01*
X46719406Y-30920510D01*
X46768906Y-30884546D01*
X46799499Y-30879700D01*
X53613023Y-30879700D01*
X53671214Y-30898607D01*
X53687837Y-30913863D01*
X53699034Y-30926785D01*
X53703440Y-30932252D01*
X53712079Y-30943793D01*
X53712081Y-30943795D01*
X53722262Y-30953977D01*
X53727064Y-30959134D01*
X53750400Y-30986065D01*
X53760173Y-30997344D01*
X53766483Y-31001399D01*
X53782966Y-31014680D01*
X54186118Y-31417832D01*
X54199396Y-31434310D01*
X54203456Y-31440627D01*
X54203457Y-31440628D01*
X54241658Y-31473729D01*
X54246952Y-31478666D01*
X54247242Y-31478957D01*
X54274926Y-31533521D01*
X54275686Y-31558081D01*
X54274500Y-31570731D01*
X54274500Y-32079274D01*
X54277353Y-32109694D01*
X54277355Y-32109703D01*
X54322207Y-32237883D01*
X54402845Y-32347144D01*
X54402847Y-32347146D01*
X54402850Y-32347150D01*
X54402853Y-32347152D01*
X54402855Y-32347154D01*
X54512116Y-32427792D01*
X54512117Y-32427792D01*
X54512118Y-32427793D01*
X54640301Y-32472646D01*
X54670725Y-32475499D01*
X54670727Y-32475500D01*
X54670734Y-32475500D01*
X55329273Y-32475500D01*
X55329273Y-32475499D01*
X55359699Y-32472646D01*
X55487882Y-32427793D01*
X55597150Y-32347150D01*
X55677793Y-32237882D01*
X55722646Y-32109699D01*
X55725499Y-32079273D01*
X55725500Y-32079273D01*
X55725500Y-31570733D01*
X55725396Y-31569628D01*
X55724605Y-31561195D01*
X55737992Y-31501495D01*
X55753159Y-31481954D01*
X55756599Y-31478513D01*
X55761721Y-31473745D01*
X55799943Y-31440628D01*
X55804003Y-31434310D01*
X55817277Y-31417835D01*
X57105497Y-30129616D01*
X57160013Y-30101840D01*
X57220445Y-30111411D01*
X57263710Y-30154676D01*
X57274500Y-30199621D01*
X57274500Y-30363810D01*
X57255593Y-30422001D01*
X57245503Y-30433814D01*
X57008720Y-30670596D01*
X56992869Y-30683469D01*
X56982932Y-30689961D01*
X56964148Y-30714095D01*
X56956037Y-30723280D01*
X56955227Y-30724089D01*
X56955219Y-30724098D01*
X56943733Y-30740186D01*
X56941290Y-30743463D01*
X56911082Y-30782274D01*
X56907581Y-30788743D01*
X56904359Y-30795334D01*
X56890318Y-30842496D01*
X56889070Y-30846390D01*
X56873100Y-30892910D01*
X56871893Y-30900143D01*
X56870983Y-30907447D01*
X56871233Y-30913481D01*
X56873010Y-30956467D01*
X56873015Y-30956575D01*
X56873100Y-30960666D01*
X56873100Y-32181581D01*
X56870993Y-32201896D01*
X56868557Y-32213513D01*
X56872340Y-32243862D01*
X56873100Y-32256107D01*
X56873100Y-32257242D01*
X56876351Y-32276728D01*
X56876937Y-32280747D01*
X56883027Y-32329593D01*
X56885127Y-32336648D01*
X56887507Y-32343580D01*
X56910922Y-32386846D01*
X56912795Y-32390485D01*
X56934401Y-32434682D01*
X56938678Y-32440672D01*
X56943181Y-32446457D01*
X56943182Y-32446458D01*
X56971627Y-32472644D01*
X56979351Y-32479754D01*
X56982305Y-32482587D01*
X57216397Y-32716679D01*
X57229268Y-32732529D01*
X57235763Y-32742469D01*
X57259894Y-32761251D01*
X57269078Y-32769360D01*
X57269889Y-32770170D01*
X57269893Y-32770174D01*
X57285973Y-32781656D01*
X57289251Y-32784100D01*
X57325877Y-32812607D01*
X57328074Y-32814317D01*
X57328078Y-32814318D01*
X57334554Y-32817822D01*
X57341134Y-32821040D01*
X57388302Y-32835082D01*
X57392164Y-32836320D01*
X57400300Y-32839113D01*
X57438712Y-32852300D01*
X57438714Y-32852300D01*
X57445933Y-32853505D01*
X57453239Y-32854415D01*
X57453246Y-32854417D01*
X57502386Y-32852384D01*
X57506476Y-32852300D01*
X62626181Y-32852300D01*
X62646496Y-32854407D01*
X62648406Y-32854807D01*
X62658115Y-32856843D01*
X62688462Y-32853059D01*
X62700707Y-32852300D01*
X62701843Y-32852300D01*
X62721321Y-32849049D01*
X62725352Y-32848461D01*
X62774193Y-32842373D01*
X62774196Y-32842371D01*
X62781229Y-32840277D01*
X62788175Y-32837892D01*
X62788181Y-32837892D01*
X62831455Y-32814471D01*
X62835079Y-32812607D01*
X62879282Y-32790999D01*
X62879282Y-32790998D01*
X62879284Y-32790998D01*
X62879285Y-32790996D01*
X62885270Y-32786723D01*
X62891055Y-32782220D01*
X62891055Y-32782219D01*
X62891058Y-32782218D01*
X62924379Y-32746020D01*
X62927164Y-32743116D01*
X66741984Y-28928296D01*
X66757834Y-28915426D01*
X66767769Y-28908937D01*
X66786551Y-28884803D01*
X66794677Y-28875604D01*
X66795475Y-28874807D01*
X66806972Y-28858701D01*
X66809373Y-28855481D01*
X66839617Y-28816626D01*
X66839617Y-28816623D01*
X66843108Y-28810173D01*
X66846337Y-28803570D01*
X66846337Y-28803567D01*
X66846339Y-28803566D01*
X66860378Y-28756405D01*
X66861623Y-28752522D01*
X66877600Y-28705988D01*
X66877600Y-28705984D01*
X66878806Y-28698759D01*
X66879717Y-28691454D01*
X66877685Y-28642324D01*
X66877600Y-28638233D01*
X66877600Y-23621818D01*
X66879707Y-23601502D01*
X66879717Y-23601453D01*
X66882143Y-23589885D01*
X66878360Y-23559536D01*
X66877600Y-23547292D01*
X66877600Y-23546159D01*
X66874349Y-23526678D01*
X66873759Y-23522630D01*
X66872101Y-23509330D01*
X66867673Y-23473807D01*
X66867672Y-23473805D01*
X66867672Y-23473803D01*
X66865579Y-23466775D01*
X66863191Y-23459816D01*
X66839787Y-23416571D01*
X66837913Y-23412930D01*
X66816299Y-23368717D01*
X66812048Y-23362762D01*
X66807519Y-23356943D01*
X66807292Y-23356734D01*
X66771321Y-23323620D01*
X66768394Y-23320812D01*
X65482701Y-22035119D01*
X65469825Y-22019262D01*
X65463336Y-22009329D01*
X65461057Y-22006854D01*
X65459499Y-22003456D01*
X65458850Y-22002463D01*
X65458998Y-22002365D01*
X65435555Y-21951237D01*
X65445685Y-21894853D01*
X65455644Y-21875309D01*
X65455644Y-21875307D01*
X65455646Y-21875304D01*
X65470500Y-21781519D01*
X65470499Y-21699076D01*
X65489406Y-21640887D01*
X65538905Y-21604923D01*
X65583589Y-21601085D01*
X65683843Y-21615500D01*
X65683847Y-21615500D01*
X65756158Y-21615500D01*
X65856410Y-21601085D01*
X65863880Y-21600011D01*
X65863881Y-21600011D01*
X65936917Y-21566655D01*
X65996104Y-21539626D01*
X66105960Y-21444436D01*
X66184547Y-21322152D01*
X66225500Y-21182680D01*
X66225500Y-21037320D01*
X66184547Y-20897848D01*
X66105960Y-20775564D01*
X65996104Y-20680374D01*
X65996102Y-20680373D01*
X65996101Y-20680372D01*
X65863880Y-20619988D01*
X65756158Y-20604500D01*
X65756153Y-20604500D01*
X65683847Y-20604500D01*
X65683842Y-20604500D01*
X65576120Y-20619988D01*
X65576118Y-20619988D01*
X65443898Y-20680372D01*
X65334038Y-20775565D01*
X65255455Y-20897843D01*
X65255450Y-20897853D01*
X65230579Y-20982555D01*
X65196043Y-21033061D01*
X65138416Y-21053622D01*
X65120103Y-21052443D01*
X65101522Y-21049500D01*
X64188478Y-21049500D01*
X64188476Y-21049501D01*
X64094699Y-21064352D01*
X64094698Y-21064352D01*
X64046894Y-21088710D01*
X64001950Y-21099500D01*
X61317222Y-21099500D01*
X61259031Y-21080593D01*
X61247218Y-21070504D01*
X57579496Y-17402782D01*
X57551719Y-17348265D01*
X57550500Y-17332778D01*
X57550500Y-9962235D01*
X57569407Y-9904044D01*
X57590169Y-9882983D01*
X57657546Y-9832546D01*
X57743796Y-9717331D01*
X57746200Y-9710887D01*
X57794089Y-9582488D01*
X57794090Y-9582485D01*
X57794091Y-9582483D01*
X57800500Y-9522873D01*
X57800499Y-8477128D01*
X57794091Y-8417517D01*
X57787744Y-8400500D01*
X57743797Y-8282670D01*
X57657549Y-8167458D01*
X57657548Y-8167457D01*
X57657546Y-8167454D01*
X57657541Y-8167450D01*
X57542329Y-8081202D01*
X57407488Y-8030910D01*
X57407483Y-8030909D01*
X57407481Y-8030908D01*
X57407477Y-8030908D01*
X57376249Y-8027550D01*
X57347873Y-8024500D01*
X57347870Y-8024500D01*
X56752133Y-8024500D01*
X56752129Y-8024500D01*
X56752128Y-8024501D01*
X56744949Y-8025272D01*
X56692519Y-8030908D01*
X56692514Y-8030909D01*
X56557670Y-8081202D01*
X56442458Y-8167450D01*
X56442450Y-8167458D01*
X56356202Y-8282670D01*
X56305909Y-8417515D01*
X56304548Y-8423275D01*
X56272761Y-8475555D01*
X56216315Y-8499167D01*
X56208203Y-8499500D01*
X50926270Y-8499500D01*
X50868079Y-8480593D01*
X50838960Y-8447168D01*
X50838653Y-8446594D01*
X50835910Y-8441462D01*
X50816263Y-8417522D01*
X50710887Y-8289121D01*
X50710878Y-8289112D01*
X50558542Y-8164093D01*
X50558540Y-8164092D01*
X50558538Y-8164090D01*
X50431065Y-8095954D01*
X50384732Y-8071188D01*
X50384730Y-8071187D01*
X50196129Y-8013975D01*
X50196126Y-8013974D01*
X50000003Y-7994659D01*
X49999997Y-7994659D01*
X49803873Y-8013974D01*
X49803870Y-8013975D01*
X49615269Y-8071187D01*
X49615267Y-8071188D01*
X49441467Y-8164087D01*
X49441457Y-8164093D01*
X49289121Y-8289112D01*
X49289112Y-8289121D01*
X49164093Y-8441457D01*
X49164087Y-8441467D01*
X49161040Y-8447168D01*
X49116934Y-8489575D01*
X49073730Y-8499500D01*
X39924499Y-8499500D01*
X39866308Y-8480593D01*
X39830344Y-8431093D01*
X39825499Y-8400500D01*
X39825499Y-7527133D01*
X39825499Y-7527128D01*
X39819091Y-7467517D01*
X39819089Y-7467511D01*
X39768797Y-7332670D01*
X39682549Y-7217458D01*
X39682548Y-7217457D01*
X39682546Y-7217454D01*
X39682541Y-7217450D01*
X39567329Y-7131202D01*
X39432488Y-7080910D01*
X39432483Y-7080909D01*
X39432481Y-7080908D01*
X39432477Y-7080908D01*
X39401249Y-7077550D01*
X39372873Y-7074500D01*
X39372870Y-7074500D01*
X38552133Y-7074500D01*
X38552129Y-7074500D01*
X38552128Y-7074501D01*
X38544949Y-7075272D01*
X38492519Y-7080908D01*
X38492514Y-7080909D01*
X38357670Y-7131202D01*
X38242458Y-7217450D01*
X38242450Y-7217458D01*
X38156202Y-7332670D01*
X38105910Y-7467511D01*
X38105908Y-7467522D01*
X38099500Y-7527129D01*
X38099500Y-10472866D01*
X38099501Y-10472870D01*
X38105908Y-10532480D01*
X38105909Y-10532485D01*
X38156202Y-10667329D01*
X38242450Y-10782541D01*
X38242454Y-10782546D01*
X38242457Y-10782548D01*
X38242458Y-10782549D01*
X38357670Y-10868797D01*
X38492511Y-10919089D01*
X38492512Y-10919089D01*
X38492517Y-10919091D01*
X38552127Y-10925500D01*
X39372872Y-10925499D01*
X39432483Y-10919091D01*
X39521792Y-10885781D01*
X39567329Y-10868797D01*
X39567329Y-10868796D01*
X39567331Y-10868796D01*
X39682546Y-10782546D01*
X39768796Y-10667331D01*
X39819091Y-10532483D01*
X39825500Y-10472873D01*
X39825500Y-9599500D01*
X39844407Y-9541309D01*
X39893907Y-9505345D01*
X39924500Y-9500500D01*
X49073730Y-9500500D01*
X49131921Y-9519407D01*
X49161040Y-9552832D01*
X49164090Y-9558538D01*
X49164092Y-9558540D01*
X49164093Y-9558542D01*
X49289112Y-9710878D01*
X49289121Y-9710887D01*
X49441457Y-9835906D01*
X49441462Y-9835910D01*
X49529526Y-9882981D01*
X49596532Y-9918797D01*
X49615273Y-9928814D01*
X49803868Y-9986024D01*
X49803870Y-9986024D01*
X49803873Y-9986025D01*
X49999997Y-10005341D01*
X50000000Y-10005341D01*
X50000003Y-10005341D01*
X50196126Y-9986025D01*
X50196127Y-9986024D01*
X50196132Y-9986024D01*
X50384727Y-9928814D01*
X50558538Y-9835910D01*
X50710883Y-9710883D01*
X50835910Y-9558538D01*
X50838960Y-9552832D01*
X50883066Y-9510425D01*
X50926270Y-9500500D01*
X56208204Y-9500500D01*
X56266395Y-9519407D01*
X56302359Y-9568907D01*
X56304550Y-9576733D01*
X56305908Y-9582481D01*
X56356202Y-9717329D01*
X56442450Y-9832541D01*
X56442454Y-9832546D01*
X56509829Y-9882982D01*
X56545082Y-9932990D01*
X56549500Y-9962235D01*
X56549500Y-17516642D01*
X56547238Y-17537685D01*
X56545641Y-17545026D01*
X56549248Y-17595455D01*
X56549500Y-17602518D01*
X56549500Y-17616899D01*
X56551547Y-17631140D01*
X56552302Y-17638162D01*
X56555908Y-17688583D01*
X56558533Y-17695620D01*
X56563764Y-17716114D01*
X56564834Y-17723554D01*
X56564835Y-17723557D01*
X56585835Y-17769541D01*
X56588539Y-17776070D01*
X56606202Y-17823427D01*
X56606203Y-17823428D01*
X56606204Y-17823431D01*
X56609918Y-17828393D01*
X56610708Y-17829448D01*
X56621501Y-17847638D01*
X56624623Y-17854473D01*
X56657736Y-17892688D01*
X56662140Y-17898152D01*
X56670779Y-17909693D01*
X56670781Y-17909695D01*
X56680962Y-17919877D01*
X56685764Y-17925034D01*
X56718872Y-17963243D01*
X56718873Y-17963244D01*
X56725183Y-17967299D01*
X56741666Y-17980580D01*
X60291081Y-21529995D01*
X60318858Y-21584512D01*
X60309287Y-21644944D01*
X60291081Y-21670003D01*
X53782965Y-28178119D01*
X53766494Y-28191393D01*
X53760172Y-28195456D01*
X53760168Y-28195460D01*
X53727062Y-28233666D01*
X53722250Y-28238835D01*
X53712079Y-28249006D01*
X53703447Y-28260536D01*
X53699019Y-28266030D01*
X53665922Y-28304226D01*
X53662800Y-28311063D01*
X53652012Y-28329246D01*
X53647503Y-28335269D01*
X53647503Y-28335271D01*
X53629835Y-28382639D01*
X53627131Y-28389166D01*
X53606136Y-28435140D01*
X53606134Y-28435147D01*
X53605064Y-28442585D01*
X53599836Y-28463071D01*
X53597208Y-28470117D01*
X53593602Y-28520538D01*
X53592847Y-28527560D01*
X53590800Y-28541800D01*
X53590800Y-28556180D01*
X53590548Y-28563243D01*
X53586941Y-28613673D01*
X53588537Y-28621008D01*
X53590800Y-28642056D01*
X53590800Y-29779700D01*
X53571893Y-29837891D01*
X53522393Y-29873855D01*
X53491800Y-29878700D01*
X34885856Y-29878700D01*
X34864810Y-29876437D01*
X34857474Y-29874841D01*
X34857473Y-29874841D01*
X34835160Y-29876437D01*
X34807044Y-29878448D01*
X34799981Y-29878700D01*
X34785601Y-29878700D01*
X34771360Y-29880747D01*
X34764338Y-29881502D01*
X34713917Y-29885108D01*
X34706871Y-29887736D01*
X34686385Y-29892964D01*
X34678947Y-29894034D01*
X34678944Y-29894034D01*
X34678943Y-29894035D01*
X34678942Y-29894035D01*
X34678940Y-29894036D01*
X34632966Y-29915031D01*
X34626439Y-29917735D01*
X34579071Y-29935403D01*
X34579069Y-29935403D01*
X34573046Y-29939912D01*
X34554863Y-29950700D01*
X34548028Y-29953821D01*
X34509822Y-29986927D01*
X34504327Y-29991355D01*
X34492804Y-29999981D01*
X34482639Y-30010146D01*
X34477475Y-30014954D01*
X34439254Y-30048074D01*
X34435192Y-30054395D01*
X34421916Y-30070869D01*
X32657282Y-31835504D01*
X32602765Y-31863281D01*
X32587278Y-31864500D01*
X31518050Y-31864500D01*
X31473105Y-31853710D01*
X31425304Y-31829354D01*
X31425298Y-31829353D01*
X31415370Y-31827780D01*
X31360855Y-31800002D01*
X31333079Y-31745485D01*
X31342651Y-31685053D01*
X31385916Y-31641790D01*
X31415376Y-31632218D01*
X31425304Y-31630646D01*
X31538342Y-31573050D01*
X31628050Y-31483342D01*
X31685646Y-31370304D01*
X31700500Y-31276519D01*
X31700499Y-30913482D01*
X31692748Y-30864542D01*
X31685647Y-30819700D01*
X31685646Y-30819698D01*
X31685646Y-30819696D01*
X31628050Y-30706658D01*
X31538342Y-30616950D01*
X31425304Y-30559354D01*
X31425305Y-30559354D01*
X31331522Y-30544500D01*
X31331519Y-30544500D01*
X30673321Y-30544500D01*
X30615130Y-30525593D01*
X30603317Y-30515504D01*
X29781109Y-29693296D01*
X28943280Y-28855466D01*
X28929999Y-28838983D01*
X28925944Y-28832673D01*
X28911749Y-28820373D01*
X28887734Y-28799564D01*
X28882577Y-28794762D01*
X28872395Y-28784581D01*
X28872393Y-28784579D01*
X28860852Y-28775940D01*
X28855388Y-28771536D01*
X28817173Y-28738423D01*
X28810338Y-28735301D01*
X28792148Y-28724508D01*
X28787703Y-28721181D01*
X28786131Y-28720004D01*
X28786128Y-28720003D01*
X28786127Y-28720002D01*
X28738770Y-28702339D01*
X28732241Y-28699635D01*
X28686257Y-28678635D01*
X28686254Y-28678634D01*
X28678814Y-28677564D01*
X28658320Y-28672333D01*
X28651282Y-28669708D01*
X28651283Y-28669708D01*
X28600862Y-28666102D01*
X28593840Y-28665347D01*
X28579599Y-28663300D01*
X28565219Y-28663300D01*
X28558156Y-28663048D01*
X28554255Y-28662769D01*
X28507727Y-28659441D01*
X28507726Y-28659441D01*
X28507725Y-28659441D01*
X28500390Y-28661037D01*
X28479344Y-28663300D01*
X24009822Y-28663300D01*
X23951631Y-28644393D01*
X23939818Y-28634304D01*
X22600992Y-27295478D01*
X26524500Y-27295478D01*
X26524501Y-27295484D01*
X26530587Y-27352111D01*
X26530587Y-27352112D01*
X26530588Y-27352114D01*
X26578372Y-27480226D01*
X26660313Y-27589687D01*
X26769774Y-27671628D01*
X26897886Y-27719412D01*
X26954515Y-27725500D01*
X27495484Y-27725499D01*
X27552114Y-27719412D01*
X27680226Y-27671628D01*
X27789687Y-27589687D01*
X27871628Y-27480226D01*
X27919412Y-27352114D01*
X27925500Y-27295485D01*
X27925499Y-26836188D01*
X27944406Y-26777998D01*
X27954496Y-26766185D01*
X28104786Y-26615896D01*
X28159302Y-26588119D01*
X28174789Y-26586900D01*
X40113710Y-26586900D01*
X40171901Y-26605807D01*
X40183714Y-26615896D01*
X40738058Y-27170240D01*
X40765835Y-27224757D01*
X40766207Y-27253163D01*
X40765650Y-27257394D01*
X40765650Y-27257400D01*
X40784569Y-27401108D01*
X40784570Y-27401109D01*
X40817341Y-27480228D01*
X40840039Y-27535025D01*
X40928279Y-27650021D01*
X41043275Y-27738261D01*
X41177191Y-27793730D01*
X41320900Y-27812650D01*
X41464609Y-27793730D01*
X41598525Y-27738261D01*
X41669477Y-27683816D01*
X41727150Y-27663393D01*
X41764340Y-27669601D01*
X41769773Y-27671627D01*
X41769774Y-27671628D01*
X41897886Y-27719412D01*
X41954515Y-27725500D01*
X42495484Y-27725499D01*
X42552114Y-27719412D01*
X42680226Y-27671628D01*
X42789687Y-27589687D01*
X42871628Y-27480226D01*
X42919412Y-27352114D01*
X42925500Y-27295485D01*
X42925499Y-26704516D01*
X42919412Y-26647886D01*
X42871628Y-26519774D01*
X42789687Y-26410313D01*
X42753476Y-26383206D01*
X42680228Y-26328373D01*
X42680226Y-26328372D01*
X42552114Y-26280588D01*
X42552113Y-26280587D01*
X42513895Y-26276479D01*
X42495485Y-26274500D01*
X42495481Y-26274500D01*
X41954521Y-26274500D01*
X41954515Y-26274501D01*
X41897888Y-26280587D01*
X41897886Y-26280588D01*
X41769774Y-26328372D01*
X41769773Y-26328372D01*
X41769772Y-26328373D01*
X41660315Y-26410311D01*
X41660311Y-26410315D01*
X41578373Y-26519771D01*
X41529023Y-26652082D01*
X41490971Y-26699996D01*
X41432024Y-26716393D01*
X41423343Y-26715637D01*
X41320901Y-26702150D01*
X41320895Y-26702150D01*
X41316663Y-26702707D01*
X41256503Y-26691555D01*
X41233740Y-26674558D01*
X40580701Y-26021519D01*
X40567825Y-26005662D01*
X40561337Y-25995731D01*
X40558695Y-25993675D01*
X40537204Y-25976948D01*
X40528019Y-25968837D01*
X40527207Y-25968025D01*
X40511125Y-25956543D01*
X40507861Y-25954110D01*
X40469026Y-25923883D01*
X40469024Y-25923882D01*
X40462577Y-25920393D01*
X40455970Y-25917163D01*
X40455966Y-25917160D01*
X40408809Y-25903120D01*
X40404915Y-25901872D01*
X40358387Y-25885899D01*
X40351160Y-25884693D01*
X40343855Y-25883783D01*
X40343854Y-25883783D01*
X40343852Y-25883783D01*
X40294724Y-25885815D01*
X40290633Y-25885900D01*
X28035213Y-25885900D01*
X28014898Y-25883793D01*
X28003285Y-25881358D01*
X27972943Y-25885140D01*
X27960699Y-25885900D01*
X27959559Y-25885900D01*
X27940081Y-25889150D01*
X27936036Y-25889739D01*
X27887208Y-25895826D01*
X27880175Y-25897919D01*
X27873216Y-25900308D01*
X27829961Y-25923717D01*
X27826324Y-25925589D01*
X27782120Y-25947199D01*
X27776142Y-25951466D01*
X27770344Y-25955980D01*
X27737031Y-25992165D01*
X27734201Y-25995115D01*
X27483812Y-26245504D01*
X27429295Y-26273281D01*
X27413808Y-26274500D01*
X26954521Y-26274500D01*
X26954515Y-26274501D01*
X26897888Y-26280587D01*
X26897886Y-26280588D01*
X26769774Y-26328372D01*
X26769773Y-26328372D01*
X26769772Y-26328373D01*
X26660315Y-26410311D01*
X26660311Y-26410315D01*
X26578373Y-26519771D01*
X26530587Y-26647887D01*
X26526115Y-26689485D01*
X26524695Y-26702707D01*
X26524500Y-26704518D01*
X26524500Y-27295478D01*
X22600992Y-27295478D01*
X15966996Y-20661482D01*
X15939219Y-20606965D01*
X15938000Y-20591478D01*
X15938000Y-11987000D01*
X15956907Y-11928809D01*
X16006407Y-11892845D01*
X16037000Y-11888000D01*
X19548044Y-11888000D01*
X19569090Y-11890263D01*
X19570330Y-11890532D01*
X19576427Y-11891859D01*
X19626856Y-11888252D01*
X19633919Y-11888000D01*
X19648299Y-11888000D01*
X19662543Y-11885951D01*
X19669543Y-11885198D01*
X19719983Y-11881591D01*
X19727015Y-11878967D01*
X19747522Y-11873733D01*
X19754957Y-11872665D01*
X19800950Y-11851659D01*
X19807452Y-11848966D01*
X19854831Y-11831296D01*
X19860842Y-11826796D01*
X19879049Y-11815992D01*
X19885873Y-11812877D01*
X19924089Y-11779761D01*
X19929553Y-11775358D01*
X19941093Y-11766721D01*
X19951277Y-11756535D01*
X19956421Y-11751745D01*
X19994643Y-11718628D01*
X19998702Y-11712311D01*
X20011977Y-11695835D01*
X21698935Y-10008877D01*
X21753450Y-9981102D01*
X21797674Y-9984146D01*
X21803867Y-9986024D01*
X21999997Y-10005341D01*
X22000000Y-10005341D01*
X22000003Y-10005341D01*
X22196126Y-9986025D01*
X22196127Y-9986024D01*
X22196132Y-9986024D01*
X22384727Y-9928814D01*
X22558538Y-9835910D01*
X22710883Y-9710883D01*
X22835910Y-9558538D01*
X22838960Y-9552832D01*
X22883066Y-9510425D01*
X22926270Y-9500500D01*
X32075501Y-9500500D01*
X32133692Y-9519407D01*
X32169656Y-9568907D01*
X32174501Y-9599500D01*
X32174501Y-10472870D01*
X32180908Y-10532480D01*
X32180909Y-10532485D01*
X32231202Y-10667329D01*
X32317450Y-10782541D01*
X32317454Y-10782546D01*
X32317457Y-10782548D01*
X32317458Y-10782549D01*
X32432670Y-10868797D01*
X32567511Y-10919089D01*
X32567512Y-10919089D01*
X32567517Y-10919091D01*
X32627127Y-10925500D01*
X33447872Y-10925499D01*
X33507483Y-10919091D01*
X33596792Y-10885781D01*
X33642329Y-10868797D01*
X33642329Y-10868796D01*
X33642331Y-10868796D01*
X33757546Y-10782546D01*
X33843796Y-10667331D01*
X33894091Y-10532483D01*
X33900500Y-10472873D01*
X33900499Y-7527128D01*
X33894091Y-7467517D01*
X33894089Y-7467511D01*
X33843797Y-7332670D01*
X33757549Y-7217458D01*
X33757548Y-7217457D01*
X33757546Y-7217454D01*
X33757541Y-7217450D01*
X33642329Y-7131202D01*
X33507488Y-7080910D01*
X33507483Y-7080909D01*
X33507481Y-7080908D01*
X33507477Y-7080908D01*
X33476249Y-7077550D01*
X33447873Y-7074500D01*
X33447870Y-7074500D01*
X32627133Y-7074500D01*
X32627129Y-7074500D01*
X32627128Y-7074501D01*
X32619949Y-7075272D01*
X32567519Y-7080908D01*
X32567514Y-7080909D01*
X32432670Y-7131202D01*
X32317458Y-7217450D01*
X32317450Y-7217458D01*
X32231202Y-7332670D01*
X32180910Y-7467511D01*
X32180908Y-7467522D01*
X32174500Y-7527129D01*
X32174500Y-8400500D01*
X32155593Y-8458691D01*
X32106093Y-8494655D01*
X32075500Y-8499500D01*
X22926270Y-8499500D01*
X22868079Y-8480593D01*
X22838960Y-8447168D01*
X22838653Y-8446594D01*
X22835910Y-8441462D01*
X22816263Y-8417522D01*
X22710887Y-8289121D01*
X22710878Y-8289112D01*
X22558542Y-8164093D01*
X22558540Y-8164092D01*
X22558538Y-8164090D01*
X22431065Y-8095954D01*
X22384732Y-8071188D01*
X22384730Y-8071187D01*
X22196129Y-8013975D01*
X22196126Y-8013974D01*
X22000003Y-7994659D01*
X21999997Y-7994659D01*
X21803873Y-8013974D01*
X21803870Y-8013975D01*
X21615269Y-8071187D01*
X21615267Y-8071188D01*
X21441467Y-8164087D01*
X21441457Y-8164093D01*
X21289121Y-8289112D01*
X21289112Y-8289121D01*
X21164093Y-8441457D01*
X21164087Y-8441467D01*
X21071188Y-8615267D01*
X21071187Y-8615269D01*
X21013975Y-8803870D01*
X21013974Y-8803873D01*
X20994659Y-8999996D01*
X20994659Y-9000003D01*
X21013974Y-9196126D01*
X21013976Y-9196136D01*
X21015854Y-9202326D01*
X21014650Y-9263499D01*
X20991120Y-9301064D01*
X19434182Y-10858004D01*
X19379665Y-10885781D01*
X19364178Y-10887000D01*
X15685822Y-10887000D01*
X15627631Y-10868093D01*
X15615818Y-10858004D01*
X13829495Y-9071681D01*
X13801718Y-9017164D01*
X13800499Y-9001677D01*
X13800499Y-8477133D01*
X13800499Y-8477128D01*
X13794091Y-8417517D01*
X13787744Y-8400500D01*
X13743797Y-8282670D01*
X13657549Y-8167458D01*
X13657548Y-8167457D01*
X13657546Y-8167454D01*
X13590170Y-8117016D01*
X13554918Y-8067007D01*
X13550500Y-8037763D01*
X13550500Y-5255359D01*
X13569407Y-5197168D01*
X13590706Y-5175708D01*
X13697150Y-5097150D01*
X13777793Y-4987882D01*
X13822646Y-4859699D01*
X13825499Y-4829274D01*
X14174500Y-4829274D01*
X14177353Y-4859694D01*
X14177355Y-4859703D01*
X14222207Y-4987883D01*
X14302845Y-5097144D01*
X14302847Y-5097146D01*
X14302850Y-5097150D01*
X14302853Y-5097152D01*
X14302855Y-5097154D01*
X14412116Y-5177792D01*
X14412117Y-5177792D01*
X14412118Y-5177793D01*
X14540301Y-5222646D01*
X14570725Y-5225499D01*
X14570727Y-5225500D01*
X14570734Y-5225500D01*
X15079273Y-5225500D01*
X15079273Y-5225499D01*
X15109699Y-5222646D01*
X15237882Y-5177793D01*
X15347150Y-5097150D01*
X15427793Y-4987882D01*
X15472646Y-4859699D01*
X15475499Y-4829273D01*
X15475500Y-4829273D01*
X15475500Y-4386189D01*
X15494407Y-4327998D01*
X15504496Y-4316185D01*
X15706785Y-4113896D01*
X15761302Y-4086119D01*
X15776789Y-4084900D01*
X18835711Y-4084900D01*
X18893902Y-4103807D01*
X18905714Y-4113896D01*
X19070503Y-4278684D01*
X19098281Y-4333201D01*
X19099500Y-4348688D01*
X19099500Y-4801126D01*
X19099499Y-4801126D01*
X19105508Y-4857016D01*
X19105510Y-4857027D01*
X19152662Y-4983448D01*
X19155982Y-4987883D01*
X19233528Y-5091472D01*
X19262603Y-5113237D01*
X19341551Y-5172337D01*
X19467972Y-5219489D01*
X19467973Y-5219489D01*
X19467978Y-5219491D01*
X19523870Y-5225500D01*
X19523874Y-5225500D01*
X20051126Y-5225500D01*
X20051130Y-5225500D01*
X20107022Y-5219491D01*
X20183750Y-5190873D01*
X20233448Y-5172337D01*
X20233448Y-5172336D01*
X20233450Y-5172336D01*
X20341472Y-5091472D01*
X20422336Y-4983450D01*
X20469491Y-4857022D01*
X20475500Y-4801130D01*
X20475500Y-4198870D01*
X20469491Y-4142978D01*
X20465931Y-4133433D01*
X66219500Y-4133433D01*
X66257597Y-4386189D01*
X66259273Y-4397310D01*
X66337931Y-4652314D01*
X66453718Y-4892746D01*
X66518580Y-4987882D01*
X66604047Y-5113240D01*
X66785553Y-5308857D01*
X66785559Y-5308863D01*
X66994187Y-5475237D01*
X66994196Y-5475244D01*
X66994200Y-5475246D01*
X66994201Y-5475247D01*
X67225291Y-5608667D01*
X67225295Y-5608669D01*
X67225304Y-5608674D01*
X67473717Y-5706169D01*
X67733886Y-5765551D01*
X67800381Y-5770534D01*
X67933363Y-5780500D01*
X67933371Y-5780500D01*
X68066637Y-5780500D01*
X68189389Y-5771300D01*
X68266114Y-5765551D01*
X68526283Y-5706169D01*
X68774696Y-5608674D01*
X69005804Y-5475244D01*
X69096276Y-5403094D01*
X69214440Y-5308863D01*
X69214446Y-5308857D01*
X69395952Y-5113240D01*
X69395951Y-5113240D01*
X69395955Y-5113237D01*
X69546282Y-4892747D01*
X69662069Y-4652314D01*
X69740727Y-4397310D01*
X69780500Y-4133430D01*
X69780500Y-3866570D01*
X69740727Y-3602690D01*
X69662069Y-3347686D01*
X69546282Y-3107254D01*
X69395955Y-2886763D01*
X69395953Y-2886761D01*
X69395952Y-2886759D01*
X69214446Y-2691142D01*
X69214440Y-2691136D01*
X69005812Y-2524762D01*
X69005798Y-2524752D01*
X68774708Y-2391332D01*
X68774699Y-2391327D01*
X68774696Y-2391326D01*
X68774692Y-2391324D01*
X68774689Y-2391323D01*
X68526285Y-2293831D01*
X68266118Y-2234450D01*
X68266109Y-2234448D01*
X68066637Y-2219500D01*
X68066629Y-2219500D01*
X67933371Y-2219500D01*
X67933363Y-2219500D01*
X67733890Y-2234448D01*
X67733881Y-2234450D01*
X67473714Y-2293831D01*
X67225310Y-2391323D01*
X67225291Y-2391332D01*
X66994201Y-2524752D01*
X66994187Y-2524762D01*
X66785559Y-2691136D01*
X66785553Y-2691142D01*
X66604047Y-2886759D01*
X66453717Y-3107254D01*
X66337931Y-3347686D01*
X66259274Y-3602685D01*
X66259272Y-3602695D01*
X66219500Y-3866566D01*
X66219500Y-4133433D01*
X20465931Y-4133433D01*
X20448284Y-4086119D01*
X20422337Y-4016551D01*
X20341474Y-3908531D01*
X20341472Y-3908528D01*
X20333880Y-3902845D01*
X20233448Y-3827662D01*
X20107027Y-3780510D01*
X20107022Y-3780509D01*
X20107020Y-3780508D01*
X20107016Y-3780508D01*
X20077676Y-3777354D01*
X20051130Y-3774500D01*
X20051126Y-3774500D01*
X19598690Y-3774500D01*
X19540499Y-3755593D01*
X19528686Y-3745504D01*
X19302701Y-3519519D01*
X19289825Y-3503662D01*
X19283337Y-3493731D01*
X19259208Y-3474951D01*
X19250019Y-3466837D01*
X19249207Y-3466025D01*
X19233125Y-3454543D01*
X19229861Y-3452110D01*
X19191026Y-3421883D01*
X19191024Y-3421882D01*
X19184577Y-3418393D01*
X19177970Y-3415163D01*
X19177966Y-3415160D01*
X19130809Y-3401120D01*
X19126915Y-3399872D01*
X19080387Y-3383899D01*
X19073160Y-3382693D01*
X19065855Y-3381783D01*
X19065854Y-3381783D01*
X19065852Y-3381783D01*
X19016724Y-3383815D01*
X19012633Y-3383900D01*
X15637219Y-3383900D01*
X15616904Y-3381793D01*
X15605285Y-3379357D01*
X15585744Y-3381793D01*
X15574938Y-3383140D01*
X15562693Y-3383900D01*
X15561560Y-3383900D01*
X15542070Y-3387151D01*
X15538031Y-3387739D01*
X15489207Y-3393826D01*
X15482181Y-3395917D01*
X15475216Y-3398308D01*
X15431961Y-3421717D01*
X15428324Y-3423589D01*
X15384120Y-3445199D01*
X15378142Y-3449466D01*
X15372344Y-3453980D01*
X15339020Y-3490177D01*
X15336190Y-3493126D01*
X15083815Y-3745503D01*
X15029298Y-3773281D01*
X15013811Y-3774500D01*
X14570725Y-3774500D01*
X14540305Y-3777353D01*
X14540296Y-3777355D01*
X14412116Y-3822207D01*
X14302855Y-3902845D01*
X14302845Y-3902855D01*
X14222207Y-4012116D01*
X14177355Y-4140296D01*
X14177353Y-4140305D01*
X14174500Y-4170725D01*
X14174500Y-4829274D01*
X13825499Y-4829274D01*
X13825499Y-4829273D01*
X13825500Y-4829273D01*
X13825500Y-4170727D01*
X13825499Y-4170725D01*
X13822646Y-4140301D01*
X13777793Y-4012118D01*
X13701338Y-3908525D01*
X13697154Y-3902855D01*
X13697152Y-3902853D01*
X13697150Y-3902850D01*
X13697146Y-3902847D01*
X13697144Y-3902845D01*
X13587883Y-3822207D01*
X13459703Y-3777355D01*
X13459694Y-3777353D01*
X13429274Y-3774500D01*
X13429266Y-3774500D01*
X12920734Y-3774500D01*
X12920725Y-3774500D01*
X12890305Y-3777353D01*
X12890296Y-3777355D01*
X12762116Y-3822207D01*
X12652855Y-3902845D01*
X12652845Y-3902855D01*
X12572207Y-4012116D01*
X12527355Y-4140296D01*
X12527353Y-4140305D01*
X12524500Y-4170725D01*
X12524500Y-4829274D01*
X12527353Y-4859694D01*
X12527354Y-4859702D01*
X12543944Y-4907110D01*
X12549500Y-4939808D01*
X12549500Y-8037763D01*
X12530593Y-8095954D01*
X12509830Y-8117016D01*
X12442455Y-8167453D01*
X12442450Y-8167458D01*
X12356202Y-8282670D01*
X12305910Y-8417511D01*
X12305908Y-8417522D01*
X12299500Y-8477129D01*
X12299500Y-9522866D01*
X12299501Y-9522870D01*
X12305908Y-9582480D01*
X12305909Y-9582485D01*
X12356202Y-9717329D01*
X12442450Y-9832541D01*
X12442454Y-9832546D01*
X12442457Y-9832548D01*
X12442458Y-9832549D01*
X12557670Y-9918797D01*
X12692511Y-9969089D01*
X12692512Y-9969089D01*
X12692517Y-9969091D01*
X12752127Y-9975500D01*
X13276677Y-9975499D01*
X13334868Y-9994406D01*
X13346681Y-10004495D01*
X14908004Y-11565818D01*
X14935781Y-11620335D01*
X14937000Y-11635822D01*
X14937000Y-20591478D01*
X14918093Y-20649669D01*
X14908004Y-20661482D01*
X13855682Y-21713804D01*
X13801165Y-21741581D01*
X13785678Y-21742800D01*
X9000122Y-21742800D01*
X8941931Y-21723893D01*
X8930118Y-21713804D01*
X8507980Y-21291666D01*
X8494699Y-21275183D01*
X8490644Y-21268873D01*
X8490643Y-21268872D01*
X8452434Y-21235764D01*
X8447277Y-21230962D01*
X8437095Y-21220781D01*
X8437093Y-21220779D01*
X8425552Y-21212140D01*
X8420088Y-21207736D01*
X8381873Y-21174623D01*
X8375038Y-21171501D01*
X8356848Y-21160708D01*
X8355793Y-21159918D01*
X8350831Y-21156204D01*
X8350828Y-21156203D01*
X8350827Y-21156202D01*
X8303470Y-21138539D01*
X8296941Y-21135835D01*
X8250957Y-21114835D01*
X8250954Y-21114834D01*
X8243514Y-21113764D01*
X8223020Y-21108533D01*
X8215982Y-21105908D01*
X8215983Y-21105908D01*
X8165562Y-21102302D01*
X8158540Y-21101547D01*
X8144299Y-21099500D01*
X8129919Y-21099500D01*
X8122856Y-21099248D01*
X8118955Y-21098969D01*
X8072427Y-21095641D01*
X8072426Y-21095641D01*
X8072425Y-21095641D01*
X8065090Y-21097237D01*
X8044044Y-21099500D01*
X7998050Y-21099500D01*
X7953105Y-21088710D01*
X7905304Y-21064354D01*
X7811520Y-21049500D01*
X6898478Y-21049500D01*
X6898476Y-21049501D01*
X6879894Y-21052444D01*
X6819462Y-21042872D01*
X6776199Y-20999607D01*
X6769419Y-20982555D01*
X6744547Y-20897848D01*
X6665960Y-20775564D01*
X6556104Y-20680374D01*
X6556102Y-20680373D01*
X6556101Y-20680372D01*
X6423880Y-20619988D01*
X6316158Y-20604500D01*
X6316153Y-20604500D01*
X6243847Y-20604500D01*
X6243842Y-20604500D01*
X6136120Y-20619988D01*
X6136118Y-20619988D01*
X6003898Y-20680372D01*
X5894038Y-20775565D01*
X5815455Y-20897843D01*
X5815453Y-20897848D01*
X5774500Y-21037318D01*
X5774500Y-21182681D01*
X5794976Y-21252416D01*
X5806501Y-21291666D01*
X5815453Y-21322151D01*
X5815455Y-21322156D01*
X5894038Y-21444434D01*
X5894039Y-21444435D01*
X5894040Y-21444436D01*
X6003896Y-21539626D01*
X6003897Y-21539626D01*
X6003898Y-21539627D01*
X6136119Y-21600011D01*
X6243842Y-21615500D01*
X6243847Y-21615500D01*
X6316157Y-21615500D01*
X6416410Y-21601085D01*
X6476699Y-21611518D01*
X6519342Y-21655395D01*
X6529500Y-21699076D01*
X6529500Y-21781520D01*
X6529501Y-21781523D01*
X6544352Y-21875300D01*
X6544352Y-21875301D01*
X6570077Y-21925790D01*
X6579648Y-21986222D01*
X6571592Y-22012571D01*
X6535741Y-22089455D01*
X6529500Y-22136862D01*
X6529500Y-22307317D01*
X6510593Y-22365508D01*
X6461093Y-22401472D01*
X6442750Y-22405556D01*
X6411707Y-22409426D01*
X6404675Y-22411519D01*
X6397716Y-22413908D01*
X6354461Y-22437317D01*
X6350824Y-22439189D01*
X6306620Y-22460799D01*
X6300642Y-22465066D01*
X6294844Y-22469580D01*
X6261531Y-22505765D01*
X6258701Y-22508715D01*
X4852618Y-23914798D01*
X4836765Y-23927671D01*
X4826835Y-23934159D01*
X4826832Y-23934161D01*
X4808048Y-23958295D01*
X4799937Y-23967480D01*
X4799127Y-23968289D01*
X4799119Y-23968298D01*
X4787633Y-23984386D01*
X4785190Y-23987663D01*
X4754982Y-24026474D01*
X4751481Y-24032943D01*
X4748259Y-24039534D01*
X4734218Y-24086696D01*
X4732970Y-24090590D01*
X4717000Y-24137110D01*
X4715793Y-24144343D01*
X4714883Y-24151647D01*
X4716915Y-24200775D01*
X4717000Y-24204866D01*
X4717000Y-28721181D01*
X4714893Y-28741496D01*
X4712457Y-28753115D01*
X400000Y-28753115D01*
X400000Y-4133433D01*
X2219500Y-4133433D01*
X2257597Y-4386189D01*
X2259273Y-4397310D01*
X2337931Y-4652314D01*
X2453718Y-4892746D01*
X2518580Y-4987882D01*
X2604047Y-5113240D01*
X2785553Y-5308857D01*
X2785559Y-5308863D01*
X2994187Y-5475237D01*
X2994196Y-5475244D01*
X2994200Y-5475246D01*
X2994201Y-5475247D01*
X3225291Y-5608667D01*
X3225295Y-5608669D01*
X3225304Y-5608674D01*
X3473717Y-5706169D01*
X3733886Y-5765551D01*
X3800381Y-5770534D01*
X3933363Y-5780500D01*
X3933371Y-5780500D01*
X4066637Y-5780500D01*
X4189389Y-5771300D01*
X4266114Y-5765551D01*
X4526283Y-5706169D01*
X4774696Y-5608674D01*
X5005804Y-5475244D01*
X5096276Y-5403094D01*
X5214440Y-5308863D01*
X5214446Y-5308857D01*
X5395952Y-5113240D01*
X5395951Y-5113240D01*
X5395955Y-5113237D01*
X5546282Y-4892747D01*
X5662069Y-4652314D01*
X5740727Y-4397310D01*
X5780500Y-4133430D01*
X5780500Y-3866570D01*
X5740727Y-3602690D01*
X5662069Y-3347686D01*
X5546282Y-3107254D01*
X5395955Y-2886763D01*
X5395953Y-2886761D01*
X5395952Y-2886759D01*
X5214446Y-2691142D01*
X5214440Y-2691136D01*
X5005812Y-2524762D01*
X5005798Y-2524752D01*
X4774708Y-2391332D01*
X4774699Y-2391327D01*
X4774696Y-2391326D01*
X4774692Y-2391324D01*
X4774689Y-2391323D01*
X4526285Y-2293831D01*
X4266118Y-2234450D01*
X4266109Y-2234448D01*
X4066637Y-2219500D01*
X4066629Y-2219500D01*
X3933371Y-2219500D01*
X3933363Y-2219500D01*
X3733890Y-2234448D01*
X3733881Y-2234450D01*
X3473714Y-2293831D01*
X3225310Y-2391323D01*
X3225291Y-2391332D01*
X2994201Y-2524752D01*
X2994187Y-2524762D01*
X2785559Y-2691136D01*
X2785553Y-2691142D01*
X2604047Y-2886759D01*
X2453717Y-3107254D01*
X2337931Y-3347686D01*
X2259274Y-3602685D01*
X2259272Y-3602695D01*
X2219500Y-3866566D01*
X2219500Y-4133433D01*
X400000Y-4133433D01*
X400000Y-499000D01*
X418907Y-440809D01*
X468407Y-404845D01*
X499000Y-400000D01*
X71501000Y-400000D01*
X71559191Y-418907D01*
G37*
%TD.AperFunction*%
%TD*%
M02*
