%TF.GenerationSoftware,KiCad,Pcbnew,7.0.11+dfsg-1build4*%
%TF.CreationDate,2026-10-10T02:45:49+00:00*%
%TF.ProjectId,spark_meter,73706172-6b5f-46d6-9574-65722e6b6963,rev?*%
%TF.SameCoordinates,Original*%
%TF.FileFunction,Copper,L2,Bot*%
%TF.FilePolarity,Positive*%
%FSLAX46Y46*%
G04 Gerber Fmt 4.6, Leading zero omitted, Abs format (unit mm)*
G04 Created by KiCad (PCBNEW 7.0.11+dfsg-1build4) date 2026-10-10 02:45:49*
%MOMM*%
%LPD*%
G01*
G04 APERTURE LIST*
%TA.AperFunction,ComponentPad*%
%ADD10R,1.700000X1.700000*%
%TD*%
%TA.AperFunction,ComponentPad*%
%ADD11O,1.700000X1.700000*%
%TD*%
%TA.AperFunction,ComponentPad*%
%ADD12O,2.100000X1.000000*%
%TD*%
%TA.AperFunction,ComponentPad*%
%ADD13O,1.800000X1.000000*%
%TD*%
%TA.AperFunction,ViaPad*%
%ADD14C,0.600000*%
%TD*%
%TA.AperFunction,Conductor*%
%ADD15C,0.200000*%
%TD*%
G04 APERTURE END LIST*
D10*
%TO.P,J4,1*%
%TO.N,+3V3*%
X19000000Y-46500000D03*
D11*
%TO.P,J4,2*%
%TO.N,GND*%
X21540000Y-46500000D03*
%TO.P,J4,3*%
%TO.N,SDA*%
X24080000Y-46500000D03*
%TO.P,J4,4*%
%TO.N,SCL*%
X26620000Y-46500000D03*
%TO.P,J4,5*%
%TO.N,MARKER*%
X29160000Y-46500000D03*
%TO.P,J4,6*%
%TO.N,TEMP_DQ*%
X31700000Y-46500000D03*
%TD*%
D10*
%TO.P,J5,1*%
%TO.N,+3V3*%
X54000000Y-46500000D03*
D11*
%TO.P,J5,2*%
%TO.N,TEMP_DQ*%
X56540000Y-46500000D03*
%TO.P,J5,3*%
%TO.N,GND*%
X59080000Y-46500000D03*
%TD*%
D10*
%TO.P,J3,1*%
%TO.N,MARKER*%
X46000000Y-46500000D03*
D11*
%TO.P,J3,2*%
%TO.N,GND*%
X48540000Y-46500000D03*
%TD*%
D12*
%TO.P,J2,S1*%
%TO.N,GND*%
X65220000Y-28320000D03*
D13*
X69400000Y-28320000D03*
D12*
X65220000Y-19680000D03*
D13*
X69400000Y-19680000D03*
%TD*%
D12*
%TO.P,J1,S1*%
%TO.N,GND*%
X6780000Y-19680000D03*
D13*
X2600000Y-19680000D03*
D12*
X6780000Y-28320000D03*
D13*
X2600000Y-28320000D03*
%TD*%
D14*
%TO.N,USB_DP*%
X6327400Y-24637400D03*
X62154500Y-23959300D03*
%TO.N,USB_DN*%
X6318500Y-23750400D03*
X59573400Y-24088000D03*
%TO.N,SDA*%
X38816400Y-31174300D03*
X32875700Y-39807400D03*
%TO.N,+3V3*%
X47723300Y-33250000D03*
X41320900Y-27257400D03*
%TD*%
D15*
%TO.N,GND*%
X59080000Y-46500000D02*
X59080000Y-45398100D01*
X69400000Y-28320000D02*
X68248100Y-28320000D01*
X59080000Y-45398100D02*
X63918100Y-40560000D01*
X3751900Y-19680000D02*
X6780000Y-19680000D01*
X63918100Y-40560000D02*
X63918100Y-28320000D01*
X3176000Y-28320000D02*
X3751900Y-28320000D01*
X3751900Y-28320000D02*
X6780000Y-28320000D01*
X65220000Y-28320000D02*
X63918100Y-28320000D01*
X68248100Y-28320000D02*
X68248100Y-19680000D01*
X2600000Y-28320000D02*
X3176000Y-28320000D01*
X3176000Y-19680000D02*
X3751900Y-19680000D01*
X3751900Y-19680000D02*
X3751900Y-28320000D01*
X2600000Y-19680000D02*
X3176000Y-19680000D01*
X69400000Y-19680000D02*
X68824100Y-19680000D01*
X65220000Y-28320000D02*
X68248100Y-28320000D01*
X68824100Y-19680000D02*
X68248100Y-19680000D01*
X68248100Y-19680000D02*
X65220000Y-19680000D01*
%TO.N,USB_DP*%
X61473900Y-24639900D02*
X62154500Y-23959300D01*
X6329900Y-24639900D02*
X61473900Y-24639900D01*
X6327400Y-24637400D02*
X6329900Y-24639900D01*
%TO.N,USB_DN*%
X6318500Y-23750400D02*
X59235800Y-23750400D01*
X59235800Y-23750400D02*
X59573400Y-24088000D01*
%TO.N,SDA*%
X25181900Y-46362300D02*
X31736800Y-39807400D01*
X25181900Y-46500000D02*
X25181900Y-46362300D01*
X32875700Y-39807400D02*
X38816400Y-33866700D01*
X24080000Y-46500000D02*
X25181900Y-46500000D01*
X38816400Y-33866700D02*
X38816400Y-31174300D01*
X31736800Y-39807400D02*
X32875700Y-39807400D01*
%TO.N,+3V3*%
X47313500Y-33250000D02*
X41320900Y-27257400D01*
X47723300Y-39121400D02*
X47723300Y-33250000D01*
X54000000Y-45398100D02*
X47723300Y-39121400D01*
X54000000Y-46500000D02*
X54000000Y-45398100D01*
X47723300Y-33250000D02*
X47313500Y-33250000D01*
%TO.N,TEMP_DQ*%
X33903800Y-47601900D02*
X55034800Y-47601900D01*
X56540000Y-46500000D02*
X55438100Y-46500000D01*
X55034800Y-47601900D02*
X55438100Y-47198600D01*
X55438100Y-47198600D02*
X55438100Y-46500000D01*
X31700000Y-46500000D02*
X32801900Y-46500000D01*
X32801900Y-46500000D02*
X33903800Y-47601900D01*
%TD*%
%TA.AperFunction,Conductor*%
%TO.N,GND*%
G36*
X71559191Y-418907D02*
G01*
X71595155Y-468407D01*
X71600000Y-499000D01*
X71600000Y-51501000D01*
X71581093Y-51559191D01*
X71531593Y-51595155D01*
X71501000Y-51600000D01*
X499000Y-51600000D01*
X440809Y-51581093D01*
X404845Y-51531593D01*
X400000Y-51501000D01*
X400000Y-48133433D01*
X2219500Y-48133433D01*
X2259272Y-48397304D01*
X2259274Y-48397314D01*
X2337930Y-48652311D01*
X2453717Y-48892744D01*
X2604047Y-49113240D01*
X2785553Y-49308857D01*
X2785559Y-49308863D01*
X2994187Y-49475237D01*
X2994196Y-49475244D01*
X2994200Y-49475246D01*
X2994201Y-49475247D01*
X3225291Y-49608667D01*
X3225295Y-49608669D01*
X3225304Y-49608674D01*
X3473717Y-49706169D01*
X3733886Y-49765551D01*
X3800381Y-49770534D01*
X3933363Y-49780500D01*
X3933371Y-49780500D01*
X4066637Y-49780500D01*
X4189389Y-49771300D01*
X4266114Y-49765551D01*
X4526283Y-49706169D01*
X4774696Y-49608674D01*
X5005804Y-49475244D01*
X5096276Y-49403094D01*
X5214440Y-49308863D01*
X5214446Y-49308857D01*
X5395952Y-49113240D01*
X5395951Y-49113240D01*
X5395955Y-49113237D01*
X5546282Y-48892747D01*
X5662069Y-48652314D01*
X5740727Y-48397310D01*
X5780500Y-48133433D01*
X66219500Y-48133433D01*
X66259272Y-48397304D01*
X66259274Y-48397314D01*
X66337930Y-48652311D01*
X66453717Y-48892744D01*
X66604047Y-49113240D01*
X66785553Y-49308857D01*
X66785559Y-49308863D01*
X66994187Y-49475237D01*
X66994196Y-49475244D01*
X66994200Y-49475246D01*
X66994201Y-49475247D01*
X67225291Y-49608667D01*
X67225295Y-49608669D01*
X67225304Y-49608674D01*
X67473717Y-49706169D01*
X67733886Y-49765551D01*
X67800381Y-49770534D01*
X67933363Y-49780500D01*
X67933371Y-49780500D01*
X68066637Y-49780500D01*
X68189389Y-49771300D01*
X68266114Y-49765551D01*
X68526283Y-49706169D01*
X68774696Y-49608674D01*
X69005804Y-49475244D01*
X69096276Y-49403094D01*
X69214440Y-49308863D01*
X69214446Y-49308857D01*
X69395952Y-49113240D01*
X69395951Y-49113240D01*
X69395955Y-49113237D01*
X69546282Y-48892747D01*
X69662069Y-48652314D01*
X69740727Y-48397310D01*
X69780500Y-48133430D01*
X69780500Y-47866570D01*
X69740727Y-47602690D01*
X69662069Y-47347686D01*
X69546282Y-47107254D01*
X69395955Y-46886763D01*
X69395953Y-46886761D01*
X69395952Y-46886759D01*
X69214446Y-46691142D01*
X69214440Y-46691136D01*
X69005812Y-46524762D01*
X69005798Y-46524752D01*
X68774708Y-46391332D01*
X68774699Y-46391327D01*
X68774696Y-46391326D01*
X68774692Y-46391324D01*
X68774689Y-46391323D01*
X68526285Y-46293831D01*
X68307774Y-46243957D01*
X68266114Y-46234449D01*
X68266113Y-46234448D01*
X68266109Y-46234448D01*
X68066637Y-46219500D01*
X68066629Y-46219500D01*
X67933371Y-46219500D01*
X67933363Y-46219500D01*
X67733890Y-46234448D01*
X67733881Y-46234450D01*
X67473714Y-46293831D01*
X67225310Y-46391323D01*
X67225291Y-46391332D01*
X66994201Y-46524752D01*
X66994187Y-46524762D01*
X66785559Y-46691136D01*
X66785553Y-46691142D01*
X66604047Y-46886759D01*
X66453717Y-47107254D01*
X66337931Y-47347686D01*
X66259274Y-47602685D01*
X66259272Y-47602695D01*
X66219500Y-47866566D01*
X66219500Y-48133433D01*
X5780500Y-48133433D01*
X5780500Y-48133430D01*
X5780500Y-47866570D01*
X5740727Y-47602690D01*
X5670393Y-47374672D01*
X17899500Y-47374672D01*
X17899501Y-47374684D01*
X17914033Y-47447736D01*
X17914035Y-47447742D01*
X17969397Y-47530599D01*
X17969399Y-47530601D01*
X18052260Y-47585966D01*
X18107808Y-47597015D01*
X18125315Y-47600498D01*
X18125320Y-47600498D01*
X18125326Y-47600500D01*
X18125327Y-47600500D01*
X19874673Y-47600500D01*
X19874674Y-47600500D01*
X19947740Y-47585966D01*
X20030601Y-47530601D01*
X20085966Y-47447740D01*
X20100500Y-47374674D01*
X20100500Y-46500000D01*
X22974785Y-46500000D01*
X22993603Y-46703083D01*
X23049418Y-46899250D01*
X23140327Y-47081821D01*
X23263236Y-47244579D01*
X23413959Y-47381981D01*
X23587363Y-47489348D01*
X23777544Y-47563024D01*
X23978024Y-47600500D01*
X24181976Y-47600500D01*
X24382456Y-47563024D01*
X24572637Y-47489348D01*
X24746041Y-47381981D01*
X24896764Y-47244579D01*
X25019673Y-47081821D01*
X25106233Y-46907983D01*
X25149094Y-46864322D01*
X25203027Y-46853451D01*
X25211244Y-46854132D01*
X25249936Y-46844333D01*
X25257900Y-46842663D01*
X25297281Y-46836092D01*
X25299441Y-46834922D01*
X25322260Y-46826018D01*
X25324641Y-46825416D01*
X25358040Y-46803595D01*
X25365071Y-46799405D01*
X25400158Y-46780418D01*
X25400159Y-46780417D01*
X25406632Y-46775379D01*
X25407657Y-46776696D01*
X25452519Y-46751441D01*
X25513296Y-46758498D01*
X25558318Y-46799931D01*
X25567266Y-46821398D01*
X25589418Y-46899250D01*
X25680327Y-47081821D01*
X25803236Y-47244579D01*
X25953959Y-47381981D01*
X26127363Y-47489348D01*
X26317544Y-47563024D01*
X26518024Y-47600500D01*
X26721976Y-47600500D01*
X26922456Y-47563024D01*
X27112637Y-47489348D01*
X27286041Y-47381981D01*
X27436764Y-47244579D01*
X27559673Y-47081821D01*
X27650582Y-46899250D01*
X27706397Y-46703083D01*
X27725215Y-46500000D01*
X28054785Y-46500000D01*
X28073603Y-46703083D01*
X28129418Y-46899250D01*
X28220327Y-47081821D01*
X28343236Y-47244579D01*
X28493959Y-47381981D01*
X28667363Y-47489348D01*
X28857544Y-47563024D01*
X29058024Y-47600500D01*
X29261976Y-47600500D01*
X29462456Y-47563024D01*
X29652637Y-47489348D01*
X29826041Y-47381981D01*
X29976764Y-47244579D01*
X30099673Y-47081821D01*
X30190582Y-46899250D01*
X30246397Y-46703083D01*
X30265215Y-46500000D01*
X30594785Y-46500000D01*
X30613603Y-46703083D01*
X30669418Y-46899250D01*
X30760327Y-47081821D01*
X30883236Y-47244579D01*
X31033959Y-47381981D01*
X31207363Y-47489348D01*
X31397544Y-47563024D01*
X31598024Y-47600500D01*
X31801976Y-47600500D01*
X32002456Y-47563024D01*
X32192637Y-47489348D01*
X32366041Y-47381981D01*
X32516764Y-47244579D01*
X32639673Y-47081821D01*
X32660902Y-47039185D01*
X32703763Y-46995523D01*
X32764104Y-46985393D01*
X32818875Y-47012664D01*
X32819527Y-47013309D01*
X33622997Y-47816778D01*
X33635872Y-47832634D01*
X33642363Y-47842569D01*
X33666494Y-47861351D01*
X33675678Y-47869460D01*
X33676487Y-47870269D01*
X33676493Y-47870274D01*
X33692573Y-47881756D01*
X33695851Y-47884200D01*
X33734674Y-47914417D01*
X33734678Y-47914418D01*
X33741154Y-47917922D01*
X33747734Y-47921140D01*
X33794902Y-47935182D01*
X33798764Y-47936420D01*
X33806900Y-47939213D01*
X33845312Y-47952400D01*
X33845314Y-47952400D01*
X33852536Y-47953605D01*
X33859839Y-47954515D01*
X33859846Y-47954517D01*
X33908976Y-47952485D01*
X33913067Y-47952400D01*
X54988181Y-47952400D01*
X55008496Y-47954507D01*
X55010406Y-47954907D01*
X55020115Y-47956943D01*
X55050462Y-47953159D01*
X55062707Y-47952400D01*
X55063843Y-47952400D01*
X55083321Y-47949149D01*
X55087352Y-47948561D01*
X55136193Y-47942473D01*
X55136196Y-47942471D01*
X55143229Y-47940377D01*
X55150175Y-47937992D01*
X55150181Y-47937992D01*
X55193455Y-47914571D01*
X55197079Y-47912707D01*
X55241282Y-47891099D01*
X55241282Y-47891098D01*
X55241284Y-47891098D01*
X55241285Y-47891096D01*
X55247270Y-47886823D01*
X55253055Y-47882320D01*
X55253055Y-47882319D01*
X55253058Y-47882318D01*
X55286379Y-47846120D01*
X55289164Y-47843216D01*
X55652984Y-47479396D01*
X55668834Y-47466526D01*
X55678769Y-47460037D01*
X55697551Y-47435903D01*
X55705677Y-47426704D01*
X55706475Y-47425907D01*
X55717972Y-47409801D01*
X55720373Y-47406581D01*
X55729590Y-47394740D01*
X55780252Y-47360435D01*
X55841404Y-47362461D01*
X55869953Y-47379697D01*
X55870310Y-47379225D01*
X55873954Y-47381977D01*
X55873955Y-47381978D01*
X55873959Y-47381981D01*
X56047363Y-47489348D01*
X56237544Y-47563024D01*
X56438024Y-47600500D01*
X56641976Y-47600500D01*
X56842456Y-47563024D01*
X57032637Y-47489348D01*
X57206041Y-47381981D01*
X57356764Y-47244579D01*
X57479673Y-47081821D01*
X57570582Y-46899250D01*
X57626397Y-46703083D01*
X57645215Y-46500000D01*
X57626397Y-46296917D01*
X57570582Y-46100750D01*
X57479673Y-45918179D01*
X57356764Y-45755421D01*
X57206041Y-45618019D01*
X57032637Y-45510652D01*
X56842456Y-45436976D01*
X56842455Y-45436975D01*
X56842453Y-45436975D01*
X56641976Y-45399500D01*
X56438024Y-45399500D01*
X56237546Y-45436975D01*
X56167632Y-45464059D01*
X56047363Y-45510652D01*
X55980164Y-45552260D01*
X55873959Y-45618019D01*
X55723237Y-45755420D01*
X55600328Y-45918177D01*
X55600323Y-45918186D01*
X55513767Y-46092014D01*
X55470904Y-46135677D01*
X55416977Y-46146548D01*
X55408758Y-46145867D01*
X55408754Y-46145867D01*
X55370075Y-46155662D01*
X55362072Y-46157340D01*
X55322719Y-46163907D01*
X55322715Y-46163909D01*
X55320548Y-46165082D01*
X55297753Y-46173977D01*
X55295363Y-46174582D01*
X55295356Y-46174585D01*
X55261960Y-46196403D01*
X55254935Y-46200589D01*
X55246620Y-46205089D01*
X55186444Y-46216157D01*
X55131255Y-46189741D01*
X55102133Y-46135931D01*
X55100500Y-46118022D01*
X55100500Y-45625327D01*
X55100498Y-45625315D01*
X55097015Y-45607808D01*
X55085966Y-45552260D01*
X55030601Y-45469399D01*
X55030599Y-45469397D01*
X54947742Y-45414035D01*
X54947740Y-45414034D01*
X54947737Y-45414033D01*
X54947736Y-45414033D01*
X54874684Y-45399501D01*
X54874674Y-45399500D01*
X54874673Y-45399500D01*
X54440812Y-45399500D01*
X54382621Y-45380593D01*
X54346657Y-45331093D01*
X54342572Y-45312746D01*
X54340573Y-45296707D01*
X54340571Y-45296704D01*
X54338477Y-45289669D01*
X54336091Y-45282716D01*
X54312687Y-45239471D01*
X54310813Y-45235830D01*
X54289199Y-45191617D01*
X54284948Y-45185662D01*
X54280419Y-45179843D01*
X54280418Y-45179842D01*
X54244221Y-45146520D01*
X54241294Y-45143712D01*
X48102796Y-39005214D01*
X48075019Y-38950697D01*
X48073800Y-38935210D01*
X48073800Y-33723762D01*
X48092707Y-33665571D01*
X48112534Y-33645219D01*
X48115921Y-33642621D01*
X48204161Y-33527625D01*
X48259630Y-33393709D01*
X48278550Y-33250000D01*
X48259630Y-33106291D01*
X48204161Y-32972375D01*
X48115921Y-32857379D01*
X48000925Y-32769139D01*
X48000921Y-32769137D01*
X47867009Y-32713670D01*
X47867008Y-32713669D01*
X47723300Y-32694750D01*
X47579591Y-32713669D01*
X47579590Y-32713670D01*
X47445678Y-32769137D01*
X47440057Y-32772383D01*
X47438968Y-32770497D01*
X47390441Y-32787662D01*
X47331781Y-32770263D01*
X47317881Y-32758699D01*
X41903741Y-27344559D01*
X41875964Y-27290042D01*
X41875593Y-27261629D01*
X41876150Y-27257400D01*
X41857230Y-27113691D01*
X41801761Y-26979775D01*
X41788644Y-26962681D01*
X65214500Y-26962681D01*
X65255453Y-27102151D01*
X65255455Y-27102156D01*
X65334038Y-27224434D01*
X65334039Y-27224435D01*
X65334040Y-27224436D01*
X65443896Y-27319626D01*
X65443897Y-27319626D01*
X65443898Y-27319627D01*
X65576119Y-27380011D01*
X65683842Y-27395500D01*
X65683847Y-27395500D01*
X65756158Y-27395500D01*
X65845925Y-27382592D01*
X65863880Y-27380011D01*
X65863881Y-27380011D01*
X65941509Y-27344559D01*
X65996104Y-27319626D01*
X66105960Y-27224436D01*
X66184547Y-27102152D01*
X66225500Y-26962680D01*
X66225500Y-26817320D01*
X66184547Y-26677848D01*
X66105960Y-26555564D01*
X65996104Y-26460374D01*
X65996102Y-26460373D01*
X65996101Y-26460372D01*
X65863880Y-26399988D01*
X65756158Y-26384500D01*
X65756153Y-26384500D01*
X65683847Y-26384500D01*
X65683842Y-26384500D01*
X65576120Y-26399988D01*
X65576118Y-26399988D01*
X65443898Y-26460372D01*
X65334038Y-26555565D01*
X65255455Y-26677843D01*
X65255453Y-26677848D01*
X65214500Y-26817318D01*
X65214500Y-26962681D01*
X41788644Y-26962681D01*
X41713521Y-26864779D01*
X41598525Y-26776539D01*
X41598521Y-26776537D01*
X41464609Y-26721070D01*
X41464608Y-26721069D01*
X41320900Y-26702150D01*
X41177191Y-26721069D01*
X41177190Y-26721070D01*
X41043278Y-26776537D01*
X41043274Y-26776539D01*
X40928281Y-26864777D01*
X40928277Y-26864781D01*
X40840039Y-26979774D01*
X40840037Y-26979778D01*
X40784570Y-27113690D01*
X40784569Y-27113691D01*
X40765650Y-27257399D01*
X40765650Y-27257400D01*
X40784569Y-27401108D01*
X40784570Y-27401109D01*
X40840039Y-27535025D01*
X40928279Y-27650021D01*
X41043275Y-27738261D01*
X41177191Y-27793730D01*
X41320900Y-27812650D01*
X41325127Y-27812093D01*
X41385286Y-27823238D01*
X41408059Y-27840241D01*
X47032699Y-33464881D01*
X47045574Y-33480737D01*
X47052063Y-33490669D01*
X47076190Y-33509448D01*
X47085377Y-33517560D01*
X47086187Y-33518370D01*
X47086190Y-33518372D01*
X47086193Y-33518375D01*
X47099155Y-33527629D01*
X47102269Y-33529852D01*
X47105550Y-33532299D01*
X47144374Y-33562517D01*
X47144375Y-33562517D01*
X47144376Y-33562518D01*
X47150818Y-33566005D01*
X47157430Y-33569238D01*
X47177294Y-33575151D01*
X47204600Y-33583280D01*
X47208451Y-33584514D01*
X47255012Y-33600500D01*
X47255015Y-33600500D01*
X47263105Y-33601851D01*
X47263057Y-33602133D01*
X47264787Y-33602943D01*
X47276255Y-33604614D01*
X47277404Y-33604956D01*
X47276385Y-33608377D01*
X47317517Y-33627650D01*
X47328405Y-33639658D01*
X47330679Y-33642621D01*
X47334063Y-33645217D01*
X47368721Y-33695638D01*
X47372800Y-33723762D01*
X47372800Y-39074781D01*
X47370693Y-39095096D01*
X47368257Y-39106713D01*
X47372040Y-39137062D01*
X47372800Y-39149307D01*
X47372800Y-39150442D01*
X47376051Y-39169928D01*
X47376637Y-39173947D01*
X47382727Y-39222793D01*
X47384827Y-39229848D01*
X47387207Y-39236780D01*
X47410622Y-39280046D01*
X47412495Y-39283685D01*
X47434101Y-39327882D01*
X47438378Y-39333872D01*
X47442881Y-39339658D01*
X47479064Y-39372967D01*
X47482017Y-39375799D01*
X53336714Y-45230496D01*
X53364491Y-45285013D01*
X53354920Y-45345445D01*
X53311655Y-45388710D01*
X53266710Y-45399500D01*
X53125326Y-45399500D01*
X53125325Y-45399500D01*
X53125315Y-45399501D01*
X53052263Y-45414033D01*
X53052257Y-45414035D01*
X52969400Y-45469397D01*
X52969397Y-45469400D01*
X52914035Y-45552257D01*
X52914033Y-45552263D01*
X52899501Y-45625315D01*
X52899500Y-45625327D01*
X52899500Y-47152400D01*
X52880593Y-47210591D01*
X52831093Y-47246555D01*
X52800500Y-47251400D01*
X47199500Y-47251400D01*
X47141309Y-47232493D01*
X47105345Y-47182993D01*
X47100500Y-47152400D01*
X47100500Y-45625327D01*
X47100498Y-45625315D01*
X47097015Y-45607808D01*
X47085966Y-45552260D01*
X47030601Y-45469399D01*
X47030599Y-45469397D01*
X46947742Y-45414035D01*
X46947740Y-45414034D01*
X46947737Y-45414033D01*
X46947736Y-45414033D01*
X46874684Y-45399501D01*
X46874674Y-45399500D01*
X45125326Y-45399500D01*
X45125325Y-45399500D01*
X45125315Y-45399501D01*
X45052263Y-45414033D01*
X45052257Y-45414035D01*
X44969400Y-45469397D01*
X44969397Y-45469400D01*
X44914035Y-45552257D01*
X44914033Y-45552263D01*
X44899501Y-45625315D01*
X44899500Y-45625327D01*
X44899500Y-47152400D01*
X44880593Y-47210591D01*
X44831093Y-47246555D01*
X44800500Y-47251400D01*
X34089990Y-47251400D01*
X34031799Y-47232493D01*
X34019986Y-47222404D01*
X33082701Y-46285119D01*
X33069825Y-46269262D01*
X33063337Y-46259331D01*
X33039208Y-46240551D01*
X33030019Y-46232437D01*
X33029207Y-46231625D01*
X33013125Y-46220143D01*
X33009861Y-46217710D01*
X32971026Y-46187483D01*
X32971024Y-46187482D01*
X32964577Y-46183993D01*
X32957970Y-46180763D01*
X32957966Y-46180760D01*
X32910809Y-46166720D01*
X32906915Y-46165472D01*
X32860387Y-46149499D01*
X32853160Y-46148293D01*
X32845857Y-46147383D01*
X32845854Y-46147383D01*
X32819767Y-46148461D01*
X32760846Y-46131974D01*
X32727059Y-46093675D01*
X32639673Y-45918179D01*
X32516764Y-45755421D01*
X32366041Y-45618019D01*
X32192637Y-45510652D01*
X32002456Y-45436976D01*
X32002455Y-45436975D01*
X32002453Y-45436975D01*
X31801976Y-45399500D01*
X31598024Y-45399500D01*
X31397546Y-45436975D01*
X31327632Y-45464059D01*
X31207363Y-45510652D01*
X31140164Y-45552260D01*
X31033959Y-45618019D01*
X30883237Y-45755420D01*
X30760328Y-45918177D01*
X30760323Y-45918186D01*
X30672941Y-46093674D01*
X30669418Y-46100750D01*
X30613603Y-46296917D01*
X30594785Y-46500000D01*
X30265215Y-46500000D01*
X30246397Y-46296917D01*
X30190582Y-46100750D01*
X30099673Y-45918179D01*
X29976764Y-45755421D01*
X29826041Y-45618019D01*
X29652637Y-45510652D01*
X29462456Y-45436976D01*
X29462455Y-45436975D01*
X29462453Y-45436975D01*
X29261976Y-45399500D01*
X29058024Y-45399500D01*
X28857546Y-45436975D01*
X28787632Y-45464059D01*
X28667363Y-45510652D01*
X28600164Y-45552260D01*
X28493959Y-45618019D01*
X28343237Y-45755420D01*
X28220328Y-45918177D01*
X28220323Y-45918186D01*
X28132941Y-46093674D01*
X28129418Y-46100750D01*
X28073603Y-46296917D01*
X28054785Y-46500000D01*
X27725215Y-46500000D01*
X27706397Y-46296917D01*
X27650582Y-46100750D01*
X27559673Y-45918179D01*
X27436764Y-45755421D01*
X27286041Y-45618019D01*
X27112637Y-45510652D01*
X26965283Y-45453567D01*
X26922454Y-45436975D01*
X26837851Y-45421160D01*
X26784126Y-45391882D01*
X26757870Y-45336616D01*
X26769113Y-45276473D01*
X26786036Y-45253845D01*
X31852986Y-40186896D01*
X31907503Y-40159119D01*
X31922990Y-40157900D01*
X32401936Y-40157900D01*
X32460127Y-40176807D01*
X32480477Y-40196631D01*
X32483076Y-40200018D01*
X32483077Y-40200019D01*
X32483079Y-40200021D01*
X32598075Y-40288261D01*
X32731991Y-40343730D01*
X32875700Y-40362650D01*
X33019409Y-40343730D01*
X33153325Y-40288261D01*
X33268321Y-40200021D01*
X33356561Y-40085025D01*
X33412030Y-39951109D01*
X33430950Y-39807400D01*
X33430393Y-39803170D01*
X33441539Y-39743010D01*
X33458538Y-39720242D01*
X39031284Y-34147496D01*
X39047134Y-34134626D01*
X39057069Y-34128137D01*
X39075851Y-34104003D01*
X39083977Y-34094804D01*
X39084776Y-34094006D01*
X39096275Y-34077898D01*
X39098709Y-34074636D01*
X39128917Y-34035826D01*
X39128918Y-34035822D01*
X39132422Y-34029350D01*
X39135639Y-34022767D01*
X39135638Y-34022767D01*
X39135640Y-34022766D01*
X39149685Y-33975590D01*
X39150921Y-33971728D01*
X39166900Y-33925188D01*
X39166900Y-33925184D01*
X39168109Y-33917941D01*
X39169018Y-33910652D01*
X39166985Y-33861499D01*
X39166900Y-33857408D01*
X39166900Y-31648062D01*
X39185807Y-31589871D01*
X39205634Y-31569519D01*
X39209021Y-31566921D01*
X39297261Y-31451925D01*
X39352730Y-31318009D01*
X39371650Y-31174300D01*
X39352730Y-31030591D01*
X39297261Y-30896675D01*
X39209021Y-30781679D01*
X39094025Y-30693439D01*
X39094021Y-30693437D01*
X38960109Y-30637970D01*
X38960108Y-30637969D01*
X38816400Y-30619050D01*
X38672691Y-30637969D01*
X38672690Y-30637970D01*
X38538778Y-30693437D01*
X38538774Y-30693439D01*
X38423781Y-30781677D01*
X38423777Y-30781681D01*
X38335539Y-30896674D01*
X38335537Y-30896678D01*
X38280070Y-31030590D01*
X38280069Y-31030591D01*
X38261150Y-31174299D01*
X38261150Y-31174300D01*
X38280069Y-31318008D01*
X38280070Y-31318009D01*
X38335539Y-31451925D01*
X38335541Y-31451928D01*
X38335542Y-31451929D01*
X38423775Y-31566917D01*
X38423777Y-31566918D01*
X38423779Y-31566921D01*
X38427163Y-31569517D01*
X38461821Y-31619938D01*
X38465900Y-31648062D01*
X38465900Y-33680509D01*
X38446993Y-33738700D01*
X38436904Y-33750513D01*
X32962858Y-39224558D01*
X32908341Y-39252335D01*
X32879933Y-39252707D01*
X32875702Y-39252150D01*
X32875700Y-39252150D01*
X32731991Y-39271069D01*
X32731990Y-39271070D01*
X32598078Y-39326537D01*
X32598074Y-39326539D01*
X32483076Y-39414781D01*
X32480477Y-39418169D01*
X32430051Y-39452824D01*
X32401936Y-39456900D01*
X31783413Y-39456900D01*
X31763098Y-39454793D01*
X31751485Y-39452358D01*
X31721143Y-39456140D01*
X31708899Y-39456900D01*
X31707759Y-39456900D01*
X31688281Y-39460150D01*
X31684236Y-39460739D01*
X31635408Y-39466826D01*
X31628375Y-39468919D01*
X31621416Y-39471308D01*
X31578161Y-39494717D01*
X31574524Y-39496589D01*
X31530320Y-39518199D01*
X31524342Y-39522466D01*
X31518544Y-39526980D01*
X31485231Y-39563165D01*
X31482401Y-39566115D01*
X25147733Y-45900783D01*
X25093216Y-45928560D01*
X25032784Y-45918989D01*
X24998726Y-45890441D01*
X24896764Y-45755421D01*
X24746041Y-45618019D01*
X24572637Y-45510652D01*
X24382456Y-45436976D01*
X24382455Y-45436975D01*
X24382453Y-45436975D01*
X24181976Y-45399500D01*
X23978024Y-45399500D01*
X23777546Y-45436975D01*
X23707632Y-45464059D01*
X23587363Y-45510652D01*
X23520164Y-45552260D01*
X23413959Y-45618019D01*
X23263237Y-45755420D01*
X23140328Y-45918177D01*
X23140323Y-45918186D01*
X23052941Y-46093674D01*
X23049418Y-46100750D01*
X22993603Y-46296917D01*
X22974785Y-46500000D01*
X20100500Y-46500000D01*
X20100500Y-45625326D01*
X20085966Y-45552260D01*
X20030601Y-45469399D01*
X20030599Y-45469397D01*
X19947742Y-45414035D01*
X19947740Y-45414034D01*
X19947737Y-45414033D01*
X19947736Y-45414033D01*
X19874684Y-45399501D01*
X19874674Y-45399500D01*
X18125326Y-45399500D01*
X18125325Y-45399500D01*
X18125315Y-45399501D01*
X18052263Y-45414033D01*
X18052257Y-45414035D01*
X17969400Y-45469397D01*
X17969397Y-45469400D01*
X17914035Y-45552257D01*
X17914033Y-45552263D01*
X17899501Y-45625315D01*
X17899500Y-45625327D01*
X17899500Y-47374672D01*
X5670393Y-47374672D01*
X5662069Y-47347686D01*
X5546282Y-47107254D01*
X5395955Y-46886763D01*
X5395953Y-46886761D01*
X5395952Y-46886759D01*
X5214446Y-46691142D01*
X5214440Y-46691136D01*
X5005812Y-46524762D01*
X5005798Y-46524752D01*
X4774708Y-46391332D01*
X4774699Y-46391327D01*
X4774696Y-46391326D01*
X4774692Y-46391324D01*
X4774689Y-46391323D01*
X4526285Y-46293831D01*
X4307774Y-46243957D01*
X4266114Y-46234449D01*
X4266113Y-46234448D01*
X4266109Y-46234448D01*
X4066637Y-46219500D01*
X4066629Y-46219500D01*
X3933371Y-46219500D01*
X3933363Y-46219500D01*
X3733890Y-46234448D01*
X3733881Y-46234450D01*
X3473714Y-46293831D01*
X3225310Y-46391323D01*
X3225291Y-46391332D01*
X2994201Y-46524752D01*
X2994187Y-46524762D01*
X2785559Y-46691136D01*
X2785553Y-46691142D01*
X2604047Y-46886759D01*
X2453717Y-47107254D01*
X2337931Y-47347686D01*
X2259274Y-47602685D01*
X2259272Y-47602695D01*
X2219500Y-47866566D01*
X2219500Y-48133433D01*
X400000Y-48133433D01*
X400000Y-26962681D01*
X5774500Y-26962681D01*
X5815453Y-27102151D01*
X5815455Y-27102156D01*
X5894038Y-27224434D01*
X5894039Y-27224435D01*
X5894040Y-27224436D01*
X6003896Y-27319626D01*
X6003897Y-27319626D01*
X6003898Y-27319627D01*
X6136119Y-27380011D01*
X6243842Y-27395500D01*
X6243847Y-27395500D01*
X6316158Y-27395500D01*
X6405925Y-27382592D01*
X6423880Y-27380011D01*
X6423881Y-27380011D01*
X6501509Y-27344559D01*
X6556104Y-27319626D01*
X6665960Y-27224436D01*
X6744547Y-27102152D01*
X6785500Y-26962680D01*
X6785500Y-26817320D01*
X6744547Y-26677848D01*
X6665960Y-26555564D01*
X6556104Y-26460374D01*
X6556102Y-26460373D01*
X6556101Y-26460372D01*
X6423880Y-26399988D01*
X6316158Y-26384500D01*
X6316153Y-26384500D01*
X6243847Y-26384500D01*
X6243842Y-26384500D01*
X6136120Y-26399988D01*
X6136118Y-26399988D01*
X6003898Y-26460372D01*
X5894038Y-26555565D01*
X5815455Y-26677843D01*
X5815453Y-26677848D01*
X5774500Y-26817318D01*
X5774500Y-26962681D01*
X400000Y-26962681D01*
X400000Y-23750400D01*
X5763250Y-23750400D01*
X5782169Y-23894108D01*
X5782170Y-23894109D01*
X5830975Y-24011938D01*
X5837639Y-24028025D01*
X5923125Y-24139432D01*
X5943549Y-24197107D01*
X5926172Y-24255773D01*
X5923125Y-24259967D01*
X5846539Y-24359774D01*
X5846537Y-24359778D01*
X5791070Y-24493690D01*
X5791069Y-24493691D01*
X5772150Y-24637399D01*
X5772150Y-24637400D01*
X5791069Y-24781108D01*
X5791070Y-24781109D01*
X5832520Y-24881181D01*
X5846539Y-24915025D01*
X5934779Y-25030021D01*
X6049775Y-25118261D01*
X6183691Y-25173730D01*
X6327400Y-25192650D01*
X6471109Y-25173730D01*
X6605025Y-25118261D01*
X6720021Y-25030021D01*
X6720023Y-25030018D01*
X6720706Y-25029129D01*
X6721368Y-25028673D01*
X6724606Y-25025436D01*
X6725206Y-25026036D01*
X6771132Y-24994476D01*
X6799245Y-24990400D01*
X61427281Y-24990400D01*
X61447596Y-24992507D01*
X61449506Y-24992907D01*
X61459215Y-24994943D01*
X61489562Y-24991159D01*
X61501807Y-24990400D01*
X61502943Y-24990400D01*
X61522421Y-24987149D01*
X61526452Y-24986561D01*
X61575293Y-24980473D01*
X61575296Y-24980471D01*
X61582329Y-24978377D01*
X61589275Y-24975992D01*
X61589281Y-24975992D01*
X61632555Y-24952571D01*
X61636179Y-24950707D01*
X61680382Y-24929099D01*
X61680382Y-24929098D01*
X61680384Y-24929098D01*
X61680385Y-24929096D01*
X61686370Y-24924823D01*
X61692151Y-24920323D01*
X61692153Y-24920320D01*
X61692158Y-24920318D01*
X61725514Y-24884082D01*
X61728275Y-24881205D01*
X62067339Y-24542140D01*
X62121854Y-24514364D01*
X62150262Y-24513992D01*
X62154500Y-24514550D01*
X62298209Y-24495630D01*
X62432125Y-24440161D01*
X62547121Y-24351921D01*
X62635361Y-24236925D01*
X62690830Y-24103009D01*
X62709750Y-23959300D01*
X62690830Y-23815591D01*
X62635361Y-23681675D01*
X62547121Y-23566679D01*
X62432125Y-23478439D01*
X62432121Y-23478437D01*
X62298209Y-23422970D01*
X62298208Y-23422969D01*
X62154500Y-23404050D01*
X62010791Y-23422969D01*
X62010790Y-23422970D01*
X61876878Y-23478437D01*
X61876874Y-23478439D01*
X61761881Y-23566677D01*
X61761877Y-23566681D01*
X61673639Y-23681674D01*
X61673637Y-23681678D01*
X61618170Y-23815590D01*
X61618169Y-23815591D01*
X61599250Y-23959299D01*
X61599250Y-23959303D01*
X61599807Y-23963535D01*
X61588656Y-24023695D01*
X61571658Y-24046458D01*
X61357714Y-24260403D01*
X61303197Y-24288181D01*
X61287710Y-24289400D01*
X60215023Y-24289400D01*
X60156832Y-24270493D01*
X60120868Y-24220993D01*
X60116870Y-24177478D01*
X60128650Y-24088000D01*
X60128650Y-24087999D01*
X60109730Y-23944291D01*
X60054261Y-23810375D01*
X59966021Y-23695379D01*
X59851025Y-23607139D01*
X59851021Y-23607137D01*
X59717109Y-23551670D01*
X59717108Y-23551669D01*
X59573400Y-23532750D01*
X59566911Y-23532750D01*
X59566911Y-23531166D01*
X59514437Y-23521437D01*
X59500875Y-23512563D01*
X59497237Y-23509731D01*
X59473104Y-23490948D01*
X59463919Y-23482837D01*
X59463107Y-23482025D01*
X59447025Y-23470543D01*
X59443761Y-23468110D01*
X59404926Y-23437883D01*
X59404924Y-23437882D01*
X59398477Y-23434393D01*
X59391870Y-23431163D01*
X59391866Y-23431160D01*
X59344709Y-23417120D01*
X59340815Y-23415872D01*
X59294287Y-23399899D01*
X59287060Y-23398693D01*
X59279755Y-23397783D01*
X59279754Y-23397783D01*
X59279752Y-23397783D01*
X59230624Y-23399815D01*
X59226533Y-23399900D01*
X6792264Y-23399900D01*
X6734073Y-23380993D01*
X6713723Y-23361169D01*
X6711123Y-23357781D01*
X6711121Y-23357780D01*
X6711121Y-23357779D01*
X6596125Y-23269539D01*
X6596121Y-23269537D01*
X6462209Y-23214070D01*
X6462208Y-23214069D01*
X6318500Y-23195150D01*
X6174791Y-23214069D01*
X6174790Y-23214070D01*
X6040878Y-23269537D01*
X6040874Y-23269539D01*
X5925881Y-23357777D01*
X5925877Y-23357781D01*
X5837639Y-23472774D01*
X5837637Y-23472778D01*
X5782170Y-23606690D01*
X5782169Y-23606691D01*
X5763250Y-23750399D01*
X5763250Y-23750400D01*
X400000Y-23750400D01*
X400000Y-21182681D01*
X5774500Y-21182681D01*
X5815453Y-21322151D01*
X5815455Y-21322156D01*
X5894038Y-21444434D01*
X5894039Y-21444435D01*
X5894040Y-21444436D01*
X6003896Y-21539626D01*
X6003897Y-21539626D01*
X6003898Y-21539627D01*
X6136119Y-21600011D01*
X6243842Y-21615500D01*
X6243847Y-21615500D01*
X6316158Y-21615500D01*
X6405925Y-21602592D01*
X6423880Y-21600011D01*
X6423881Y-21600011D01*
X6496917Y-21566655D01*
X6556104Y-21539626D01*
X6665960Y-21444436D01*
X6744547Y-21322152D01*
X6785500Y-21182681D01*
X65214500Y-21182681D01*
X65255453Y-21322151D01*
X65255455Y-21322156D01*
X65334038Y-21444434D01*
X65334039Y-21444435D01*
X65334040Y-21444436D01*
X65443896Y-21539626D01*
X65443897Y-21539626D01*
X65443898Y-21539627D01*
X65576119Y-21600011D01*
X65683842Y-21615500D01*
X65683847Y-21615500D01*
X65756158Y-21615500D01*
X65845925Y-21602592D01*
X65863880Y-21600011D01*
X65863881Y-21600011D01*
X65936917Y-21566655D01*
X65996104Y-21539626D01*
X66105960Y-21444436D01*
X66184547Y-21322152D01*
X66225500Y-21182680D01*
X66225500Y-21037320D01*
X66184547Y-20897848D01*
X66105960Y-20775564D01*
X65996104Y-20680374D01*
X65996102Y-20680373D01*
X65996101Y-20680372D01*
X65863880Y-20619988D01*
X65756158Y-20604500D01*
X65756153Y-20604500D01*
X65683847Y-20604500D01*
X65683842Y-20604500D01*
X65576120Y-20619988D01*
X65576118Y-20619988D01*
X65443898Y-20680372D01*
X65334038Y-20775565D01*
X65255455Y-20897843D01*
X65255453Y-20897848D01*
X65214500Y-21037318D01*
X65214500Y-21182681D01*
X6785500Y-21182681D01*
X6785500Y-21182680D01*
X6785500Y-21037320D01*
X6744547Y-20897848D01*
X6665960Y-20775564D01*
X6556104Y-20680374D01*
X6556102Y-20680373D01*
X6556101Y-20680372D01*
X6423880Y-20619988D01*
X6316158Y-20604500D01*
X6316153Y-20604500D01*
X6243847Y-20604500D01*
X6243842Y-20604500D01*
X6136120Y-20619988D01*
X6136118Y-20619988D01*
X6003898Y-20680372D01*
X5894038Y-20775565D01*
X5815455Y-20897843D01*
X5815453Y-20897848D01*
X5774500Y-21037318D01*
X5774500Y-21182681D01*
X400000Y-21182681D01*
X400000Y-4133433D01*
X2219500Y-4133433D01*
X2259272Y-4397304D01*
X2259274Y-4397314D01*
X2337930Y-4652311D01*
X2453717Y-4892744D01*
X2604047Y-5113240D01*
X2785553Y-5308857D01*
X2785559Y-5308863D01*
X2994187Y-5475237D01*
X2994196Y-5475244D01*
X2994200Y-5475246D01*
X2994201Y-5475247D01*
X3225291Y-5608667D01*
X3225295Y-5608669D01*
X3225304Y-5608674D01*
X3473717Y-5706169D01*
X3733886Y-5765551D01*
X3800381Y-5770534D01*
X3933363Y-5780500D01*
X3933371Y-5780500D01*
X4066637Y-5780500D01*
X4189389Y-5771300D01*
X4266114Y-5765551D01*
X4526283Y-5706169D01*
X4774696Y-5608674D01*
X5005804Y-5475244D01*
X5096276Y-5403094D01*
X5214440Y-5308863D01*
X5214446Y-5308857D01*
X5395952Y-5113240D01*
X5395951Y-5113240D01*
X5395955Y-5113237D01*
X5546282Y-4892747D01*
X5662069Y-4652314D01*
X5740727Y-4397310D01*
X5780500Y-4133433D01*
X66219500Y-4133433D01*
X66259272Y-4397304D01*
X66259274Y-4397314D01*
X66337930Y-4652311D01*
X66453717Y-4892744D01*
X66604047Y-5113240D01*
X66785553Y-5308857D01*
X66785559Y-5308863D01*
X66994187Y-5475237D01*
X66994196Y-5475244D01*
X66994200Y-5475246D01*
X66994201Y-5475247D01*
X67225291Y-5608667D01*
X67225295Y-5608669D01*
X67225304Y-5608674D01*
X67473717Y-5706169D01*
X67733886Y-5765551D01*
X67800381Y-5770534D01*
X67933363Y-5780500D01*
X67933371Y-5780500D01*
X68066637Y-5780500D01*
X68189389Y-5771300D01*
X68266114Y-5765551D01*
X68526283Y-5706169D01*
X68774696Y-5608674D01*
X69005804Y-5475244D01*
X69096276Y-5403094D01*
X69214440Y-5308863D01*
X69214446Y-5308857D01*
X69395952Y-5113240D01*
X69395951Y-5113240D01*
X69395955Y-5113237D01*
X69546282Y-4892747D01*
X69662069Y-4652314D01*
X69740727Y-4397310D01*
X69780500Y-4133430D01*
X69780500Y-3866570D01*
X69740727Y-3602690D01*
X69662069Y-3347686D01*
X69546282Y-3107254D01*
X69395955Y-2886763D01*
X69395953Y-2886761D01*
X69395952Y-2886759D01*
X69214446Y-2691142D01*
X69214440Y-2691136D01*
X69005812Y-2524762D01*
X69005798Y-2524752D01*
X68774708Y-2391332D01*
X68774699Y-2391327D01*
X68774696Y-2391326D01*
X68774692Y-2391324D01*
X68774689Y-2391323D01*
X68526285Y-2293831D01*
X68266118Y-2234450D01*
X68266109Y-2234448D01*
X68066637Y-2219500D01*
X68066629Y-2219500D01*
X67933371Y-2219500D01*
X67933363Y-2219500D01*
X67733890Y-2234448D01*
X67733881Y-2234450D01*
X67473714Y-2293831D01*
X67225310Y-2391323D01*
X67225291Y-2391332D01*
X66994201Y-2524752D01*
X66994187Y-2524762D01*
X66785559Y-2691136D01*
X66785553Y-2691142D01*
X66604047Y-2886759D01*
X66453717Y-3107254D01*
X66337931Y-3347686D01*
X66259274Y-3602685D01*
X66259272Y-3602695D01*
X66219500Y-3866566D01*
X66219500Y-4133433D01*
X5780500Y-4133433D01*
X5780500Y-4133430D01*
X5780500Y-3866570D01*
X5740727Y-3602690D01*
X5662069Y-3347686D01*
X5546282Y-3107254D01*
X5395955Y-2886763D01*
X5395953Y-2886761D01*
X5395952Y-2886759D01*
X5214446Y-2691142D01*
X5214440Y-2691136D01*
X5005812Y-2524762D01*
X5005798Y-2524752D01*
X4774708Y-2391332D01*
X4774699Y-2391327D01*
X4774696Y-2391326D01*
X4774692Y-2391324D01*
X4774689Y-2391323D01*
X4526285Y-2293831D01*
X4266118Y-2234450D01*
X4266109Y-2234448D01*
X4066637Y-2219500D01*
X4066629Y-2219500D01*
X3933371Y-2219500D01*
X3933363Y-2219500D01*
X3733890Y-2234448D01*
X3733881Y-2234450D01*
X3473714Y-2293831D01*
X3225310Y-2391323D01*
X3225291Y-2391332D01*
X2994201Y-2524752D01*
X2994187Y-2524762D01*
X2785559Y-2691136D01*
X2785553Y-2691142D01*
X2604047Y-2886759D01*
X2453717Y-3107254D01*
X2337931Y-3347686D01*
X2259274Y-3602685D01*
X2259272Y-3602695D01*
X2219500Y-3866566D01*
X2219500Y-4133433D01*
X400000Y-4133433D01*
X400000Y-499000D01*
X418907Y-440809D01*
X468407Y-404845D01*
X499000Y-400000D01*
X71501000Y-400000D01*
X71559191Y-418907D01*
G37*
%TD.AperFunction*%
%TD*%
M02*
