%TF.GenerationSoftware,KiCad,Pcbnew,7.0.11+dfsg-1build4*%
%TF.CreationDate,2026-10-10T02:45:49+00:00*%
%TF.ProjectId,spark_meter,73706172-6b5f-46d6-9574-65722e6b6963,rev?*%
%TF.SameCoordinates,Original*%
%TF.FileFunction,Paste,Top*%
%TF.FilePolarity,Positive*%
%FSLAX46Y46*%
G04 Gerber Fmt 4.6, Leading zero omitted, Abs format (unit mm)*
G04 Created by KiCad (PCBNEW 7.0.11+dfsg-1build4) date 2026-10-10 02:45:49*
%MOMM*%
%LPD*%
G01*
G04 APERTURE LIST*
G04 Aperture macros list*
%AMRoundRect*
0 Rectangle with rounded corners*
0 $1 Rounding radius*
0 $2 $3 $4 $5 $6 $7 $8 $9 X,Y pos of 4 corners*
0 Add a 4 corners polygon primitive as box body*
4,1,4,$2,$3,$4,$5,$6,$7,$8,$9,$2,$3,0*
0 Add four circle primitives for the rounded corners*
1,1,$1+$1,$2,$3*
1,1,$1+$1,$4,$5*
1,1,$1+$1,$6,$7*
1,1,$1+$1,$8,$9*
0 Add four rect primitives between the rounded corners*
20,1,$1+$1,$2,$3,$4,$5,0*
20,1,$1+$1,$4,$5,$6,$7,0*
20,1,$1+$1,$6,$7,$8,$9,0*
20,1,$1+$1,$8,$9,$2,$3,0*%
G04 Aperture macros list end*
%ADD10RoundRect,0.200000X0.275000X-0.200000X0.275000X0.200000X-0.275000X0.200000X-0.275000X-0.200000X0*%
%ADD11RoundRect,0.225000X-0.225000X-0.250000X0.225000X-0.250000X0.225000X0.250000X-0.225000X0.250000X0*%
%ADD12RoundRect,0.250000X-0.362500X-1.425000X0.362500X-1.425000X0.362500X1.425000X-0.362500X1.425000X0*%
%ADD13RoundRect,0.250000X-0.250000X-0.475000X0.250000X-0.475000X0.250000X0.475000X-0.250000X0.475000X0*%
%ADD14RoundRect,0.200000X-0.200000X-0.275000X0.200000X-0.275000X0.200000X0.275000X-0.200000X0.275000X0*%
%ADD15RoundRect,0.150000X-0.825000X-0.150000X0.825000X-0.150000X0.825000X0.150000X-0.825000X0.150000X0*%
%ADD16RoundRect,0.150000X0.425000X-0.150000X0.425000X0.150000X-0.425000X0.150000X-0.425000X-0.150000X0*%
%ADD17RoundRect,0.075000X0.500000X-0.075000X0.500000X0.075000X-0.500000X0.075000X-0.500000X-0.075000X0*%
%ADD18O,2.100000X1.000000*%
%ADD19O,1.800000X1.000000*%
%ADD20RoundRect,0.150000X-0.425000X0.150000X-0.425000X-0.150000X0.425000X-0.150000X0.425000X0.150000X0*%
%ADD21RoundRect,0.075000X-0.500000X0.075000X-0.500000X-0.075000X0.500000X-0.075000X0.500000X0.075000X0*%
%ADD22RoundRect,0.218750X-0.218750X-0.256250X0.218750X-0.256250X0.218750X0.256250X-0.218750X0.256250X0*%
G04 APERTURE END LIST*
D10*
%TO.C,R4*%
X58000000Y-31825000D03*
X58000000Y-30175000D03*
%TD*%
%TO.C,R2*%
X17000000Y-31825000D03*
X17000000Y-30175000D03*
%TD*%
D11*
%TO.C,C1*%
X27225000Y-27000000D03*
X28775000Y-27000000D03*
%TD*%
%TO.C,C2*%
X42225000Y-27000000D03*
X43775000Y-27000000D03*
%TD*%
D10*
%TO.C,R6*%
X37000000Y-41325000D03*
X37000000Y-39675000D03*
%TD*%
%TO.C,R5*%
X34000000Y-41325000D03*
X34000000Y-39675000D03*
%TD*%
D12*
%TO.C,RS1*%
X33037500Y-9000000D03*
X38962500Y-9000000D03*
%TD*%
D13*
%TO.C,C3*%
X57050000Y-9000000D03*
X58950000Y-9000000D03*
%TD*%
%TO.C,C4*%
X13050000Y-9000000D03*
X14950000Y-9000000D03*
%TD*%
D14*
%TO.C,R8*%
X13175000Y-4500000D03*
X14825000Y-4500000D03*
%TD*%
D15*
%TO.C,U2*%
X40525000Y-31095000D03*
X40525000Y-32365000D03*
X40525000Y-33635000D03*
X40525000Y-34905000D03*
X45475000Y-34905000D03*
X45475000Y-33635000D03*
X45475000Y-32365000D03*
X45475000Y-31095000D03*
%TD*%
D16*
%TO.C,J2*%
X64645000Y-27200000D03*
X64645000Y-26400000D03*
D17*
X64645000Y-25250000D03*
X64645000Y-24250000D03*
X64645000Y-23750000D03*
X64645000Y-22750000D03*
D16*
X64645000Y-21600000D03*
X64645000Y-20800000D03*
X64645000Y-20800000D03*
X64645000Y-21600000D03*
D17*
X64645000Y-22250000D03*
X64645000Y-23250000D03*
X64645000Y-24750000D03*
X64645000Y-25750000D03*
D16*
X64645000Y-26400000D03*
X64645000Y-27200000D03*
D18*
X65220000Y-28320000D03*
D19*
X69400000Y-28320000D03*
D18*
X65220000Y-19680000D03*
D19*
X69400000Y-19680000D03*
%TD*%
D15*
%TO.C,U1*%
X25525000Y-31095000D03*
X25525000Y-32365000D03*
X25525000Y-33635000D03*
X25525000Y-34905000D03*
X30475000Y-34905000D03*
X30475000Y-33635000D03*
X30475000Y-32365000D03*
X30475000Y-31095000D03*
%TD*%
D10*
%TO.C,R3*%
X55000000Y-31825000D03*
X55000000Y-30175000D03*
%TD*%
D20*
%TO.C,J1*%
X7355000Y-20800000D03*
X7355000Y-21600000D03*
D21*
X7355000Y-22750000D03*
X7355000Y-23750000D03*
X7355000Y-24250000D03*
X7355000Y-25250000D03*
D20*
X7355000Y-26400000D03*
X7355000Y-27200000D03*
X7355000Y-27200000D03*
X7355000Y-26400000D03*
D21*
X7355000Y-25750000D03*
X7355000Y-24750000D03*
X7355000Y-23250000D03*
X7355000Y-22250000D03*
D20*
X7355000Y-21600000D03*
X7355000Y-20800000D03*
D18*
X6780000Y-19680000D03*
D19*
X2600000Y-19680000D03*
D18*
X6780000Y-28320000D03*
D19*
X2600000Y-28320000D03*
%TD*%
D22*
%TO.C,D1*%
X18212500Y-4500000D03*
X19787500Y-4500000D03*
%TD*%
D10*
%TO.C,R7*%
X40000000Y-41325000D03*
X40000000Y-39675000D03*
%TD*%
%TO.C,R1*%
X14000000Y-31825000D03*
X14000000Y-30175000D03*
%TD*%
M02*
