%TF.GenerationSoftware,KiCad,Pcbnew,7.0.11+dfsg-1build4*%
%TF.CreationDate,2026-10-10T06:03:42+00:00*%
%TF.ProjectId,spark_chip_board,73706172-6b5f-4636-9869-705f626f6172,rev?*%
%TF.SameCoordinates,Original*%
%TF.FileFunction,Paste,Top*%
%TF.FilePolarity,Positive*%
%FSLAX46Y46*%
G04 Gerber Fmt 4.6, Leading zero omitted, Abs format (unit mm)*
G04 Created by KiCad (PCBNEW 7.0.11+dfsg-1build4) date 2026-10-10 06:03:42*
%MOMM*%
%LPD*%
G01*
G04 APERTURE LIST*
G04 Aperture macros list*
%AMRoundRect*
0 Rectangle with rounded corners*
0 $1 Rounding radius*
0 $2 $3 $4 $5 $6 $7 $8 $9 X,Y pos of 4 corners*
0 Add a 4 corners polygon primitive as box body*
4,1,4,$2,$3,$4,$5,$6,$7,$8,$9,$2,$3,0*
0 Add four circle primitives for the rounded corners*
1,1,$1+$1,$2,$3*
1,1,$1+$1,$4,$5*
1,1,$1+$1,$6,$7*
1,1,$1+$1,$8,$9*
0 Add four rect primitives between the rounded corners*
20,1,$1+$1,$2,$3,$4,$5,0*
20,1,$1+$1,$4,$5,$6,$7,0*
20,1,$1+$1,$6,$7,$8,$9,0*
20,1,$1+$1,$8,$9,$2,$3,0*%
G04 Aperture macros list end*
%ADD10RoundRect,0.250000X-0.312500X-0.625000X0.312500X-0.625000X0.312500X0.625000X-0.312500X0.625000X0*%
%ADD11RoundRect,0.150000X-0.512500X-0.150000X0.512500X-0.150000X0.512500X0.150000X-0.512500X0.150000X0*%
%ADD12RoundRect,0.200000X0.275000X-0.200000X0.275000X0.200000X-0.275000X0.200000X-0.275000X-0.200000X0*%
%ADD13RoundRect,0.225000X0.250000X-0.225000X0.250000X0.225000X-0.250000X0.225000X-0.250000X-0.225000X0*%
%ADD14RoundRect,0.200000X-0.200000X-0.275000X0.200000X-0.275000X0.200000X0.275000X-0.200000X0.275000X0*%
%ADD15RoundRect,0.225000X-0.225000X-0.250000X0.225000X-0.250000X0.225000X0.250000X-0.225000X0.250000X0*%
%ADD16RoundRect,0.250000X-0.250000X-0.475000X0.250000X-0.475000X0.250000X0.475000X-0.250000X0.475000X0*%
%ADD17R,1.300000X1.100000*%
%ADD18RoundRect,0.150000X-0.425000X0.150000X-0.425000X-0.150000X0.425000X-0.150000X0.425000X0.150000X0*%
%ADD19RoundRect,0.075000X-0.500000X0.075000X-0.500000X-0.075000X0.500000X-0.075000X0.500000X0.075000X0*%
%ADD20O,2.100000X1.000000*%
%ADD21O,1.800000X1.000000*%
%ADD22R,1.550000X1.300000*%
%ADD23RoundRect,0.150000X-0.825000X-0.150000X0.825000X-0.150000X0.825000X0.150000X-0.825000X0.150000X0*%
%ADD24RoundRect,0.218750X-0.218750X-0.256250X0.218750X-0.256250X0.218750X0.256250X-0.218750X0.256250X0*%
%ADD25RoundRect,0.232500X-0.232500X-0.232500X0.232500X-0.232500X0.232500X0.232500X-0.232500X0.232500X0*%
%ADD26RoundRect,0.062500X-0.375000X-0.062500X0.375000X-0.062500X0.375000X0.062500X-0.375000X0.062500X0*%
%ADD27RoundRect,0.062500X-0.062500X-0.375000X0.062500X-0.375000X0.062500X0.375000X-0.062500X0.375000X0*%
G04 APERTURE END LIST*
D10*
%TO.C,RS1*%
X29537500Y-37500000D03*
X32462500Y-37500000D03*
%TD*%
D11*
%TO.C,U3*%
X10862500Y-36550000D03*
X10862500Y-37500000D03*
X10862500Y-38450000D03*
X13137500Y-38450000D03*
X13137500Y-36550000D03*
%TD*%
D12*
%TO.C,R1*%
X10500000Y-29825000D03*
X10500000Y-28175000D03*
%TD*%
D13*
%TO.C,C12*%
X25500000Y-26275000D03*
X25500000Y-24725000D03*
%TD*%
D14*
%TO.C,R7*%
X49175000Y-8000000D03*
X50825000Y-8000000D03*
%TD*%
D12*
%TO.C,R6*%
X21500000Y-12325000D03*
X21500000Y-10675000D03*
%TD*%
D15*
%TO.C,C4*%
X19225000Y-41000000D03*
X20775000Y-41000000D03*
%TD*%
%TO.C,C10*%
X34725000Y-14000000D03*
X36275000Y-14000000D03*
%TD*%
D14*
%TO.C,R8*%
X49175000Y-11000000D03*
X50825000Y-11000000D03*
%TD*%
D16*
%TO.C,C11*%
X30050000Y-31500000D03*
X31950000Y-31500000D03*
%TD*%
D13*
%TO.C,C7*%
X26000000Y-17775000D03*
X26000000Y-16225000D03*
%TD*%
D15*
%TO.C,C15*%
X31225000Y-28000000D03*
X32775000Y-28000000D03*
%TD*%
D17*
%TO.C,Y1*%
X42950000Y-21825000D03*
X45050000Y-21825000D03*
X45050000Y-20175000D03*
X42950000Y-20175000D03*
%TD*%
D18*
%TO.C,J1*%
X7355000Y-19800000D03*
X7355000Y-20600000D03*
D19*
X7355000Y-21750000D03*
X7355000Y-22750000D03*
X7355000Y-23250000D03*
X7355000Y-24250000D03*
D18*
X7355000Y-25400000D03*
X7355000Y-26200000D03*
X7355000Y-26200000D03*
X7355000Y-25400000D03*
D19*
X7355000Y-24750000D03*
X7355000Y-23750000D03*
X7355000Y-22250000D03*
X7355000Y-21250000D03*
D18*
X7355000Y-20600000D03*
X7355000Y-19800000D03*
D20*
X6780000Y-18680000D03*
D21*
X2600000Y-18680000D03*
D20*
X6780000Y-27320000D03*
D21*
X2600000Y-27320000D03*
%TD*%
D22*
%TO.C,SW1*%
X26020000Y-3750000D03*
X33980000Y-3750000D03*
X26020000Y-8250000D03*
X33980000Y-8250000D03*
%TD*%
D13*
%TO.C,C13*%
X38000000Y-17775000D03*
X38000000Y-16225000D03*
%TD*%
D12*
%TO.C,R4*%
X49500000Y-41825000D03*
X49500000Y-40175000D03*
%TD*%
%TO.C,R2*%
X13500000Y-29825000D03*
X13500000Y-28175000D03*
%TD*%
D23*
%TO.C,U5*%
X37525000Y-36095000D03*
X37525000Y-37365000D03*
X37525000Y-38635000D03*
X37525000Y-39905000D03*
X42475000Y-39905000D03*
X42475000Y-38635000D03*
X42475000Y-37365000D03*
X42475000Y-36095000D03*
%TD*%
D15*
%TO.C,C6*%
X39225000Y-33000000D03*
X40775000Y-33000000D03*
%TD*%
D24*
%TO.C,D3*%
X53212500Y-14000000D03*
X54787500Y-14000000D03*
%TD*%
%TO.C,D2*%
X53212500Y-11000000D03*
X54787500Y-11000000D03*
%TD*%
D15*
%TO.C,C14*%
X30725000Y-14000000D03*
X32275000Y-14000000D03*
%TD*%
D12*
%TO.C,R3*%
X46000000Y-41825000D03*
X46000000Y-40175000D03*
%TD*%
D13*
%TO.C,C8*%
X38000000Y-25775000D03*
X38000000Y-24225000D03*
%TD*%
D23*
%TO.C,U2*%
X13525000Y-7555000D03*
X13525000Y-8825000D03*
X13525000Y-10095000D03*
X13525000Y-11365000D03*
X13525000Y-12635000D03*
X13525000Y-13905000D03*
X13525000Y-15175000D03*
X13525000Y-16445000D03*
X18475000Y-16445000D03*
X18475000Y-15175000D03*
X18475000Y-13905000D03*
X18475000Y-12635000D03*
X18475000Y-11365000D03*
X18475000Y-10095000D03*
X18475000Y-8825000D03*
X18475000Y-7555000D03*
%TD*%
D14*
%TO.C,R5*%
X38675000Y-21000000D03*
X40325000Y-21000000D03*
%TD*%
%TO.C,R9*%
X49175000Y-14000000D03*
X50825000Y-14000000D03*
%TD*%
D13*
%TO.C,C17*%
X25000000Y-12275000D03*
X25000000Y-10725000D03*
%TD*%
D15*
%TO.C,C9*%
X27725000Y-27500000D03*
X29275000Y-27500000D03*
%TD*%
D11*
%TO.C,U4*%
X21862500Y-36550000D03*
X21862500Y-37500000D03*
X21862500Y-38450000D03*
X24137500Y-38450000D03*
X24137500Y-36550000D03*
%TD*%
D15*
%TO.C,C2*%
X7725000Y-41000000D03*
X9275000Y-41000000D03*
%TD*%
D16*
%TO.C,C3*%
X15050000Y-41000000D03*
X16950000Y-41000000D03*
%TD*%
D24*
%TO.C,D1*%
X53212500Y-8000000D03*
X54787500Y-8000000D03*
%TD*%
D25*
%TO.C,U1*%
X30850000Y-19850000D03*
X30850000Y-21000000D03*
X30850000Y-22150000D03*
X32000000Y-19850000D03*
X32000000Y-21000000D03*
X32000000Y-22150000D03*
X33150000Y-19850000D03*
X33150000Y-21000000D03*
X33150000Y-22150000D03*
D26*
X29562500Y-19250000D03*
X29562500Y-19750000D03*
X29562500Y-20250000D03*
X29562500Y-20750000D03*
X29562500Y-21250000D03*
X29562500Y-21750000D03*
X29562500Y-22250000D03*
X29562500Y-22750000D03*
D27*
X30250000Y-23437500D03*
X30750000Y-23437500D03*
X31250000Y-23437500D03*
X31750000Y-23437500D03*
X32250000Y-23437500D03*
X32750000Y-23437500D03*
X33250000Y-23437500D03*
X33750000Y-23437500D03*
D26*
X34437500Y-22750000D03*
X34437500Y-22250000D03*
X34437500Y-21750000D03*
X34437500Y-21250000D03*
X34437500Y-20750000D03*
X34437500Y-20250000D03*
X34437500Y-19750000D03*
X34437500Y-19250000D03*
D27*
X33750000Y-18562500D03*
X33250000Y-18562500D03*
X32750000Y-18562500D03*
X32250000Y-18562500D03*
X31750000Y-18562500D03*
X31250000Y-18562500D03*
X30750000Y-18562500D03*
X30250000Y-18562500D03*
%TD*%
D15*
%TO.C,C16*%
X43225000Y-25500000D03*
X44775000Y-25500000D03*
%TD*%
%TO.C,C5*%
X25725000Y-41000000D03*
X27275000Y-41000000D03*
%TD*%
%TO.C,C1*%
X20725000Y-6000000D03*
X22275000Y-6000000D03*
%TD*%
M02*
