%TF.GenerationSoftware,KiCad,Pcbnew,7.0.11+dfsg-1build4*%
%TF.CreationDate,2026-10-10T06:03:42+00:00*%
%TF.ProjectId,spark_chip_board,73706172-6b5f-4636-9869-705f626f6172,rev?*%
%TF.SameCoordinates,Original*%
%TF.FileFunction,Copper,L2,Bot*%
%TF.FilePolarity,Positive*%
%FSLAX46Y46*%
G04 Gerber Fmt 4.6, Leading zero omitted, Abs format (unit mm)*
G04 Created by KiCad (PCBNEW 7.0.11+dfsg-1build4) date 2026-10-10 06:03:42*
%MOMM*%
%LPD*%
G01*
G04 APERTURE LIST*
%TA.AperFunction,ComponentPad*%
%ADD10R,1.700000X1.700000*%
%TD*%
%TA.AperFunction,ComponentPad*%
%ADD11O,1.700000X1.700000*%
%TD*%
%TA.AperFunction,ComponentPad*%
%ADD12O,2.100000X1.000000*%
%TD*%
%TA.AperFunction,ComponentPad*%
%ADD13O,1.800000X1.000000*%
%TD*%
%TA.AperFunction,ViaPad*%
%ADD14C,0.600000*%
%TD*%
%TA.AperFunction,Conductor*%
%ADD15C,0.200000*%
%TD*%
G04 APERTURE END LIST*
D10*
%TO.P,J3,1*%
%TO.N,GND*%
X51500000Y-30000000D03*
D11*
%TO.P,J3,2*%
%TO.N,UART_RX*%
X51500000Y-32540000D03*
%TO.P,J3,3*%
%TO.N,UART_TX*%
X51500000Y-35080000D03*
%TD*%
D12*
%TO.P,J1,S1*%
%TO.N,GND*%
X6780000Y-18680000D03*
D13*
X2600000Y-18680000D03*
D12*
X6780000Y-27320000D03*
D13*
X2600000Y-27320000D03*
%TD*%
D10*
%TO.P,J2,1*%
%TO.N,+3V3*%
X56000000Y-20000000D03*
D11*
%TO.P,J2,2*%
%TO.N,GND*%
X56000000Y-22540000D03*
%TO.P,J2,3*%
%TO.N,SDA*%
X56000000Y-25080000D03*
%TO.P,J2,4*%
%TO.N,SCL*%
X56000000Y-27620000D03*
%TO.P,J2,5*%
%TO.N,TRIG*%
X56000000Y-30160000D03*
%TO.P,J2,6*%
%TO.N,TOK*%
X56000000Y-32700000D03*
%TD*%
D14*
%TO.N,+3V3*%
X30076700Y-15947900D03*
X33818500Y-16940500D03*
X23728500Y-13482000D03*
%TO.N,VCCD*%
X37064500Y-25468000D03*
X34454600Y-23524400D03*
X35338700Y-20833500D03*
X32220700Y-17385400D03*
%TO.N,GND*%
X10053100Y-27320300D03*
%TO.N,UART_RX*%
X28672000Y-19695800D03*
X16133700Y-8825000D03*
%TO.N,UART_TX*%
X15693500Y-10195000D03*
X28162600Y-20250000D03*
%TO.N,TOK*%
X35845700Y-22629300D03*
%TO.N,TRIG*%
X32821400Y-24327800D03*
%TD*%
D15*
%TO.N,+3V3*%
X54898100Y-20000000D02*
X51838600Y-16940500D01*
X30076700Y-15947900D02*
X27610800Y-13482000D01*
X33818500Y-16940500D02*
X32825900Y-15947900D01*
X51838600Y-16940500D02*
X33818500Y-16940500D01*
X27610800Y-13482000D02*
X23728500Y-13482000D01*
X56000000Y-20000000D02*
X54898100Y-20000000D01*
X32825900Y-15947900D02*
X30076700Y-15947900D01*
%TO.N,VCCD*%
X35338700Y-20833500D02*
X34999400Y-20833500D01*
X34660000Y-23524400D02*
X34454600Y-23524400D01*
X34660000Y-23524400D02*
X36603600Y-25468000D01*
X34660000Y-23524400D02*
X34660000Y-21172900D01*
X34999400Y-20164100D02*
X32220700Y-17385400D01*
X34999400Y-20833500D02*
X34999400Y-20164100D01*
X34660000Y-21172900D02*
X34999400Y-20833500D01*
X36603600Y-25468000D02*
X37064500Y-25468000D01*
%TO.N,GND*%
X2600000Y-18680000D02*
X3751900Y-18680000D01*
X55862300Y-23641900D02*
X51500000Y-28004200D01*
X56000000Y-22540000D02*
X56000000Y-23641900D01*
X6780000Y-18680000D02*
X3751900Y-18680000D01*
X2600000Y-27320000D02*
X3176000Y-27320000D01*
X3751900Y-18680000D02*
X3751900Y-27320000D01*
X51500000Y-28004200D02*
X51500000Y-30000000D01*
X3176000Y-27320000D02*
X3751900Y-27320000D01*
X56000000Y-23641900D02*
X55862300Y-23641900D01*
X8081900Y-27320000D02*
X10052800Y-27320000D01*
X10052800Y-27320000D02*
X10053100Y-27320300D01*
X6780000Y-27320000D02*
X8081900Y-27320000D01*
X3751900Y-27320000D02*
X6780000Y-27320000D01*
%TO.N,UART_RX*%
X17801200Y-8825000D02*
X16133700Y-8825000D01*
X51500000Y-32540000D02*
X42008200Y-32540000D01*
X29164000Y-19695800D02*
X28672000Y-19695800D01*
X42008200Y-32540000D02*
X29164000Y-19695800D01*
X28672000Y-19695800D02*
X17801200Y-8825000D01*
%TO.N,UART_TX*%
X42789400Y-35080000D02*
X28162600Y-20453200D01*
X28162600Y-20250000D02*
X25748500Y-20250000D01*
X25748500Y-20250000D02*
X15693500Y-10195000D01*
X28162600Y-20453200D02*
X28162600Y-20250000D01*
X51500000Y-35080000D02*
X42789400Y-35080000D01*
%TO.N,TOK*%
X54898100Y-32700000D02*
X53344100Y-31146000D01*
X53344100Y-31146000D02*
X44362400Y-31146000D01*
X44362400Y-31146000D02*
X35845700Y-22629300D01*
X56000000Y-32700000D02*
X54898100Y-32700000D01*
%TO.N,TRIG*%
X56137700Y-31261900D02*
X57103300Y-32227500D01*
X56000000Y-30160000D02*
X56000000Y-31261900D01*
X42295500Y-33801900D02*
X32821400Y-24327800D01*
X57103300Y-32227500D02*
X57103300Y-33223900D01*
X57103300Y-33223900D02*
X56525300Y-33801900D01*
X56000000Y-31261900D02*
X56137700Y-31261900D01*
X56525300Y-33801900D02*
X42295500Y-33801900D01*
%TD*%
%TA.AperFunction,Conductor*%
%TO.N,GND*%
G36*
X59559191Y-418907D02*
G01*
X59595155Y-468407D01*
X59600000Y-499000D01*
X59600000Y-45501000D01*
X59581093Y-45559191D01*
X59531593Y-45595155D01*
X59501000Y-45600000D01*
X499000Y-45600000D01*
X440809Y-45581093D01*
X404845Y-45531593D01*
X400000Y-45501000D01*
X400000Y-42633433D01*
X1719500Y-42633433D01*
X1759272Y-42897304D01*
X1759274Y-42897314D01*
X1837930Y-43152311D01*
X1953717Y-43392744D01*
X2104047Y-43613240D01*
X2285553Y-43808857D01*
X2285559Y-43808863D01*
X2494187Y-43975237D01*
X2494196Y-43975244D01*
X2494200Y-43975246D01*
X2494201Y-43975247D01*
X2725291Y-44108667D01*
X2725295Y-44108669D01*
X2725304Y-44108674D01*
X2973717Y-44206169D01*
X3233886Y-44265551D01*
X3300381Y-44270534D01*
X3433363Y-44280500D01*
X3433371Y-44280500D01*
X3566637Y-44280500D01*
X3689389Y-44271300D01*
X3766114Y-44265551D01*
X4026283Y-44206169D01*
X4274696Y-44108674D01*
X4505804Y-43975244D01*
X4596276Y-43903094D01*
X4714440Y-43808863D01*
X4714446Y-43808857D01*
X4895952Y-43613240D01*
X4895951Y-43613240D01*
X4895955Y-43613237D01*
X5046282Y-43392747D01*
X5162069Y-43152314D01*
X5240727Y-42897310D01*
X5280500Y-42633433D01*
X54719500Y-42633433D01*
X54759272Y-42897304D01*
X54759274Y-42897314D01*
X54837930Y-43152311D01*
X54953717Y-43392744D01*
X55104047Y-43613240D01*
X55285553Y-43808857D01*
X55285559Y-43808863D01*
X55494187Y-43975237D01*
X55494196Y-43975244D01*
X55494200Y-43975246D01*
X55494201Y-43975247D01*
X55725291Y-44108667D01*
X55725295Y-44108669D01*
X55725304Y-44108674D01*
X55973717Y-44206169D01*
X56233886Y-44265551D01*
X56300381Y-44270534D01*
X56433363Y-44280500D01*
X56433371Y-44280500D01*
X56566637Y-44280500D01*
X56689389Y-44271300D01*
X56766114Y-44265551D01*
X57026283Y-44206169D01*
X57274696Y-44108674D01*
X57505804Y-43975244D01*
X57596276Y-43903094D01*
X57714440Y-43808863D01*
X57714446Y-43808857D01*
X57895952Y-43613240D01*
X57895951Y-43613240D01*
X57895955Y-43613237D01*
X58046282Y-43392747D01*
X58162069Y-43152314D01*
X58240727Y-42897310D01*
X58280500Y-42633430D01*
X58280500Y-42366570D01*
X58240727Y-42102690D01*
X58162069Y-41847686D01*
X58046282Y-41607254D01*
X57895955Y-41386763D01*
X57895953Y-41386761D01*
X57895952Y-41386759D01*
X57714446Y-41191142D01*
X57714440Y-41191136D01*
X57505812Y-41024762D01*
X57505798Y-41024752D01*
X57274708Y-40891332D01*
X57274699Y-40891327D01*
X57274696Y-40891326D01*
X57274692Y-40891324D01*
X57274689Y-40891323D01*
X57026285Y-40793831D01*
X56766118Y-40734450D01*
X56766109Y-40734448D01*
X56566637Y-40719500D01*
X56566629Y-40719500D01*
X56433371Y-40719500D01*
X56433363Y-40719500D01*
X56233890Y-40734448D01*
X56233881Y-40734450D01*
X55973714Y-40793831D01*
X55725310Y-40891323D01*
X55725291Y-40891332D01*
X55494201Y-41024752D01*
X55494187Y-41024762D01*
X55285559Y-41191136D01*
X55285553Y-41191142D01*
X55104047Y-41386759D01*
X54953717Y-41607254D01*
X54837931Y-41847686D01*
X54759274Y-42102685D01*
X54759272Y-42102695D01*
X54719500Y-42366566D01*
X54719500Y-42633433D01*
X5280500Y-42633433D01*
X5280500Y-42633430D01*
X5280500Y-42366570D01*
X5240727Y-42102690D01*
X5162069Y-41847686D01*
X5046282Y-41607254D01*
X4895955Y-41386763D01*
X4895953Y-41386761D01*
X4895952Y-41386759D01*
X4714446Y-41191142D01*
X4714440Y-41191136D01*
X4505812Y-41024762D01*
X4505798Y-41024752D01*
X4274708Y-40891332D01*
X4274699Y-40891327D01*
X4274696Y-40891326D01*
X4274692Y-40891324D01*
X4274689Y-40891323D01*
X4026285Y-40793831D01*
X3766118Y-40734450D01*
X3766109Y-40734448D01*
X3566637Y-40719500D01*
X3566629Y-40719500D01*
X3433371Y-40719500D01*
X3433363Y-40719500D01*
X3233890Y-40734448D01*
X3233881Y-40734450D01*
X2973714Y-40793831D01*
X2725310Y-40891323D01*
X2725291Y-40891332D01*
X2494201Y-41024752D01*
X2494187Y-41024762D01*
X2285559Y-41191136D01*
X2285553Y-41191142D01*
X2104047Y-41386759D01*
X1953717Y-41607254D01*
X1837931Y-41847686D01*
X1759274Y-42102685D01*
X1759272Y-42102695D01*
X1719500Y-42366566D01*
X1719500Y-42633433D01*
X400000Y-42633433D01*
X400000Y-25962681D01*
X5774500Y-25962681D01*
X5815453Y-26102151D01*
X5815455Y-26102156D01*
X5894038Y-26224434D01*
X5894039Y-26224435D01*
X5894040Y-26224436D01*
X6003896Y-26319626D01*
X6003897Y-26319626D01*
X6003898Y-26319627D01*
X6136119Y-26380011D01*
X6243842Y-26395500D01*
X6243847Y-26395500D01*
X6316158Y-26395500D01*
X6405925Y-26382592D01*
X6423880Y-26380011D01*
X6423881Y-26380011D01*
X6496917Y-26346655D01*
X6556104Y-26319626D01*
X6665960Y-26224436D01*
X6744547Y-26102152D01*
X6785500Y-25962680D01*
X6785500Y-25817320D01*
X6744547Y-25677848D01*
X6702042Y-25611709D01*
X6665961Y-25555565D01*
X6665960Y-25555564D01*
X6556104Y-25460374D01*
X6556102Y-25460373D01*
X6556101Y-25460372D01*
X6423880Y-25399988D01*
X6316158Y-25384500D01*
X6316153Y-25384500D01*
X6243847Y-25384500D01*
X6243842Y-25384500D01*
X6136120Y-25399988D01*
X6136118Y-25399988D01*
X6003898Y-25460372D01*
X5894038Y-25555565D01*
X5815455Y-25677843D01*
X5815453Y-25677848D01*
X5774500Y-25817318D01*
X5774500Y-25962681D01*
X400000Y-25962681D01*
X400000Y-20182681D01*
X5774500Y-20182681D01*
X5782939Y-20211422D01*
X5813331Y-20314926D01*
X5815453Y-20322151D01*
X5815455Y-20322156D01*
X5894038Y-20444434D01*
X5894039Y-20444435D01*
X5894040Y-20444436D01*
X6003896Y-20539626D01*
X6003897Y-20539626D01*
X6003898Y-20539627D01*
X6136119Y-20600011D01*
X6243842Y-20615500D01*
X6243847Y-20615500D01*
X6316158Y-20615500D01*
X6412098Y-20601705D01*
X6423880Y-20600011D01*
X6423881Y-20600011D01*
X6520526Y-20555874D01*
X6556104Y-20539626D01*
X6665960Y-20444436D01*
X6744547Y-20322152D01*
X6785500Y-20182680D01*
X6785500Y-20037320D01*
X6744547Y-19897848D01*
X6720718Y-19860769D01*
X6665961Y-19775565D01*
X6600711Y-19719026D01*
X6556104Y-19680374D01*
X6556102Y-19680373D01*
X6556101Y-19680372D01*
X6423880Y-19619988D01*
X6316158Y-19604500D01*
X6316153Y-19604500D01*
X6243847Y-19604500D01*
X6243842Y-19604500D01*
X6136120Y-19619988D01*
X6136118Y-19619988D01*
X6003898Y-19680372D01*
X5894038Y-19775565D01*
X5815455Y-19897843D01*
X5815453Y-19897848D01*
X5774500Y-20037318D01*
X5774500Y-20182681D01*
X400000Y-20182681D01*
X400000Y-10195000D01*
X15138250Y-10195000D01*
X15157169Y-10338708D01*
X15157170Y-10338709D01*
X15212639Y-10472625D01*
X15300879Y-10587621D01*
X15415875Y-10675861D01*
X15549791Y-10731330D01*
X15693500Y-10750250D01*
X15697727Y-10749693D01*
X15757886Y-10760838D01*
X15780659Y-10777841D01*
X25467699Y-20464881D01*
X25480574Y-20480737D01*
X25487063Y-20490669D01*
X25511190Y-20509448D01*
X25520377Y-20517560D01*
X25521189Y-20518371D01*
X25521193Y-20518375D01*
X25537294Y-20529870D01*
X25540545Y-20532295D01*
X25549965Y-20539627D01*
X25579374Y-20562517D01*
X25585823Y-20566007D01*
X25592430Y-20569237D01*
X25592433Y-20569239D01*
X25592435Y-20569239D01*
X25592436Y-20569240D01*
X25639558Y-20583269D01*
X25643455Y-20584517D01*
X25663727Y-20591476D01*
X25690012Y-20600500D01*
X25690014Y-20600500D01*
X25697236Y-20601705D01*
X25704539Y-20602615D01*
X25704546Y-20602617D01*
X25753676Y-20600585D01*
X25757767Y-20600500D01*
X27688836Y-20600500D01*
X27747027Y-20619407D01*
X27767377Y-20639231D01*
X27769977Y-20642620D01*
X27831452Y-20689791D01*
X27884975Y-20730861D01*
X27968528Y-20765469D01*
X28000647Y-20786929D01*
X42508597Y-35294878D01*
X42521472Y-35310734D01*
X42527963Y-35320669D01*
X42552094Y-35339451D01*
X42561278Y-35347560D01*
X42562089Y-35348370D01*
X42562093Y-35348374D01*
X42578173Y-35359856D01*
X42581451Y-35362300D01*
X42620274Y-35392517D01*
X42620278Y-35392518D01*
X42626754Y-35396022D01*
X42633334Y-35399240D01*
X42680502Y-35413282D01*
X42684364Y-35414520D01*
X42694711Y-35418072D01*
X42730912Y-35430500D01*
X42730914Y-35430500D01*
X42738136Y-35431705D01*
X42745439Y-35432615D01*
X42745446Y-35432617D01*
X42794576Y-35430585D01*
X42798667Y-35430500D01*
X50383845Y-35430500D01*
X50442036Y-35449407D01*
X50472466Y-35485372D01*
X50560327Y-35661821D01*
X50683236Y-35824579D01*
X50833959Y-35961981D01*
X51007363Y-36069348D01*
X51197544Y-36143024D01*
X51398024Y-36180500D01*
X51601976Y-36180500D01*
X51802456Y-36143024D01*
X51992637Y-36069348D01*
X52166041Y-35961981D01*
X52316764Y-35824579D01*
X52439673Y-35661821D01*
X52530582Y-35479250D01*
X52586397Y-35283083D01*
X52605215Y-35080000D01*
X52586397Y-34876917D01*
X52530582Y-34680750D01*
X52439673Y-34498179D01*
X52316764Y-34335421D01*
X52304851Y-34324561D01*
X52274586Y-34271387D01*
X52281355Y-34210577D01*
X52322575Y-34165361D01*
X52371547Y-34152400D01*
X56478681Y-34152400D01*
X56498996Y-34154507D01*
X56500906Y-34154907D01*
X56510615Y-34156943D01*
X56540962Y-34153159D01*
X56553207Y-34152400D01*
X56554343Y-34152400D01*
X56573821Y-34149149D01*
X56577852Y-34148561D01*
X56626693Y-34142473D01*
X56626696Y-34142471D01*
X56633729Y-34140377D01*
X56640675Y-34137992D01*
X56640681Y-34137992D01*
X56683955Y-34114571D01*
X56687579Y-34112707D01*
X56731782Y-34091099D01*
X56731782Y-34091098D01*
X56731784Y-34091098D01*
X56731785Y-34091096D01*
X56737770Y-34086823D01*
X56743555Y-34082320D01*
X56743555Y-34082319D01*
X56743558Y-34082318D01*
X56776879Y-34046120D01*
X56779664Y-34043216D01*
X57318184Y-33504696D01*
X57334034Y-33491826D01*
X57343969Y-33485337D01*
X57362751Y-33461203D01*
X57370877Y-33452004D01*
X57371675Y-33451207D01*
X57383157Y-33435123D01*
X57385590Y-33431861D01*
X57393280Y-33421981D01*
X57415817Y-33393026D01*
X57415817Y-33393023D01*
X57419314Y-33386562D01*
X57422539Y-33379967D01*
X57436581Y-33332796D01*
X57437812Y-33328954D01*
X57453800Y-33282388D01*
X57453800Y-33282384D01*
X57455006Y-33275159D01*
X57455917Y-33267854D01*
X57453885Y-33218724D01*
X57453800Y-33214633D01*
X57453800Y-32274118D01*
X57455907Y-32253802D01*
X57455917Y-32253753D01*
X57458343Y-32242185D01*
X57454560Y-32211836D01*
X57453800Y-32199592D01*
X57453800Y-32198464D01*
X57453800Y-32198460D01*
X57450539Y-32178927D01*
X57449962Y-32174967D01*
X57443873Y-32126108D01*
X57443872Y-32126106D01*
X57443872Y-32126103D01*
X57441780Y-32119077D01*
X57439391Y-32112116D01*
X57415982Y-32068862D01*
X57414108Y-32065221D01*
X57392499Y-32021018D01*
X57388230Y-32015038D01*
X57383720Y-32009245D01*
X57383719Y-32009244D01*
X57383718Y-32009242D01*
X57347509Y-31975909D01*
X57344582Y-31973101D01*
X56598426Y-31226945D01*
X56570649Y-31172428D01*
X56580220Y-31111996D01*
X56616311Y-31072772D01*
X56666041Y-31041981D01*
X56816764Y-30904579D01*
X56939673Y-30741821D01*
X57030582Y-30559250D01*
X57086397Y-30363083D01*
X57105215Y-30160000D01*
X57086397Y-29956917D01*
X57030582Y-29760750D01*
X56939673Y-29578179D01*
X56816764Y-29415421D01*
X56666041Y-29278019D01*
X56492637Y-29170652D01*
X56302456Y-29096976D01*
X56302455Y-29096975D01*
X56302453Y-29096975D01*
X56101976Y-29059500D01*
X55898024Y-29059500D01*
X55697546Y-29096975D01*
X55627632Y-29124059D01*
X55507363Y-29170652D01*
X55333959Y-29278019D01*
X55183237Y-29415420D01*
X55060328Y-29578177D01*
X55060323Y-29578186D01*
X54969419Y-29760747D01*
X54969418Y-29760750D01*
X54913603Y-29956917D01*
X54894785Y-30160000D01*
X54913603Y-30363083D01*
X54969418Y-30559250D01*
X55060327Y-30741821D01*
X55183236Y-30904579D01*
X55333959Y-31041981D01*
X55507363Y-31149348D01*
X55507365Y-31149348D01*
X55507367Y-31149350D01*
X55507371Y-31149352D01*
X55583939Y-31179013D01*
X55631371Y-31217663D01*
X55647026Y-31276812D01*
X55646840Y-31279497D01*
X55645867Y-31291242D01*
X55645867Y-31291246D01*
X55655662Y-31329926D01*
X55657340Y-31337929D01*
X55663907Y-31377280D01*
X55663909Y-31377286D01*
X55665080Y-31379449D01*
X55673979Y-31402253D01*
X55674584Y-31404641D01*
X55690040Y-31428298D01*
X55696403Y-31438038D01*
X55700590Y-31445065D01*
X55719581Y-31480157D01*
X55724621Y-31486632D01*
X55722432Y-31488335D01*
X55745956Y-31530134D01*
X55738892Y-31590910D01*
X55697453Y-31635927D01*
X55684662Y-31641966D01*
X55643225Y-31658019D01*
X55507363Y-31710652D01*
X55370458Y-31795420D01*
X55333959Y-31818019D01*
X55183237Y-31955420D01*
X55060328Y-32118177D01*
X55060323Y-32118186D01*
X55039097Y-32160814D01*
X54996234Y-32204477D01*
X54935893Y-32214606D01*
X54881122Y-32187333D01*
X54880472Y-32186690D01*
X53624901Y-30931119D01*
X53612025Y-30915262D01*
X53605537Y-30905331D01*
X53581408Y-30886551D01*
X53572219Y-30878437D01*
X53571407Y-30877625D01*
X53555325Y-30866143D01*
X53552061Y-30863710D01*
X53513226Y-30833483D01*
X53513224Y-30833482D01*
X53506777Y-30829993D01*
X53500170Y-30826763D01*
X53500166Y-30826760D01*
X53453009Y-30812720D01*
X53449115Y-30811472D01*
X53402587Y-30795499D01*
X53395360Y-30794293D01*
X53388055Y-30793383D01*
X53388054Y-30793383D01*
X53388052Y-30793383D01*
X53338924Y-30795415D01*
X53334833Y-30795500D01*
X44548589Y-30795500D01*
X44490398Y-30776593D01*
X44478585Y-30766504D01*
X41332082Y-27620000D01*
X54894785Y-27620000D01*
X54913603Y-27823083D01*
X54969418Y-28019250D01*
X55060327Y-28201821D01*
X55183236Y-28364579D01*
X55333959Y-28501981D01*
X55507363Y-28609348D01*
X55697544Y-28683024D01*
X55898024Y-28720500D01*
X56101976Y-28720500D01*
X56302456Y-28683024D01*
X56492637Y-28609348D01*
X56666041Y-28501981D01*
X56816764Y-28364579D01*
X56939673Y-28201821D01*
X57030582Y-28019250D01*
X57086397Y-27823083D01*
X57105215Y-27620000D01*
X57086397Y-27416917D01*
X57030582Y-27220750D01*
X56939673Y-27038179D01*
X56816764Y-26875421D01*
X56666041Y-26738019D01*
X56492637Y-26630652D01*
X56302456Y-26556976D01*
X56302455Y-26556975D01*
X56302453Y-26556975D01*
X56101976Y-26519500D01*
X55898024Y-26519500D01*
X55697546Y-26556975D01*
X55627632Y-26584059D01*
X55507363Y-26630652D01*
X55333959Y-26738019D01*
X55183237Y-26875420D01*
X55060328Y-27038177D01*
X55060323Y-27038186D01*
X54969419Y-27220747D01*
X54969418Y-27220750D01*
X54913603Y-27416917D01*
X54894785Y-27620000D01*
X41332082Y-27620000D01*
X38792082Y-25080000D01*
X54894785Y-25080000D01*
X54913603Y-25283083D01*
X54969418Y-25479250D01*
X55060327Y-25661821D01*
X55183236Y-25824579D01*
X55333959Y-25961981D01*
X55507363Y-26069348D01*
X55697544Y-26143024D01*
X55898024Y-26180500D01*
X56101976Y-26180500D01*
X56302456Y-26143024D01*
X56492637Y-26069348D01*
X56666041Y-25961981D01*
X56816764Y-25824579D01*
X56939673Y-25661821D01*
X57030582Y-25479250D01*
X57086397Y-25283083D01*
X57105215Y-25080000D01*
X57086397Y-24876917D01*
X57030582Y-24680750D01*
X56939673Y-24498179D01*
X56816764Y-24335421D01*
X56666041Y-24198019D01*
X56492637Y-24090652D01*
X56302456Y-24016976D01*
X56302455Y-24016975D01*
X56302453Y-24016975D01*
X56101976Y-23979500D01*
X55898024Y-23979500D01*
X55697546Y-24016975D01*
X55631795Y-24042447D01*
X55507363Y-24090652D01*
X55333959Y-24198019D01*
X55183237Y-24335420D01*
X55060328Y-24498177D01*
X55060323Y-24498186D01*
X54969419Y-24680747D01*
X54969418Y-24680750D01*
X54913603Y-24876917D01*
X54894785Y-25080000D01*
X38792082Y-25080000D01*
X36428541Y-22716459D01*
X36400764Y-22661942D01*
X36400393Y-22633529D01*
X36400950Y-22629300D01*
X36382030Y-22485591D01*
X36326561Y-22351675D01*
X36238321Y-22236679D01*
X36123325Y-22148439D01*
X36123321Y-22148437D01*
X35989409Y-22092970D01*
X35989408Y-22092969D01*
X35845700Y-22074050D01*
X35701991Y-22092969D01*
X35701990Y-22092970D01*
X35568078Y-22148437D01*
X35568074Y-22148439D01*
X35453081Y-22236677D01*
X35453077Y-22236681D01*
X35364839Y-22351674D01*
X35364837Y-22351678D01*
X35309370Y-22485590D01*
X35309369Y-22485591D01*
X35290450Y-22629299D01*
X35290450Y-22629300D01*
X35309369Y-22773008D01*
X35309370Y-22773009D01*
X35364839Y-22906925D01*
X35453079Y-23021921D01*
X35568075Y-23110161D01*
X35701991Y-23165630D01*
X35845700Y-23184550D01*
X35849927Y-23183993D01*
X35910086Y-23195138D01*
X35932859Y-23212141D01*
X44081599Y-31360881D01*
X44094474Y-31376737D01*
X44100963Y-31386669D01*
X44125090Y-31405448D01*
X44134277Y-31413560D01*
X44135090Y-31414372D01*
X44135094Y-31414376D01*
X44151184Y-31425864D01*
X44154448Y-31428298D01*
X44193274Y-31458517D01*
X44193275Y-31458517D01*
X44193276Y-31458518D01*
X44199737Y-31462014D01*
X44206334Y-31465240D01*
X44253502Y-31479282D01*
X44257364Y-31480520D01*
X44267711Y-31484072D01*
X44303912Y-31496500D01*
X44303914Y-31496500D01*
X44311133Y-31497705D01*
X44318439Y-31498615D01*
X44318446Y-31498617D01*
X44367586Y-31496584D01*
X44371676Y-31496500D01*
X50755589Y-31496500D01*
X50813780Y-31515407D01*
X50849744Y-31564907D01*
X50849744Y-31626093D01*
X50822286Y-31668660D01*
X50697791Y-31782151D01*
X50683237Y-31795420D01*
X50560328Y-31958177D01*
X50560323Y-31958186D01*
X50472466Y-32134628D01*
X50429603Y-32178291D01*
X50383845Y-32189500D01*
X42194390Y-32189500D01*
X42136199Y-32170593D01*
X42124386Y-32160504D01*
X34174114Y-24210232D01*
X34146337Y-24155715D01*
X34155908Y-24095283D01*
X34199173Y-24052018D01*
X34259605Y-24042447D01*
X34281998Y-24048762D01*
X34310891Y-24060730D01*
X34454600Y-24079650D01*
X34598309Y-24060730D01*
X34609556Y-24056070D01*
X34670552Y-24051269D01*
X34717448Y-24077530D01*
X36322799Y-25682881D01*
X36335674Y-25698737D01*
X36342163Y-25708669D01*
X36366290Y-25727448D01*
X36375477Y-25735560D01*
X36376289Y-25736371D01*
X36376293Y-25736375D01*
X36392394Y-25747870D01*
X36395655Y-25750303D01*
X36434474Y-25780517D01*
X36440923Y-25784007D01*
X36447530Y-25787237D01*
X36447533Y-25787239D01*
X36447535Y-25787239D01*
X36447536Y-25787240D01*
X36494658Y-25801269D01*
X36498555Y-25802517D01*
X36518827Y-25809476D01*
X36545112Y-25818500D01*
X36545114Y-25818500D01*
X36552336Y-25819705D01*
X36559640Y-25820615D01*
X36559646Y-25820617D01*
X36587325Y-25819472D01*
X36646248Y-25835958D01*
X36669959Y-25858120D01*
X36671875Y-25860617D01*
X36671877Y-25860618D01*
X36671879Y-25860621D01*
X36786875Y-25948861D01*
X36920791Y-26004330D01*
X37064500Y-26023250D01*
X37208209Y-26004330D01*
X37342125Y-25948861D01*
X37457121Y-25860621D01*
X37545361Y-25745625D01*
X37600830Y-25611709D01*
X37619750Y-25468000D01*
X37600830Y-25324291D01*
X37545361Y-25190375D01*
X37457121Y-25075379D01*
X37342125Y-24987139D01*
X37342121Y-24987137D01*
X37208209Y-24931670D01*
X37208208Y-24931669D01*
X37064500Y-24912750D01*
X36920791Y-24931669D01*
X36920790Y-24931670D01*
X36786878Y-24987137D01*
X36786873Y-24987139D01*
X36760439Y-25007424D01*
X36702763Y-25027848D01*
X36644097Y-25010470D01*
X36630168Y-24998886D01*
X35039496Y-23408214D01*
X35011719Y-23353697D01*
X35010500Y-23338210D01*
X35010500Y-21441575D01*
X35029407Y-21383384D01*
X35078907Y-21347420D01*
X35140093Y-21347420D01*
X35147379Y-21350109D01*
X35194991Y-21369830D01*
X35338700Y-21388750D01*
X35482409Y-21369830D01*
X35616325Y-21314361D01*
X35731321Y-21226121D01*
X35819561Y-21111125D01*
X35875030Y-20977209D01*
X35893950Y-20833500D01*
X35875030Y-20689791D01*
X35819561Y-20555875D01*
X35731321Y-20440879D01*
X35616325Y-20352639D01*
X35616321Y-20352637D01*
X35482409Y-20297170D01*
X35439610Y-20291535D01*
X35384385Y-20265193D01*
X35355191Y-20211422D01*
X35355480Y-20187038D01*
X35354103Y-20186982D01*
X35354440Y-20178790D01*
X35354442Y-20178785D01*
X35350660Y-20148442D01*
X35349900Y-20136198D01*
X35349900Y-20135059D01*
X35347795Y-20122448D01*
X35346643Y-20115547D01*
X35346058Y-20111529D01*
X35343377Y-20090019D01*
X35339973Y-20062707D01*
X35339971Y-20062704D01*
X35337877Y-20055669D01*
X35335491Y-20048716D01*
X35312087Y-20005471D01*
X35310213Y-20001830D01*
X35288599Y-19957617D01*
X35284348Y-19951662D01*
X35279819Y-19945843D01*
X35279818Y-19945842D01*
X35243621Y-19912520D01*
X35240694Y-19909712D01*
X32803541Y-17472559D01*
X32775764Y-17418042D01*
X32775393Y-17389629D01*
X32775950Y-17385400D01*
X32757030Y-17241691D01*
X32701561Y-17107775D01*
X32613321Y-16992779D01*
X32498325Y-16904539D01*
X32498321Y-16904537D01*
X32364409Y-16849070D01*
X32364408Y-16849069D01*
X32220700Y-16830150D01*
X32076991Y-16849069D01*
X32076990Y-16849070D01*
X31943078Y-16904537D01*
X31943074Y-16904539D01*
X31828081Y-16992777D01*
X31828077Y-16992781D01*
X31739839Y-17107774D01*
X31739837Y-17107778D01*
X31684370Y-17241690D01*
X31684369Y-17241691D01*
X31665450Y-17385399D01*
X31665450Y-17385400D01*
X31684369Y-17529108D01*
X31684370Y-17529109D01*
X31739839Y-17663025D01*
X31828079Y-17778021D01*
X31943075Y-17866261D01*
X32076991Y-17921730D01*
X32220700Y-17940650D01*
X32224927Y-17940093D01*
X32285086Y-17951238D01*
X32307859Y-17968241D01*
X34619904Y-20280286D01*
X34647681Y-20334803D01*
X34648900Y-20350290D01*
X34648900Y-20647310D01*
X34629993Y-20705501D01*
X34619903Y-20717314D01*
X34445120Y-20892096D01*
X34429269Y-20904969D01*
X34419332Y-20911461D01*
X34400548Y-20935595D01*
X34392437Y-20944780D01*
X34391627Y-20945589D01*
X34391619Y-20945598D01*
X34380133Y-20961686D01*
X34377690Y-20964963D01*
X34347482Y-21003774D01*
X34343981Y-21010243D01*
X34340759Y-21016834D01*
X34326718Y-21063996D01*
X34325470Y-21067890D01*
X34309500Y-21114410D01*
X34308293Y-21121643D01*
X34307383Y-21128947D01*
X34309415Y-21178075D01*
X34309500Y-21182166D01*
X34309500Y-22922496D01*
X34290593Y-22980687D01*
X34248385Y-23013960D01*
X34176978Y-23043537D01*
X34176974Y-23043539D01*
X34061981Y-23131777D01*
X34061977Y-23131781D01*
X33973739Y-23246774D01*
X33973737Y-23246778D01*
X33918270Y-23380690D01*
X33918269Y-23380691D01*
X33899350Y-23524399D01*
X33899350Y-23524400D01*
X33918269Y-23668106D01*
X33930236Y-23696997D01*
X33935035Y-23757993D01*
X33903065Y-23810162D01*
X33846537Y-23833576D01*
X33787042Y-23819292D01*
X33768767Y-23804885D01*
X29444801Y-19480919D01*
X29431925Y-19465062D01*
X29425437Y-19455131D01*
X29401308Y-19436351D01*
X29392119Y-19428237D01*
X29391307Y-19427425D01*
X29375225Y-19415943D01*
X29371961Y-19413510D01*
X29333126Y-19383283D01*
X29333124Y-19383282D01*
X29326677Y-19379793D01*
X29320070Y-19376563D01*
X29320066Y-19376560D01*
X29272909Y-19362520D01*
X29269015Y-19361272D01*
X29222487Y-19345299D01*
X29215260Y-19344093D01*
X29207955Y-19343183D01*
X29207954Y-19343183D01*
X29207952Y-19343183D01*
X29158824Y-19345215D01*
X29154733Y-19345300D01*
X29145764Y-19345300D01*
X29087573Y-19326393D01*
X29067223Y-19306569D01*
X29064623Y-19303181D01*
X29064621Y-19303180D01*
X29064621Y-19303179D01*
X28949625Y-19214939D01*
X28949621Y-19214937D01*
X28815709Y-19159470D01*
X28815708Y-19159469D01*
X28672000Y-19140550D01*
X28671995Y-19140550D01*
X28667763Y-19141107D01*
X28607603Y-19129955D01*
X28584840Y-19112958D01*
X26131337Y-16659455D01*
X23676603Y-14204721D01*
X23648828Y-14150207D01*
X23658399Y-14089775D01*
X23701664Y-14046510D01*
X23733686Y-14036567D01*
X23872209Y-14018330D01*
X24006125Y-13962861D01*
X24121121Y-13874621D01*
X24121885Y-13873624D01*
X24123723Y-13871231D01*
X24174149Y-13836576D01*
X24202264Y-13832500D01*
X27424610Y-13832500D01*
X27482801Y-13851407D01*
X27494614Y-13861496D01*
X29493858Y-15860740D01*
X29521635Y-15915257D01*
X29522007Y-15943663D01*
X29521450Y-15947894D01*
X29521450Y-15947900D01*
X29540369Y-16091608D01*
X29540370Y-16091609D01*
X29595839Y-16225525D01*
X29684079Y-16340521D01*
X29799075Y-16428761D01*
X29932991Y-16484230D01*
X30076700Y-16503150D01*
X30220409Y-16484230D01*
X30354325Y-16428761D01*
X30469321Y-16340521D01*
X30470085Y-16339524D01*
X30471923Y-16337131D01*
X30522349Y-16302476D01*
X30550464Y-16298400D01*
X32639710Y-16298400D01*
X32697901Y-16317307D01*
X32709714Y-16327396D01*
X33235658Y-16853340D01*
X33263435Y-16907857D01*
X33263807Y-16936263D01*
X33263250Y-16940494D01*
X33263250Y-16940500D01*
X33282169Y-17084208D01*
X33282170Y-17084209D01*
X33337639Y-17218125D01*
X33425879Y-17333121D01*
X33540875Y-17421361D01*
X33674791Y-17476830D01*
X33818500Y-17495750D01*
X33962209Y-17476830D01*
X34096125Y-17421361D01*
X34211121Y-17333121D01*
X34211885Y-17332124D01*
X34213723Y-17329731D01*
X34264149Y-17295076D01*
X34292264Y-17291000D01*
X51652410Y-17291000D01*
X51710601Y-17309907D01*
X51722414Y-17319996D01*
X54617299Y-20214881D01*
X54630174Y-20230737D01*
X54636663Y-20240669D01*
X54660790Y-20259448D01*
X54669977Y-20267560D01*
X54670789Y-20268371D01*
X54670793Y-20268375D01*
X54686894Y-20279870D01*
X54690155Y-20282303D01*
X54728974Y-20312517D01*
X54735423Y-20316007D01*
X54742030Y-20319237D01*
X54742033Y-20319239D01*
X54742035Y-20319239D01*
X54742036Y-20319240D01*
X54789158Y-20333269D01*
X54793053Y-20334516D01*
X54798140Y-20336262D01*
X54832646Y-20348108D01*
X54881542Y-20384882D01*
X54899500Y-20441743D01*
X54899500Y-20874672D01*
X54899501Y-20874684D01*
X54914033Y-20947736D01*
X54914035Y-20947742D01*
X54969397Y-21030599D01*
X54969399Y-21030601D01*
X55052260Y-21085966D01*
X55107808Y-21097015D01*
X55125315Y-21100498D01*
X55125320Y-21100498D01*
X55125326Y-21100500D01*
X55125327Y-21100500D01*
X56874673Y-21100500D01*
X56874674Y-21100500D01*
X56947740Y-21085966D01*
X57030601Y-21030601D01*
X57085966Y-20947740D01*
X57100500Y-20874674D01*
X57100500Y-19125326D01*
X57085966Y-19052260D01*
X57030601Y-18969399D01*
X57030599Y-18969397D01*
X56947742Y-18914035D01*
X56947740Y-18914034D01*
X56947737Y-18914033D01*
X56947736Y-18914033D01*
X56874684Y-18899501D01*
X56874674Y-18899500D01*
X55125326Y-18899500D01*
X55125325Y-18899500D01*
X55125315Y-18899501D01*
X55052263Y-18914033D01*
X55052257Y-18914035D01*
X54969400Y-18969397D01*
X54969397Y-18969400D01*
X54914035Y-19052257D01*
X54914033Y-19052263D01*
X54899501Y-19125315D01*
X54899500Y-19125327D01*
X54899500Y-19266710D01*
X54880593Y-19324901D01*
X54831093Y-19360865D01*
X54769907Y-19360865D01*
X54730496Y-19336714D01*
X52119401Y-16725619D01*
X52106525Y-16709762D01*
X52100037Y-16699831D01*
X52075908Y-16681051D01*
X52066719Y-16672937D01*
X52065907Y-16672125D01*
X52049825Y-16660643D01*
X52046561Y-16658210D01*
X52007726Y-16627983D01*
X52007724Y-16627982D01*
X52001277Y-16624493D01*
X51994670Y-16621263D01*
X51994666Y-16621260D01*
X51947509Y-16607220D01*
X51943615Y-16605972D01*
X51897087Y-16589999D01*
X51889860Y-16588793D01*
X51882555Y-16587883D01*
X51882554Y-16587883D01*
X51882552Y-16587883D01*
X51833424Y-16589915D01*
X51829333Y-16590000D01*
X34292264Y-16590000D01*
X34234073Y-16571093D01*
X34213723Y-16551269D01*
X34211123Y-16547881D01*
X34211121Y-16547880D01*
X34211121Y-16547879D01*
X34096125Y-16459639D01*
X34096121Y-16459637D01*
X33962209Y-16404170D01*
X33962208Y-16404169D01*
X33818500Y-16385250D01*
X33818495Y-16385250D01*
X33814263Y-16385807D01*
X33754103Y-16374655D01*
X33731340Y-16357658D01*
X33106701Y-15733019D01*
X33093825Y-15717162D01*
X33087337Y-15707231D01*
X33063208Y-15688451D01*
X33054019Y-15680337D01*
X33053207Y-15679525D01*
X33037125Y-15668043D01*
X33033861Y-15665610D01*
X32995026Y-15635383D01*
X32995024Y-15635382D01*
X32988577Y-15631893D01*
X32981970Y-15628663D01*
X32981966Y-15628660D01*
X32934809Y-15614620D01*
X32930915Y-15613372D01*
X32884387Y-15597399D01*
X32877160Y-15596193D01*
X32869855Y-15595283D01*
X32869854Y-15595283D01*
X32869852Y-15595283D01*
X32820724Y-15597315D01*
X32816633Y-15597400D01*
X30550464Y-15597400D01*
X30492273Y-15578493D01*
X30471923Y-15558669D01*
X30469323Y-15555281D01*
X30469321Y-15555280D01*
X30469321Y-15555279D01*
X30354325Y-15467039D01*
X30354321Y-15467037D01*
X30220409Y-15411570D01*
X30220408Y-15411569D01*
X30076700Y-15392650D01*
X30076695Y-15392650D01*
X30072463Y-15393207D01*
X30012303Y-15382055D01*
X29989540Y-15365058D01*
X27891601Y-13267119D01*
X27878725Y-13251262D01*
X27872237Y-13241331D01*
X27848108Y-13222551D01*
X27838919Y-13214437D01*
X27838107Y-13213625D01*
X27822025Y-13202143D01*
X27818761Y-13199710D01*
X27779926Y-13169483D01*
X27779924Y-13169482D01*
X27773477Y-13165993D01*
X27766870Y-13162763D01*
X27766866Y-13162760D01*
X27719709Y-13148720D01*
X27715815Y-13147472D01*
X27669287Y-13131499D01*
X27662060Y-13130293D01*
X27654755Y-13129383D01*
X27654754Y-13129383D01*
X27654752Y-13129383D01*
X27605624Y-13131415D01*
X27601533Y-13131500D01*
X24202264Y-13131500D01*
X24144073Y-13112593D01*
X24123723Y-13092769D01*
X24121123Y-13089381D01*
X24121121Y-13089380D01*
X24121121Y-13089379D01*
X24006125Y-13001139D01*
X24006121Y-13001137D01*
X23872209Y-12945670D01*
X23872208Y-12945669D01*
X23728500Y-12926750D01*
X23584791Y-12945669D01*
X23584790Y-12945670D01*
X23450878Y-13001137D01*
X23450874Y-13001139D01*
X23335881Y-13089377D01*
X23335877Y-13089381D01*
X23247639Y-13204374D01*
X23247637Y-13204378D01*
X23192170Y-13338290D01*
X23192170Y-13338291D01*
X23173932Y-13476812D01*
X23147590Y-13532037D01*
X23093819Y-13561231D01*
X23033157Y-13553244D01*
X23005775Y-13533893D01*
X18082001Y-8610119D01*
X18069125Y-8594262D01*
X18062637Y-8584331D01*
X18038508Y-8565551D01*
X18029319Y-8557437D01*
X18028507Y-8556625D01*
X18012425Y-8545143D01*
X18009161Y-8542710D01*
X17970326Y-8512483D01*
X17970324Y-8512482D01*
X17963877Y-8508993D01*
X17957270Y-8505763D01*
X17957266Y-8505760D01*
X17910109Y-8491720D01*
X17906215Y-8490472D01*
X17859687Y-8474499D01*
X17852460Y-8473293D01*
X17845155Y-8472383D01*
X17845154Y-8472383D01*
X17845152Y-8472383D01*
X17796024Y-8474415D01*
X17791933Y-8474500D01*
X16607464Y-8474500D01*
X16549273Y-8455593D01*
X16528923Y-8435769D01*
X16526323Y-8432381D01*
X16526321Y-8432380D01*
X16526321Y-8432379D01*
X16411325Y-8344139D01*
X16411321Y-8344137D01*
X16277409Y-8288670D01*
X16277408Y-8288669D01*
X16133700Y-8269750D01*
X15989991Y-8288669D01*
X15989990Y-8288670D01*
X15856078Y-8344137D01*
X15856074Y-8344139D01*
X15741081Y-8432377D01*
X15741077Y-8432381D01*
X15652839Y-8547374D01*
X15652837Y-8547378D01*
X15597370Y-8681290D01*
X15597369Y-8681291D01*
X15578450Y-8824999D01*
X15578450Y-8825000D01*
X15597369Y-8968708D01*
X15597370Y-8968709D01*
X15652839Y-9102625D01*
X15741079Y-9217621D01*
X15856075Y-9305861D01*
X15989991Y-9361330D01*
X16133700Y-9380250D01*
X16277409Y-9361330D01*
X16411325Y-9305861D01*
X16526321Y-9217621D01*
X16527085Y-9216624D01*
X16528923Y-9214231D01*
X16579349Y-9179576D01*
X16607464Y-9175500D01*
X17615010Y-9175500D01*
X17673201Y-9194407D01*
X17685014Y-9204496D01*
X28038077Y-19557558D01*
X28065854Y-19612075D01*
X28056283Y-19672507D01*
X28013018Y-19715772D01*
X28005959Y-19719026D01*
X27884975Y-19769138D01*
X27884974Y-19769139D01*
X27769976Y-19857381D01*
X27767377Y-19860769D01*
X27716951Y-19895424D01*
X27688836Y-19899500D01*
X25934690Y-19899500D01*
X25876499Y-19880593D01*
X25864686Y-19870504D01*
X16276341Y-10282159D01*
X16248564Y-10227642D01*
X16248193Y-10199229D01*
X16248750Y-10195000D01*
X16229830Y-10051291D01*
X16174361Y-9917375D01*
X16086121Y-9802379D01*
X15971125Y-9714139D01*
X15971121Y-9714137D01*
X15837209Y-9658670D01*
X15837208Y-9658669D01*
X15693500Y-9639750D01*
X15549791Y-9658669D01*
X15549790Y-9658670D01*
X15415878Y-9714137D01*
X15415874Y-9714139D01*
X15300881Y-9802377D01*
X15300877Y-9802381D01*
X15212639Y-9917374D01*
X15212637Y-9917378D01*
X15157170Y-10051290D01*
X15157169Y-10051291D01*
X15138250Y-10194999D01*
X15138250Y-10195000D01*
X400000Y-10195000D01*
X400000Y-3633433D01*
X1719500Y-3633433D01*
X1759272Y-3897304D01*
X1759274Y-3897314D01*
X1837930Y-4152311D01*
X1953717Y-4392744D01*
X2104047Y-4613240D01*
X2285553Y-4808857D01*
X2285559Y-4808863D01*
X2494187Y-4975237D01*
X2494196Y-4975244D01*
X2494200Y-4975246D01*
X2494201Y-4975247D01*
X2725291Y-5108667D01*
X2725295Y-5108669D01*
X2725304Y-5108674D01*
X2973717Y-5206169D01*
X3233886Y-5265551D01*
X3300381Y-5270534D01*
X3433363Y-5280500D01*
X3433371Y-5280500D01*
X3566637Y-5280500D01*
X3689389Y-5271300D01*
X3766114Y-5265551D01*
X4026283Y-5206169D01*
X4274696Y-5108674D01*
X4505804Y-4975244D01*
X4596276Y-4903094D01*
X4714440Y-4808863D01*
X4714446Y-4808857D01*
X4895952Y-4613240D01*
X4895951Y-4613240D01*
X4895955Y-4613237D01*
X5046282Y-4392747D01*
X5162069Y-4152314D01*
X5240727Y-3897310D01*
X5280500Y-3633433D01*
X54719500Y-3633433D01*
X54759272Y-3897304D01*
X54759274Y-3897314D01*
X54837930Y-4152311D01*
X54953717Y-4392744D01*
X55104047Y-4613240D01*
X55285553Y-4808857D01*
X55285559Y-4808863D01*
X55494187Y-4975237D01*
X55494196Y-4975244D01*
X55494200Y-4975246D01*
X55494201Y-4975247D01*
X55725291Y-5108667D01*
X55725295Y-5108669D01*
X55725304Y-5108674D01*
X55973717Y-5206169D01*
X56233886Y-5265551D01*
X56300381Y-5270534D01*
X56433363Y-5280500D01*
X56433371Y-5280500D01*
X56566637Y-5280500D01*
X56689389Y-5271300D01*
X56766114Y-5265551D01*
X57026283Y-5206169D01*
X57274696Y-5108674D01*
X57505804Y-4975244D01*
X57596276Y-4903094D01*
X57714440Y-4808863D01*
X57714446Y-4808857D01*
X57895952Y-4613240D01*
X57895951Y-4613240D01*
X57895955Y-4613237D01*
X58046282Y-4392747D01*
X58162069Y-4152314D01*
X58240727Y-3897310D01*
X58280500Y-3633430D01*
X58280500Y-3366570D01*
X58240727Y-3102690D01*
X58162069Y-2847686D01*
X58046282Y-2607254D01*
X57895955Y-2386763D01*
X57895953Y-2386761D01*
X57895952Y-2386759D01*
X57714446Y-2191142D01*
X57714440Y-2191136D01*
X57505812Y-2024762D01*
X57505798Y-2024752D01*
X57274708Y-1891332D01*
X57274699Y-1891327D01*
X57274696Y-1891326D01*
X57274692Y-1891324D01*
X57274689Y-1891323D01*
X57026285Y-1793831D01*
X56766118Y-1734450D01*
X56766109Y-1734448D01*
X56566637Y-1719500D01*
X56566629Y-1719500D01*
X56433371Y-1719500D01*
X56433363Y-1719500D01*
X56233890Y-1734448D01*
X56233881Y-1734450D01*
X55973714Y-1793831D01*
X55725310Y-1891323D01*
X55725291Y-1891332D01*
X55494201Y-2024752D01*
X55494187Y-2024762D01*
X55285559Y-2191136D01*
X55285553Y-2191142D01*
X55104047Y-2386759D01*
X54953717Y-2607254D01*
X54837931Y-2847686D01*
X54759274Y-3102685D01*
X54759272Y-3102695D01*
X54719500Y-3366566D01*
X54719500Y-3633433D01*
X5280500Y-3633433D01*
X5280500Y-3633430D01*
X5280500Y-3366570D01*
X5240727Y-3102690D01*
X5162069Y-2847686D01*
X5046282Y-2607254D01*
X4895955Y-2386763D01*
X4895953Y-2386761D01*
X4895952Y-2386759D01*
X4714446Y-2191142D01*
X4714440Y-2191136D01*
X4505812Y-2024762D01*
X4505798Y-2024752D01*
X4274708Y-1891332D01*
X4274699Y-1891327D01*
X4274696Y-1891326D01*
X4274692Y-1891324D01*
X4274689Y-1891323D01*
X4026285Y-1793831D01*
X3766118Y-1734450D01*
X3766109Y-1734448D01*
X3566637Y-1719500D01*
X3566629Y-1719500D01*
X3433371Y-1719500D01*
X3433363Y-1719500D01*
X3233890Y-1734448D01*
X3233881Y-1734450D01*
X2973714Y-1793831D01*
X2725310Y-1891323D01*
X2725291Y-1891332D01*
X2494201Y-2024752D01*
X2494187Y-2024762D01*
X2285559Y-2191136D01*
X2285553Y-2191142D01*
X2104047Y-2386759D01*
X1953717Y-2607254D01*
X1837931Y-2847686D01*
X1759274Y-3102685D01*
X1759272Y-3102695D01*
X1719500Y-3366566D01*
X1719500Y-3633433D01*
X400000Y-3633433D01*
X400000Y-499000D01*
X418907Y-440809D01*
X468407Y-404845D01*
X499000Y-400000D01*
X59501000Y-400000D01*
X59559191Y-418907D01*
G37*
%TD.AperFunction*%
%TD*%
M02*
