%TF.GenerationSoftware,KiCad,Pcbnew,7.0.11+dfsg-1build4*%
%TF.CreationDate,2026-10-10T06:03:42+00:00*%
%TF.ProjectId,spark_chip_board,73706172-6b5f-4636-9869-705f626f6172,rev?*%
%TF.SameCoordinates,Original*%
%TF.FileFunction,Legend,Top*%
%TF.FilePolarity,Positive*%
%FSLAX46Y46*%
G04 Gerber Fmt 4.6, Leading zero omitted, Abs format (unit mm)*
G04 Created by KiCad (PCBNEW 7.0.11+dfsg-1build4) date 2026-10-10 06:03:42*
%MOMM*%
%LPD*%
G01*
G04 APERTURE LIST*
%ADD10C,0.180000*%
%ADD11C,0.135000*%
%ADD12C,0.120000*%
%ADD13C,0.150000*%
G04 APERTURE END LIST*
D10*
X19657143Y-45088640D02*
X19828572Y-45145782D01*
X19828572Y-45145782D02*
X20114286Y-45145782D01*
X20114286Y-45145782D02*
X20228572Y-45088640D01*
X20228572Y-45088640D02*
X20285714Y-45031497D01*
X20285714Y-45031497D02*
X20342857Y-44917211D01*
X20342857Y-44917211D02*
X20342857Y-44802925D01*
X20342857Y-44802925D02*
X20285714Y-44688640D01*
X20285714Y-44688640D02*
X20228572Y-44631497D01*
X20228572Y-44631497D02*
X20114286Y-44574354D01*
X20114286Y-44574354D02*
X19885714Y-44517211D01*
X19885714Y-44517211D02*
X19771429Y-44460068D01*
X19771429Y-44460068D02*
X19714286Y-44402925D01*
X19714286Y-44402925D02*
X19657143Y-44288640D01*
X19657143Y-44288640D02*
X19657143Y-44174354D01*
X19657143Y-44174354D02*
X19714286Y-44060068D01*
X19714286Y-44060068D02*
X19771429Y-44002925D01*
X19771429Y-44002925D02*
X19885714Y-43945782D01*
X19885714Y-43945782D02*
X20171429Y-43945782D01*
X20171429Y-43945782D02*
X20342857Y-44002925D01*
X20857143Y-45145782D02*
X20857143Y-43945782D01*
X20857143Y-43945782D02*
X21314286Y-43945782D01*
X21314286Y-43945782D02*
X21428571Y-44002925D01*
X21428571Y-44002925D02*
X21485714Y-44060068D01*
X21485714Y-44060068D02*
X21542857Y-44174354D01*
X21542857Y-44174354D02*
X21542857Y-44345782D01*
X21542857Y-44345782D02*
X21485714Y-44460068D01*
X21485714Y-44460068D02*
X21428571Y-44517211D01*
X21428571Y-44517211D02*
X21314286Y-44574354D01*
X21314286Y-44574354D02*
X20857143Y-44574354D01*
X22000000Y-44802925D02*
X22571429Y-44802925D01*
X21885714Y-45145782D02*
X22285714Y-43945782D01*
X22285714Y-43945782D02*
X22685714Y-45145782D01*
X23771428Y-45145782D02*
X23371428Y-44574354D01*
X23085714Y-45145782D02*
X23085714Y-43945782D01*
X23085714Y-43945782D02*
X23542857Y-43945782D01*
X23542857Y-43945782D02*
X23657142Y-44002925D01*
X23657142Y-44002925D02*
X23714285Y-44060068D01*
X23714285Y-44060068D02*
X23771428Y-44174354D01*
X23771428Y-44174354D02*
X23771428Y-44345782D01*
X23771428Y-44345782D02*
X23714285Y-44460068D01*
X23714285Y-44460068D02*
X23657142Y-44517211D01*
X23657142Y-44517211D02*
X23542857Y-44574354D01*
X23542857Y-44574354D02*
X23085714Y-44574354D01*
X24285714Y-45145782D02*
X24285714Y-43945782D01*
X24971428Y-45145782D02*
X24457142Y-44460068D01*
X24971428Y-43945782D02*
X24285714Y-44631497D01*
X26914286Y-45088640D02*
X26800000Y-45145782D01*
X26800000Y-45145782D02*
X26571428Y-45145782D01*
X26571428Y-45145782D02*
X26457143Y-45088640D01*
X26457143Y-45088640D02*
X26400000Y-45031497D01*
X26400000Y-45031497D02*
X26342857Y-44917211D01*
X26342857Y-44917211D02*
X26342857Y-44574354D01*
X26342857Y-44574354D02*
X26400000Y-44460068D01*
X26400000Y-44460068D02*
X26457143Y-44402925D01*
X26457143Y-44402925D02*
X26571428Y-44345782D01*
X26571428Y-44345782D02*
X26800000Y-44345782D01*
X26800000Y-44345782D02*
X26914286Y-44402925D01*
X27428571Y-45145782D02*
X27428571Y-43945782D01*
X27942857Y-45145782D02*
X27942857Y-44517211D01*
X27942857Y-44517211D02*
X27885714Y-44402925D01*
X27885714Y-44402925D02*
X27771428Y-44345782D01*
X27771428Y-44345782D02*
X27599999Y-44345782D01*
X27599999Y-44345782D02*
X27485714Y-44402925D01*
X27485714Y-44402925D02*
X27428571Y-44460068D01*
X28514285Y-45145782D02*
X28514285Y-44345782D01*
X28514285Y-43945782D02*
X28457142Y-44002925D01*
X28457142Y-44002925D02*
X28514285Y-44060068D01*
X28514285Y-44060068D02*
X28571428Y-44002925D01*
X28571428Y-44002925D02*
X28514285Y-43945782D01*
X28514285Y-43945782D02*
X28514285Y-44060068D01*
X29085714Y-44345782D02*
X29085714Y-45545782D01*
X29085714Y-44402925D02*
X29200000Y-44345782D01*
X29200000Y-44345782D02*
X29428571Y-44345782D01*
X29428571Y-44345782D02*
X29542857Y-44402925D01*
X29542857Y-44402925D02*
X29600000Y-44460068D01*
X29600000Y-44460068D02*
X29657142Y-44574354D01*
X29657142Y-44574354D02*
X29657142Y-44917211D01*
X29657142Y-44917211D02*
X29600000Y-45031497D01*
X29600000Y-45031497D02*
X29542857Y-45088640D01*
X29542857Y-45088640D02*
X29428571Y-45145782D01*
X29428571Y-45145782D02*
X29200000Y-45145782D01*
X29200000Y-45145782D02*
X29085714Y-45088640D01*
X31085714Y-45145782D02*
X31085714Y-43945782D01*
X31085714Y-44402925D02*
X31200000Y-44345782D01*
X31200000Y-44345782D02*
X31428571Y-44345782D01*
X31428571Y-44345782D02*
X31542857Y-44402925D01*
X31542857Y-44402925D02*
X31600000Y-44460068D01*
X31600000Y-44460068D02*
X31657142Y-44574354D01*
X31657142Y-44574354D02*
X31657142Y-44917211D01*
X31657142Y-44917211D02*
X31600000Y-45031497D01*
X31600000Y-45031497D02*
X31542857Y-45088640D01*
X31542857Y-45088640D02*
X31428571Y-45145782D01*
X31428571Y-45145782D02*
X31200000Y-45145782D01*
X31200000Y-45145782D02*
X31085714Y-45088640D01*
X32342856Y-45145782D02*
X32228571Y-45088640D01*
X32228571Y-45088640D02*
X32171428Y-45031497D01*
X32171428Y-45031497D02*
X32114285Y-44917211D01*
X32114285Y-44917211D02*
X32114285Y-44574354D01*
X32114285Y-44574354D02*
X32171428Y-44460068D01*
X32171428Y-44460068D02*
X32228571Y-44402925D01*
X32228571Y-44402925D02*
X32342856Y-44345782D01*
X32342856Y-44345782D02*
X32514285Y-44345782D01*
X32514285Y-44345782D02*
X32628571Y-44402925D01*
X32628571Y-44402925D02*
X32685714Y-44460068D01*
X32685714Y-44460068D02*
X32742856Y-44574354D01*
X32742856Y-44574354D02*
X32742856Y-44917211D01*
X32742856Y-44917211D02*
X32685714Y-45031497D01*
X32685714Y-45031497D02*
X32628571Y-45088640D01*
X32628571Y-45088640D02*
X32514285Y-45145782D01*
X32514285Y-45145782D02*
X32342856Y-45145782D01*
X33771428Y-45145782D02*
X33771428Y-44517211D01*
X33771428Y-44517211D02*
X33714285Y-44402925D01*
X33714285Y-44402925D02*
X33599999Y-44345782D01*
X33599999Y-44345782D02*
X33371428Y-44345782D01*
X33371428Y-44345782D02*
X33257142Y-44402925D01*
X33771428Y-45088640D02*
X33657142Y-45145782D01*
X33657142Y-45145782D02*
X33371428Y-45145782D01*
X33371428Y-45145782D02*
X33257142Y-45088640D01*
X33257142Y-45088640D02*
X33199999Y-44974354D01*
X33199999Y-44974354D02*
X33199999Y-44860068D01*
X33199999Y-44860068D02*
X33257142Y-44745782D01*
X33257142Y-44745782D02*
X33371428Y-44688640D01*
X33371428Y-44688640D02*
X33657142Y-44688640D01*
X33657142Y-44688640D02*
X33771428Y-44631497D01*
X34342856Y-45145782D02*
X34342856Y-44345782D01*
X34342856Y-44574354D02*
X34399999Y-44460068D01*
X34399999Y-44460068D02*
X34457142Y-44402925D01*
X34457142Y-44402925D02*
X34571427Y-44345782D01*
X34571427Y-44345782D02*
X34685713Y-44345782D01*
X35599999Y-45145782D02*
X35599999Y-43945782D01*
X35599999Y-45088640D02*
X35485713Y-45145782D01*
X35485713Y-45145782D02*
X35257141Y-45145782D01*
X35257141Y-45145782D02*
X35142856Y-45088640D01*
X35142856Y-45088640D02*
X35085713Y-45031497D01*
X35085713Y-45031497D02*
X35028570Y-44917211D01*
X35028570Y-44917211D02*
X35028570Y-44574354D01*
X35028570Y-44574354D02*
X35085713Y-44460068D01*
X35085713Y-44460068D02*
X35142856Y-44402925D01*
X35142856Y-44402925D02*
X35257141Y-44345782D01*
X35257141Y-44345782D02*
X35485713Y-44345782D01*
X35485713Y-44345782D02*
X35599999Y-44402925D01*
X36971427Y-44345782D02*
X37257141Y-45145782D01*
X37257141Y-45145782D02*
X37542856Y-44345782D01*
X38228570Y-43945782D02*
X38342856Y-43945782D01*
X38342856Y-43945782D02*
X38457142Y-44002925D01*
X38457142Y-44002925D02*
X38514285Y-44060068D01*
X38514285Y-44060068D02*
X38571427Y-44174354D01*
X38571427Y-44174354D02*
X38628570Y-44402925D01*
X38628570Y-44402925D02*
X38628570Y-44688640D01*
X38628570Y-44688640D02*
X38571427Y-44917211D01*
X38571427Y-44917211D02*
X38514285Y-45031497D01*
X38514285Y-45031497D02*
X38457142Y-45088640D01*
X38457142Y-45088640D02*
X38342856Y-45145782D01*
X38342856Y-45145782D02*
X38228570Y-45145782D01*
X38228570Y-45145782D02*
X38114285Y-45088640D01*
X38114285Y-45088640D02*
X38057142Y-45031497D01*
X38057142Y-45031497D02*
X37999999Y-44917211D01*
X37999999Y-44917211D02*
X37942856Y-44688640D01*
X37942856Y-44688640D02*
X37942856Y-44402925D01*
X37942856Y-44402925D02*
X37999999Y-44174354D01*
X37999999Y-44174354D02*
X38057142Y-44060068D01*
X38057142Y-44060068D02*
X38114285Y-44002925D01*
X38114285Y-44002925D02*
X38228570Y-43945782D01*
X39142856Y-45031497D02*
X39199999Y-45088640D01*
X39199999Y-45088640D02*
X39142856Y-45145782D01*
X39142856Y-45145782D02*
X39085713Y-45088640D01*
X39085713Y-45088640D02*
X39142856Y-45031497D01*
X39142856Y-45031497D02*
X39142856Y-45145782D01*
X40342856Y-45145782D02*
X39657142Y-45145782D01*
X39999999Y-45145782D02*
X39999999Y-43945782D01*
X39999999Y-43945782D02*
X39885713Y-44117211D01*
X39885713Y-44117211D02*
X39771428Y-44231497D01*
X39771428Y-44231497D02*
X39657142Y-44288640D01*
D11*
X7357142Y-16009337D02*
X7357142Y-16737908D01*
X7357142Y-16737908D02*
X7399999Y-16823622D01*
X7399999Y-16823622D02*
X7442857Y-16866480D01*
X7442857Y-16866480D02*
X7528571Y-16909337D01*
X7528571Y-16909337D02*
X7699999Y-16909337D01*
X7699999Y-16909337D02*
X7785714Y-16866480D01*
X7785714Y-16866480D02*
X7828571Y-16823622D01*
X7828571Y-16823622D02*
X7871428Y-16737908D01*
X7871428Y-16737908D02*
X7871428Y-16009337D01*
X8257142Y-16866480D02*
X8385714Y-16909337D01*
X8385714Y-16909337D02*
X8599999Y-16909337D01*
X8599999Y-16909337D02*
X8685714Y-16866480D01*
X8685714Y-16866480D02*
X8728571Y-16823622D01*
X8728571Y-16823622D02*
X8771428Y-16737908D01*
X8771428Y-16737908D02*
X8771428Y-16652194D01*
X8771428Y-16652194D02*
X8728571Y-16566480D01*
X8728571Y-16566480D02*
X8685714Y-16523622D01*
X8685714Y-16523622D02*
X8599999Y-16480765D01*
X8599999Y-16480765D02*
X8428571Y-16437908D01*
X8428571Y-16437908D02*
X8342856Y-16395051D01*
X8342856Y-16395051D02*
X8299999Y-16352194D01*
X8299999Y-16352194D02*
X8257142Y-16266480D01*
X8257142Y-16266480D02*
X8257142Y-16180765D01*
X8257142Y-16180765D02*
X8299999Y-16095051D01*
X8299999Y-16095051D02*
X8342856Y-16052194D01*
X8342856Y-16052194D02*
X8428571Y-16009337D01*
X8428571Y-16009337D02*
X8642856Y-16009337D01*
X8642856Y-16009337D02*
X8771428Y-16052194D01*
X9457142Y-16437908D02*
X9585714Y-16480765D01*
X9585714Y-16480765D02*
X9628571Y-16523622D01*
X9628571Y-16523622D02*
X9671428Y-16609337D01*
X9671428Y-16609337D02*
X9671428Y-16737908D01*
X9671428Y-16737908D02*
X9628571Y-16823622D01*
X9628571Y-16823622D02*
X9585714Y-16866480D01*
X9585714Y-16866480D02*
X9499999Y-16909337D01*
X9499999Y-16909337D02*
X9157142Y-16909337D01*
X9157142Y-16909337D02*
X9157142Y-16009337D01*
X9157142Y-16009337D02*
X9457142Y-16009337D01*
X9457142Y-16009337D02*
X9542857Y-16052194D01*
X9542857Y-16052194D02*
X9585714Y-16095051D01*
X9585714Y-16095051D02*
X9628571Y-16180765D01*
X9628571Y-16180765D02*
X9628571Y-16266480D01*
X9628571Y-16266480D02*
X9585714Y-16352194D01*
X9585714Y-16352194D02*
X9542857Y-16395051D01*
X9542857Y-16395051D02*
X9457142Y-16437908D01*
X9457142Y-16437908D02*
X9157142Y-16437908D01*
X10057142Y-16566480D02*
X10742857Y-16566480D01*
X11685714Y-16823622D02*
X11642857Y-16866480D01*
X11642857Y-16866480D02*
X11514285Y-16909337D01*
X11514285Y-16909337D02*
X11428571Y-16909337D01*
X11428571Y-16909337D02*
X11300000Y-16866480D01*
X11300000Y-16866480D02*
X11214285Y-16780765D01*
X11214285Y-16780765D02*
X11171428Y-16695051D01*
X11171428Y-16695051D02*
X11128571Y-16523622D01*
X11128571Y-16523622D02*
X11128571Y-16395051D01*
X11128571Y-16395051D02*
X11171428Y-16223622D01*
X11171428Y-16223622D02*
X11214285Y-16137908D01*
X11214285Y-16137908D02*
X11300000Y-16052194D01*
X11300000Y-16052194D02*
X11428571Y-16009337D01*
X11428571Y-16009337D02*
X11514285Y-16009337D01*
X11514285Y-16009337D02*
X11642857Y-16052194D01*
X11642857Y-16052194D02*
X11685714Y-16095051D01*
D12*
X36657142Y-4325760D02*
X36771428Y-4363855D01*
X36771428Y-4363855D02*
X36961904Y-4363855D01*
X36961904Y-4363855D02*
X37038095Y-4325760D01*
X37038095Y-4325760D02*
X37076190Y-4287664D01*
X37076190Y-4287664D02*
X37114285Y-4211474D01*
X37114285Y-4211474D02*
X37114285Y-4135283D01*
X37114285Y-4135283D02*
X37076190Y-4059093D01*
X37076190Y-4059093D02*
X37038095Y-4020998D01*
X37038095Y-4020998D02*
X36961904Y-3982902D01*
X36961904Y-3982902D02*
X36809523Y-3944807D01*
X36809523Y-3944807D02*
X36733333Y-3906712D01*
X36733333Y-3906712D02*
X36695238Y-3868617D01*
X36695238Y-3868617D02*
X36657142Y-3792426D01*
X36657142Y-3792426D02*
X36657142Y-3716236D01*
X36657142Y-3716236D02*
X36695238Y-3640045D01*
X36695238Y-3640045D02*
X36733333Y-3601950D01*
X36733333Y-3601950D02*
X36809523Y-3563855D01*
X36809523Y-3563855D02*
X37000000Y-3563855D01*
X37000000Y-3563855D02*
X37114285Y-3601950D01*
X37457143Y-4363855D02*
X37457143Y-3563855D01*
X37914286Y-4363855D02*
X37571428Y-3906712D01*
X37914286Y-3563855D02*
X37457143Y-4020998D01*
X38409524Y-3982902D02*
X38409524Y-4363855D01*
X38142857Y-3563855D02*
X38409524Y-3982902D01*
X38409524Y-3982902D02*
X38676190Y-3563855D01*
X39361904Y-4363855D02*
X38904761Y-4363855D01*
X39133333Y-4363855D02*
X39133333Y-3563855D01*
X39133333Y-3563855D02*
X39057142Y-3678140D01*
X39057142Y-3678140D02*
X38980952Y-3754331D01*
X38980952Y-3754331D02*
X38904761Y-3792426D01*
X39628571Y-3563855D02*
X40123809Y-3563855D01*
X40123809Y-3563855D02*
X39857143Y-3868617D01*
X39857143Y-3868617D02*
X39971428Y-3868617D01*
X39971428Y-3868617D02*
X40047619Y-3906712D01*
X40047619Y-3906712D02*
X40085714Y-3944807D01*
X40085714Y-3944807D02*
X40123809Y-4020998D01*
X40123809Y-4020998D02*
X40123809Y-4211474D01*
X40123809Y-4211474D02*
X40085714Y-4287664D01*
X40085714Y-4287664D02*
X40047619Y-4325760D01*
X40047619Y-4325760D02*
X39971428Y-4363855D01*
X39971428Y-4363855D02*
X39742857Y-4363855D01*
X39742857Y-4363855D02*
X39666666Y-4325760D01*
X39666666Y-4325760D02*
X39628571Y-4287664D01*
X40619048Y-3563855D02*
X40695238Y-3563855D01*
X40695238Y-3563855D02*
X40771429Y-3601950D01*
X40771429Y-3601950D02*
X40809524Y-3640045D01*
X40809524Y-3640045D02*
X40847619Y-3716236D01*
X40847619Y-3716236D02*
X40885714Y-3868617D01*
X40885714Y-3868617D02*
X40885714Y-4059093D01*
X40885714Y-4059093D02*
X40847619Y-4211474D01*
X40847619Y-4211474D02*
X40809524Y-4287664D01*
X40809524Y-4287664D02*
X40771429Y-4325760D01*
X40771429Y-4325760D02*
X40695238Y-4363855D01*
X40695238Y-4363855D02*
X40619048Y-4363855D01*
X40619048Y-4363855D02*
X40542857Y-4325760D01*
X40542857Y-4325760D02*
X40504762Y-4287664D01*
X40504762Y-4287664D02*
X40466667Y-4211474D01*
X40466667Y-4211474D02*
X40428571Y-4059093D01*
X40428571Y-4059093D02*
X40428571Y-3868617D01*
X40428571Y-3868617D02*
X40466667Y-3716236D01*
X40466667Y-3716236D02*
X40504762Y-3640045D01*
X40504762Y-3640045D02*
X40542857Y-3601950D01*
X40542857Y-3601950D02*
X40619048Y-3563855D01*
X41800000Y-4325760D02*
X41914286Y-4363855D01*
X41914286Y-4363855D02*
X42104762Y-4363855D01*
X42104762Y-4363855D02*
X42180953Y-4325760D01*
X42180953Y-4325760D02*
X42219048Y-4287664D01*
X42219048Y-4287664D02*
X42257143Y-4211474D01*
X42257143Y-4211474D02*
X42257143Y-4135283D01*
X42257143Y-4135283D02*
X42219048Y-4059093D01*
X42219048Y-4059093D02*
X42180953Y-4020998D01*
X42180953Y-4020998D02*
X42104762Y-3982902D01*
X42104762Y-3982902D02*
X41952381Y-3944807D01*
X41952381Y-3944807D02*
X41876191Y-3906712D01*
X41876191Y-3906712D02*
X41838096Y-3868617D01*
X41838096Y-3868617D02*
X41800000Y-3792426D01*
X41800000Y-3792426D02*
X41800000Y-3716236D01*
X41800000Y-3716236D02*
X41838096Y-3640045D01*
X41838096Y-3640045D02*
X41876191Y-3601950D01*
X41876191Y-3601950D02*
X41952381Y-3563855D01*
X41952381Y-3563855D02*
X42142858Y-3563855D01*
X42142858Y-3563855D02*
X42257143Y-3601950D01*
X42600001Y-4363855D02*
X42600001Y-3563855D01*
X42600001Y-3563855D02*
X42904763Y-3563855D01*
X42904763Y-3563855D02*
X42980953Y-3601950D01*
X42980953Y-3601950D02*
X43019048Y-3640045D01*
X43019048Y-3640045D02*
X43057144Y-3716236D01*
X43057144Y-3716236D02*
X43057144Y-3830521D01*
X43057144Y-3830521D02*
X43019048Y-3906712D01*
X43019048Y-3906712D02*
X42980953Y-3944807D01*
X42980953Y-3944807D02*
X42904763Y-3982902D01*
X42904763Y-3982902D02*
X42600001Y-3982902D01*
X43361905Y-4135283D02*
X43742858Y-4135283D01*
X43285715Y-4363855D02*
X43552382Y-3563855D01*
X43552382Y-3563855D02*
X43819048Y-4363855D01*
X44542858Y-4363855D02*
X44276191Y-3982902D01*
X44085715Y-4363855D02*
X44085715Y-3563855D01*
X44085715Y-3563855D02*
X44390477Y-3563855D01*
X44390477Y-3563855D02*
X44466667Y-3601950D01*
X44466667Y-3601950D02*
X44504762Y-3640045D01*
X44504762Y-3640045D02*
X44542858Y-3716236D01*
X44542858Y-3716236D02*
X44542858Y-3830521D01*
X44542858Y-3830521D02*
X44504762Y-3906712D01*
X44504762Y-3906712D02*
X44466667Y-3944807D01*
X44466667Y-3944807D02*
X44390477Y-3982902D01*
X44390477Y-3982902D02*
X44085715Y-3982902D01*
X44885715Y-4363855D02*
X44885715Y-3563855D01*
X45342858Y-4363855D02*
X45000000Y-3906712D01*
X45342858Y-3563855D02*
X44885715Y-4020998D01*
D13*
X30357142Y-36134819D02*
X30023809Y-35658628D01*
X29785714Y-36134819D02*
X29785714Y-35134819D01*
X29785714Y-35134819D02*
X30166666Y-35134819D01*
X30166666Y-35134819D02*
X30261904Y-35182438D01*
X30261904Y-35182438D02*
X30309523Y-35230057D01*
X30309523Y-35230057D02*
X30357142Y-35325295D01*
X30357142Y-35325295D02*
X30357142Y-35468152D01*
X30357142Y-35468152D02*
X30309523Y-35563390D01*
X30309523Y-35563390D02*
X30261904Y-35611009D01*
X30261904Y-35611009D02*
X30166666Y-35658628D01*
X30166666Y-35658628D02*
X29785714Y-35658628D01*
X30738095Y-36087200D02*
X30880952Y-36134819D01*
X30880952Y-36134819D02*
X31119047Y-36134819D01*
X31119047Y-36134819D02*
X31214285Y-36087200D01*
X31214285Y-36087200D02*
X31261904Y-36039580D01*
X31261904Y-36039580D02*
X31309523Y-35944342D01*
X31309523Y-35944342D02*
X31309523Y-35849104D01*
X31309523Y-35849104D02*
X31261904Y-35753866D01*
X31261904Y-35753866D02*
X31214285Y-35706247D01*
X31214285Y-35706247D02*
X31119047Y-35658628D01*
X31119047Y-35658628D02*
X30928571Y-35611009D01*
X30928571Y-35611009D02*
X30833333Y-35563390D01*
X30833333Y-35563390D02*
X30785714Y-35515771D01*
X30785714Y-35515771D02*
X30738095Y-35420533D01*
X30738095Y-35420533D02*
X30738095Y-35325295D01*
X30738095Y-35325295D02*
X30785714Y-35230057D01*
X30785714Y-35230057D02*
X30833333Y-35182438D01*
X30833333Y-35182438D02*
X30928571Y-35134819D01*
X30928571Y-35134819D02*
X31166666Y-35134819D01*
X31166666Y-35134819D02*
X31309523Y-35182438D01*
X32261904Y-36134819D02*
X31690476Y-36134819D01*
X31976190Y-36134819D02*
X31976190Y-35134819D01*
X31976190Y-35134819D02*
X31880952Y-35277676D01*
X31880952Y-35277676D02*
X31785714Y-35372914D01*
X31785714Y-35372914D02*
X31690476Y-35420533D01*
X11238095Y-34554819D02*
X11238095Y-35364342D01*
X11238095Y-35364342D02*
X11285714Y-35459580D01*
X11285714Y-35459580D02*
X11333333Y-35507200D01*
X11333333Y-35507200D02*
X11428571Y-35554819D01*
X11428571Y-35554819D02*
X11619047Y-35554819D01*
X11619047Y-35554819D02*
X11714285Y-35507200D01*
X11714285Y-35507200D02*
X11761904Y-35459580D01*
X11761904Y-35459580D02*
X11809523Y-35364342D01*
X11809523Y-35364342D02*
X11809523Y-34554819D01*
X12190476Y-34554819D02*
X12809523Y-34554819D01*
X12809523Y-34554819D02*
X12476190Y-34935771D01*
X12476190Y-34935771D02*
X12619047Y-34935771D01*
X12619047Y-34935771D02*
X12714285Y-34983390D01*
X12714285Y-34983390D02*
X12761904Y-35031009D01*
X12761904Y-35031009D02*
X12809523Y-35126247D01*
X12809523Y-35126247D02*
X12809523Y-35364342D01*
X12809523Y-35364342D02*
X12761904Y-35459580D01*
X12761904Y-35459580D02*
X12714285Y-35507200D01*
X12714285Y-35507200D02*
X12619047Y-35554819D01*
X12619047Y-35554819D02*
X12333333Y-35554819D01*
X12333333Y-35554819D02*
X12238095Y-35507200D01*
X12238095Y-35507200D02*
X12190476Y-35459580D01*
X9524819Y-29166666D02*
X9048628Y-29499999D01*
X9524819Y-29738094D02*
X8524819Y-29738094D01*
X8524819Y-29738094D02*
X8524819Y-29357142D01*
X8524819Y-29357142D02*
X8572438Y-29261904D01*
X8572438Y-29261904D02*
X8620057Y-29214285D01*
X8620057Y-29214285D02*
X8715295Y-29166666D01*
X8715295Y-29166666D02*
X8858152Y-29166666D01*
X8858152Y-29166666D02*
X8953390Y-29214285D01*
X8953390Y-29214285D02*
X9001009Y-29261904D01*
X9001009Y-29261904D02*
X9048628Y-29357142D01*
X9048628Y-29357142D02*
X9048628Y-29738094D01*
X9524819Y-28214285D02*
X9524819Y-28785713D01*
X9524819Y-28499999D02*
X8524819Y-28499999D01*
X8524819Y-28499999D02*
X8667676Y-28595237D01*
X8667676Y-28595237D02*
X8762914Y-28690475D01*
X8762914Y-28690475D02*
X8810533Y-28785713D01*
X24429580Y-26142857D02*
X24477200Y-26190476D01*
X24477200Y-26190476D02*
X24524819Y-26333333D01*
X24524819Y-26333333D02*
X24524819Y-26428571D01*
X24524819Y-26428571D02*
X24477200Y-26571428D01*
X24477200Y-26571428D02*
X24381961Y-26666666D01*
X24381961Y-26666666D02*
X24286723Y-26714285D01*
X24286723Y-26714285D02*
X24096247Y-26761904D01*
X24096247Y-26761904D02*
X23953390Y-26761904D01*
X23953390Y-26761904D02*
X23762914Y-26714285D01*
X23762914Y-26714285D02*
X23667676Y-26666666D01*
X23667676Y-26666666D02*
X23572438Y-26571428D01*
X23572438Y-26571428D02*
X23524819Y-26428571D01*
X23524819Y-26428571D02*
X23524819Y-26333333D01*
X23524819Y-26333333D02*
X23572438Y-26190476D01*
X23572438Y-26190476D02*
X23620057Y-26142857D01*
X24524819Y-25190476D02*
X24524819Y-25761904D01*
X24524819Y-25476190D02*
X23524819Y-25476190D01*
X23524819Y-25476190D02*
X23667676Y-25571428D01*
X23667676Y-25571428D02*
X23762914Y-25666666D01*
X23762914Y-25666666D02*
X23810533Y-25761904D01*
X23620057Y-24809523D02*
X23572438Y-24761904D01*
X23572438Y-24761904D02*
X23524819Y-24666666D01*
X23524819Y-24666666D02*
X23524819Y-24428571D01*
X23524819Y-24428571D02*
X23572438Y-24333333D01*
X23572438Y-24333333D02*
X23620057Y-24285714D01*
X23620057Y-24285714D02*
X23715295Y-24238095D01*
X23715295Y-24238095D02*
X23810533Y-24238095D01*
X23810533Y-24238095D02*
X23953390Y-24285714D01*
X23953390Y-24285714D02*
X24524819Y-24857142D01*
X24524819Y-24857142D02*
X24524819Y-24238095D01*
X49833333Y-7024819D02*
X49500000Y-6548628D01*
X49261905Y-7024819D02*
X49261905Y-6024819D01*
X49261905Y-6024819D02*
X49642857Y-6024819D01*
X49642857Y-6024819D02*
X49738095Y-6072438D01*
X49738095Y-6072438D02*
X49785714Y-6120057D01*
X49785714Y-6120057D02*
X49833333Y-6215295D01*
X49833333Y-6215295D02*
X49833333Y-6358152D01*
X49833333Y-6358152D02*
X49785714Y-6453390D01*
X49785714Y-6453390D02*
X49738095Y-6501009D01*
X49738095Y-6501009D02*
X49642857Y-6548628D01*
X49642857Y-6548628D02*
X49261905Y-6548628D01*
X50166667Y-6024819D02*
X50833333Y-6024819D01*
X50833333Y-6024819D02*
X50404762Y-7024819D01*
X20524819Y-11666666D02*
X20048628Y-11999999D01*
X20524819Y-12238094D02*
X19524819Y-12238094D01*
X19524819Y-12238094D02*
X19524819Y-11857142D01*
X19524819Y-11857142D02*
X19572438Y-11761904D01*
X19572438Y-11761904D02*
X19620057Y-11714285D01*
X19620057Y-11714285D02*
X19715295Y-11666666D01*
X19715295Y-11666666D02*
X19858152Y-11666666D01*
X19858152Y-11666666D02*
X19953390Y-11714285D01*
X19953390Y-11714285D02*
X20001009Y-11761904D01*
X20001009Y-11761904D02*
X20048628Y-11857142D01*
X20048628Y-11857142D02*
X20048628Y-12238094D01*
X19524819Y-10809523D02*
X19524819Y-10999999D01*
X19524819Y-10999999D02*
X19572438Y-11095237D01*
X19572438Y-11095237D02*
X19620057Y-11142856D01*
X19620057Y-11142856D02*
X19762914Y-11238094D01*
X19762914Y-11238094D02*
X19953390Y-11285713D01*
X19953390Y-11285713D02*
X20334342Y-11285713D01*
X20334342Y-11285713D02*
X20429580Y-11238094D01*
X20429580Y-11238094D02*
X20477200Y-11190475D01*
X20477200Y-11190475D02*
X20524819Y-11095237D01*
X20524819Y-11095237D02*
X20524819Y-10904761D01*
X20524819Y-10904761D02*
X20477200Y-10809523D01*
X20477200Y-10809523D02*
X20429580Y-10761904D01*
X20429580Y-10761904D02*
X20334342Y-10714285D01*
X20334342Y-10714285D02*
X20096247Y-10714285D01*
X20096247Y-10714285D02*
X20001009Y-10761904D01*
X20001009Y-10761904D02*
X19953390Y-10809523D01*
X19953390Y-10809523D02*
X19905771Y-10904761D01*
X19905771Y-10904761D02*
X19905771Y-11095237D01*
X19905771Y-11095237D02*
X19953390Y-11190475D01*
X19953390Y-11190475D02*
X20001009Y-11238094D01*
X20001009Y-11238094D02*
X20096247Y-11285713D01*
X19833333Y-39929580D02*
X19785714Y-39977200D01*
X19785714Y-39977200D02*
X19642857Y-40024819D01*
X19642857Y-40024819D02*
X19547619Y-40024819D01*
X19547619Y-40024819D02*
X19404762Y-39977200D01*
X19404762Y-39977200D02*
X19309524Y-39881961D01*
X19309524Y-39881961D02*
X19261905Y-39786723D01*
X19261905Y-39786723D02*
X19214286Y-39596247D01*
X19214286Y-39596247D02*
X19214286Y-39453390D01*
X19214286Y-39453390D02*
X19261905Y-39262914D01*
X19261905Y-39262914D02*
X19309524Y-39167676D01*
X19309524Y-39167676D02*
X19404762Y-39072438D01*
X19404762Y-39072438D02*
X19547619Y-39024819D01*
X19547619Y-39024819D02*
X19642857Y-39024819D01*
X19642857Y-39024819D02*
X19785714Y-39072438D01*
X19785714Y-39072438D02*
X19833333Y-39120057D01*
X20690476Y-39358152D02*
X20690476Y-40024819D01*
X20452381Y-38977200D02*
X20214286Y-39691485D01*
X20214286Y-39691485D02*
X20833333Y-39691485D01*
X51166666Y-27124819D02*
X51166666Y-27839104D01*
X51166666Y-27839104D02*
X51119047Y-27981961D01*
X51119047Y-27981961D02*
X51023809Y-28077200D01*
X51023809Y-28077200D02*
X50880952Y-28124819D01*
X50880952Y-28124819D02*
X50785714Y-28124819D01*
X51547619Y-27124819D02*
X52166666Y-27124819D01*
X52166666Y-27124819D02*
X51833333Y-27505771D01*
X51833333Y-27505771D02*
X51976190Y-27505771D01*
X51976190Y-27505771D02*
X52071428Y-27553390D01*
X52071428Y-27553390D02*
X52119047Y-27601009D01*
X52119047Y-27601009D02*
X52166666Y-27696247D01*
X52166666Y-27696247D02*
X52166666Y-27934342D01*
X52166666Y-27934342D02*
X52119047Y-28029580D01*
X52119047Y-28029580D02*
X52071428Y-28077200D01*
X52071428Y-28077200D02*
X51976190Y-28124819D01*
X51976190Y-28124819D02*
X51690476Y-28124819D01*
X51690476Y-28124819D02*
X51595238Y-28077200D01*
X51595238Y-28077200D02*
X51547619Y-28029580D01*
X34857142Y-12929580D02*
X34809523Y-12977200D01*
X34809523Y-12977200D02*
X34666666Y-13024819D01*
X34666666Y-13024819D02*
X34571428Y-13024819D01*
X34571428Y-13024819D02*
X34428571Y-12977200D01*
X34428571Y-12977200D02*
X34333333Y-12881961D01*
X34333333Y-12881961D02*
X34285714Y-12786723D01*
X34285714Y-12786723D02*
X34238095Y-12596247D01*
X34238095Y-12596247D02*
X34238095Y-12453390D01*
X34238095Y-12453390D02*
X34285714Y-12262914D01*
X34285714Y-12262914D02*
X34333333Y-12167676D01*
X34333333Y-12167676D02*
X34428571Y-12072438D01*
X34428571Y-12072438D02*
X34571428Y-12024819D01*
X34571428Y-12024819D02*
X34666666Y-12024819D01*
X34666666Y-12024819D02*
X34809523Y-12072438D01*
X34809523Y-12072438D02*
X34857142Y-12120057D01*
X35809523Y-13024819D02*
X35238095Y-13024819D01*
X35523809Y-13024819D02*
X35523809Y-12024819D01*
X35523809Y-12024819D02*
X35428571Y-12167676D01*
X35428571Y-12167676D02*
X35333333Y-12262914D01*
X35333333Y-12262914D02*
X35238095Y-12310533D01*
X36428571Y-12024819D02*
X36523809Y-12024819D01*
X36523809Y-12024819D02*
X36619047Y-12072438D01*
X36619047Y-12072438D02*
X36666666Y-12120057D01*
X36666666Y-12120057D02*
X36714285Y-12215295D01*
X36714285Y-12215295D02*
X36761904Y-12405771D01*
X36761904Y-12405771D02*
X36761904Y-12643866D01*
X36761904Y-12643866D02*
X36714285Y-12834342D01*
X36714285Y-12834342D02*
X36666666Y-12929580D01*
X36666666Y-12929580D02*
X36619047Y-12977200D01*
X36619047Y-12977200D02*
X36523809Y-13024819D01*
X36523809Y-13024819D02*
X36428571Y-13024819D01*
X36428571Y-13024819D02*
X36333333Y-12977200D01*
X36333333Y-12977200D02*
X36285714Y-12929580D01*
X36285714Y-12929580D02*
X36238095Y-12834342D01*
X36238095Y-12834342D02*
X36190476Y-12643866D01*
X36190476Y-12643866D02*
X36190476Y-12405771D01*
X36190476Y-12405771D02*
X36238095Y-12215295D01*
X36238095Y-12215295D02*
X36285714Y-12120057D01*
X36285714Y-12120057D02*
X36333333Y-12072438D01*
X36333333Y-12072438D02*
X36428571Y-12024819D01*
X49833333Y-10024819D02*
X49500000Y-9548628D01*
X49261905Y-10024819D02*
X49261905Y-9024819D01*
X49261905Y-9024819D02*
X49642857Y-9024819D01*
X49642857Y-9024819D02*
X49738095Y-9072438D01*
X49738095Y-9072438D02*
X49785714Y-9120057D01*
X49785714Y-9120057D02*
X49833333Y-9215295D01*
X49833333Y-9215295D02*
X49833333Y-9358152D01*
X49833333Y-9358152D02*
X49785714Y-9453390D01*
X49785714Y-9453390D02*
X49738095Y-9501009D01*
X49738095Y-9501009D02*
X49642857Y-9548628D01*
X49642857Y-9548628D02*
X49261905Y-9548628D01*
X50404762Y-9453390D02*
X50309524Y-9405771D01*
X50309524Y-9405771D02*
X50261905Y-9358152D01*
X50261905Y-9358152D02*
X50214286Y-9262914D01*
X50214286Y-9262914D02*
X50214286Y-9215295D01*
X50214286Y-9215295D02*
X50261905Y-9120057D01*
X50261905Y-9120057D02*
X50309524Y-9072438D01*
X50309524Y-9072438D02*
X50404762Y-9024819D01*
X50404762Y-9024819D02*
X50595238Y-9024819D01*
X50595238Y-9024819D02*
X50690476Y-9072438D01*
X50690476Y-9072438D02*
X50738095Y-9120057D01*
X50738095Y-9120057D02*
X50785714Y-9215295D01*
X50785714Y-9215295D02*
X50785714Y-9262914D01*
X50785714Y-9262914D02*
X50738095Y-9358152D01*
X50738095Y-9358152D02*
X50690476Y-9405771D01*
X50690476Y-9405771D02*
X50595238Y-9453390D01*
X50595238Y-9453390D02*
X50404762Y-9453390D01*
X50404762Y-9453390D02*
X50309524Y-9501009D01*
X50309524Y-9501009D02*
X50261905Y-9548628D01*
X50261905Y-9548628D02*
X50214286Y-9643866D01*
X50214286Y-9643866D02*
X50214286Y-9834342D01*
X50214286Y-9834342D02*
X50261905Y-9929580D01*
X50261905Y-9929580D02*
X50309524Y-9977200D01*
X50309524Y-9977200D02*
X50404762Y-10024819D01*
X50404762Y-10024819D02*
X50595238Y-10024819D01*
X50595238Y-10024819D02*
X50690476Y-9977200D01*
X50690476Y-9977200D02*
X50738095Y-9929580D01*
X50738095Y-9929580D02*
X50785714Y-9834342D01*
X50785714Y-9834342D02*
X50785714Y-9643866D01*
X50785714Y-9643866D02*
X50738095Y-9548628D01*
X50738095Y-9548628D02*
X50690476Y-9501009D01*
X50690476Y-9501009D02*
X50595238Y-9453390D01*
X44738095Y-30806819D02*
X45309523Y-30806819D01*
X45023809Y-31806819D02*
X45023809Y-30806819D01*
X45642857Y-31806819D02*
X45642857Y-30806819D01*
X45642857Y-30806819D02*
X46023809Y-30806819D01*
X46023809Y-30806819D02*
X46119047Y-30854438D01*
X46119047Y-30854438D02*
X46166666Y-30902057D01*
X46166666Y-30902057D02*
X46214285Y-30997295D01*
X46214285Y-30997295D02*
X46214285Y-31140152D01*
X46214285Y-31140152D02*
X46166666Y-31235390D01*
X46166666Y-31235390D02*
X46119047Y-31283009D01*
X46119047Y-31283009D02*
X46023809Y-31330628D01*
X46023809Y-31330628D02*
X45642857Y-31330628D01*
X46547619Y-30806819D02*
X47166666Y-30806819D01*
X47166666Y-30806819D02*
X46833333Y-31187771D01*
X46833333Y-31187771D02*
X46976190Y-31187771D01*
X46976190Y-31187771D02*
X47071428Y-31235390D01*
X47071428Y-31235390D02*
X47119047Y-31283009D01*
X47119047Y-31283009D02*
X47166666Y-31378247D01*
X47166666Y-31378247D02*
X47166666Y-31616342D01*
X47166666Y-31616342D02*
X47119047Y-31711580D01*
X47119047Y-31711580D02*
X47071428Y-31759200D01*
X47071428Y-31759200D02*
X46976190Y-31806819D01*
X46976190Y-31806819D02*
X46690476Y-31806819D01*
X46690476Y-31806819D02*
X46595238Y-31759200D01*
X46595238Y-31759200D02*
X46547619Y-31711580D01*
X19738095Y-28806819D02*
X20309523Y-28806819D01*
X20023809Y-29806819D02*
X20023809Y-28806819D01*
X20642857Y-29806819D02*
X20642857Y-28806819D01*
X20642857Y-28806819D02*
X21023809Y-28806819D01*
X21023809Y-28806819D02*
X21119047Y-28854438D01*
X21119047Y-28854438D02*
X21166666Y-28902057D01*
X21166666Y-28902057D02*
X21214285Y-28997295D01*
X21214285Y-28997295D02*
X21214285Y-29140152D01*
X21214285Y-29140152D02*
X21166666Y-29235390D01*
X21166666Y-29235390D02*
X21119047Y-29283009D01*
X21119047Y-29283009D02*
X21023809Y-29330628D01*
X21023809Y-29330628D02*
X20642857Y-29330628D01*
X21595238Y-28902057D02*
X21642857Y-28854438D01*
X21642857Y-28854438D02*
X21738095Y-28806819D01*
X21738095Y-28806819D02*
X21976190Y-28806819D01*
X21976190Y-28806819D02*
X22071428Y-28854438D01*
X22071428Y-28854438D02*
X22119047Y-28902057D01*
X22119047Y-28902057D02*
X22166666Y-28997295D01*
X22166666Y-28997295D02*
X22166666Y-29092533D01*
X22166666Y-29092533D02*
X22119047Y-29235390D01*
X22119047Y-29235390D02*
X21547619Y-29806819D01*
X21547619Y-29806819D02*
X22166666Y-29806819D01*
X33738095Y-30806819D02*
X34309523Y-30806819D01*
X34023809Y-31806819D02*
X34023809Y-30806819D01*
X34642857Y-31806819D02*
X34642857Y-30806819D01*
X34642857Y-30806819D02*
X35023809Y-30806819D01*
X35023809Y-30806819D02*
X35119047Y-30854438D01*
X35119047Y-30854438D02*
X35166666Y-30902057D01*
X35166666Y-30902057D02*
X35214285Y-30997295D01*
X35214285Y-30997295D02*
X35214285Y-31140152D01*
X35214285Y-31140152D02*
X35166666Y-31235390D01*
X35166666Y-31235390D02*
X35119047Y-31283009D01*
X35119047Y-31283009D02*
X35023809Y-31330628D01*
X35023809Y-31330628D02*
X34642857Y-31330628D01*
X36166666Y-31806819D02*
X35595238Y-31806819D01*
X35880952Y-31806819D02*
X35880952Y-30806819D01*
X35880952Y-30806819D02*
X35785714Y-30949676D01*
X35785714Y-30949676D02*
X35690476Y-31044914D01*
X35690476Y-31044914D02*
X35595238Y-31092533D01*
X30357142Y-30179580D02*
X30309523Y-30227200D01*
X30309523Y-30227200D02*
X30166666Y-30274819D01*
X30166666Y-30274819D02*
X30071428Y-30274819D01*
X30071428Y-30274819D02*
X29928571Y-30227200D01*
X29928571Y-30227200D02*
X29833333Y-30131961D01*
X29833333Y-30131961D02*
X29785714Y-30036723D01*
X29785714Y-30036723D02*
X29738095Y-29846247D01*
X29738095Y-29846247D02*
X29738095Y-29703390D01*
X29738095Y-29703390D02*
X29785714Y-29512914D01*
X29785714Y-29512914D02*
X29833333Y-29417676D01*
X29833333Y-29417676D02*
X29928571Y-29322438D01*
X29928571Y-29322438D02*
X30071428Y-29274819D01*
X30071428Y-29274819D02*
X30166666Y-29274819D01*
X30166666Y-29274819D02*
X30309523Y-29322438D01*
X30309523Y-29322438D02*
X30357142Y-29370057D01*
X31309523Y-30274819D02*
X30738095Y-30274819D01*
X31023809Y-30274819D02*
X31023809Y-29274819D01*
X31023809Y-29274819D02*
X30928571Y-29417676D01*
X30928571Y-29417676D02*
X30833333Y-29512914D01*
X30833333Y-29512914D02*
X30738095Y-29560533D01*
X32261904Y-30274819D02*
X31690476Y-30274819D01*
X31976190Y-30274819D02*
X31976190Y-29274819D01*
X31976190Y-29274819D02*
X31880952Y-29417676D01*
X31880952Y-29417676D02*
X31785714Y-29512914D01*
X31785714Y-29512914D02*
X31690476Y-29560533D01*
X24929580Y-17166666D02*
X24977200Y-17214285D01*
X24977200Y-17214285D02*
X25024819Y-17357142D01*
X25024819Y-17357142D02*
X25024819Y-17452380D01*
X25024819Y-17452380D02*
X24977200Y-17595237D01*
X24977200Y-17595237D02*
X24881961Y-17690475D01*
X24881961Y-17690475D02*
X24786723Y-17738094D01*
X24786723Y-17738094D02*
X24596247Y-17785713D01*
X24596247Y-17785713D02*
X24453390Y-17785713D01*
X24453390Y-17785713D02*
X24262914Y-17738094D01*
X24262914Y-17738094D02*
X24167676Y-17690475D01*
X24167676Y-17690475D02*
X24072438Y-17595237D01*
X24072438Y-17595237D02*
X24024819Y-17452380D01*
X24024819Y-17452380D02*
X24024819Y-17357142D01*
X24024819Y-17357142D02*
X24072438Y-17214285D01*
X24072438Y-17214285D02*
X24120057Y-17166666D01*
X24024819Y-16833332D02*
X24024819Y-16166666D01*
X24024819Y-16166666D02*
X25024819Y-16595237D01*
X31357142Y-26929580D02*
X31309523Y-26977200D01*
X31309523Y-26977200D02*
X31166666Y-27024819D01*
X31166666Y-27024819D02*
X31071428Y-27024819D01*
X31071428Y-27024819D02*
X30928571Y-26977200D01*
X30928571Y-26977200D02*
X30833333Y-26881961D01*
X30833333Y-26881961D02*
X30785714Y-26786723D01*
X30785714Y-26786723D02*
X30738095Y-26596247D01*
X30738095Y-26596247D02*
X30738095Y-26453390D01*
X30738095Y-26453390D02*
X30785714Y-26262914D01*
X30785714Y-26262914D02*
X30833333Y-26167676D01*
X30833333Y-26167676D02*
X30928571Y-26072438D01*
X30928571Y-26072438D02*
X31071428Y-26024819D01*
X31071428Y-26024819D02*
X31166666Y-26024819D01*
X31166666Y-26024819D02*
X31309523Y-26072438D01*
X31309523Y-26072438D02*
X31357142Y-26120057D01*
X32309523Y-27024819D02*
X31738095Y-27024819D01*
X32023809Y-27024819D02*
X32023809Y-26024819D01*
X32023809Y-26024819D02*
X31928571Y-26167676D01*
X31928571Y-26167676D02*
X31833333Y-26262914D01*
X31833333Y-26262914D02*
X31738095Y-26310533D01*
X33214285Y-26024819D02*
X32738095Y-26024819D01*
X32738095Y-26024819D02*
X32690476Y-26501009D01*
X32690476Y-26501009D02*
X32738095Y-26453390D01*
X32738095Y-26453390D02*
X32833333Y-26405771D01*
X32833333Y-26405771D02*
X33071428Y-26405771D01*
X33071428Y-26405771D02*
X33166666Y-26453390D01*
X33166666Y-26453390D02*
X33214285Y-26501009D01*
X33214285Y-26501009D02*
X33261904Y-26596247D01*
X33261904Y-26596247D02*
X33261904Y-26834342D01*
X33261904Y-26834342D02*
X33214285Y-26929580D01*
X33214285Y-26929580D02*
X33166666Y-26977200D01*
X33166666Y-26977200D02*
X33071428Y-27024819D01*
X33071428Y-27024819D02*
X32833333Y-27024819D01*
X32833333Y-27024819D02*
X32738095Y-26977200D01*
X32738095Y-26977200D02*
X32690476Y-26929580D01*
X43523809Y-18528628D02*
X43523809Y-19004819D01*
X43190476Y-18004819D02*
X43523809Y-18528628D01*
X43523809Y-18528628D02*
X43857142Y-18004819D01*
X44714285Y-19004819D02*
X44142857Y-19004819D01*
X44428571Y-19004819D02*
X44428571Y-18004819D01*
X44428571Y-18004819D02*
X44333333Y-18147676D01*
X44333333Y-18147676D02*
X44238095Y-18242914D01*
X44238095Y-18242914D02*
X44142857Y-18290533D01*
X9720180Y-22666666D02*
X9005895Y-22666666D01*
X9005895Y-22666666D02*
X8863038Y-22619047D01*
X8863038Y-22619047D02*
X8767800Y-22523809D01*
X8767800Y-22523809D02*
X8720180Y-22380952D01*
X8720180Y-22380952D02*
X8720180Y-22285714D01*
X8720180Y-23666666D02*
X8720180Y-23095238D01*
X8720180Y-23380952D02*
X9720180Y-23380952D01*
X9720180Y-23380952D02*
X9577323Y-23285714D01*
X9577323Y-23285714D02*
X9482085Y-23190476D01*
X9482085Y-23190476D02*
X9434466Y-23095238D01*
X28666667Y-2357200D02*
X28809524Y-2404819D01*
X28809524Y-2404819D02*
X29047619Y-2404819D01*
X29047619Y-2404819D02*
X29142857Y-2357200D01*
X29142857Y-2357200D02*
X29190476Y-2309580D01*
X29190476Y-2309580D02*
X29238095Y-2214342D01*
X29238095Y-2214342D02*
X29238095Y-2119104D01*
X29238095Y-2119104D02*
X29190476Y-2023866D01*
X29190476Y-2023866D02*
X29142857Y-1976247D01*
X29142857Y-1976247D02*
X29047619Y-1928628D01*
X29047619Y-1928628D02*
X28857143Y-1881009D01*
X28857143Y-1881009D02*
X28761905Y-1833390D01*
X28761905Y-1833390D02*
X28714286Y-1785771D01*
X28714286Y-1785771D02*
X28666667Y-1690533D01*
X28666667Y-1690533D02*
X28666667Y-1595295D01*
X28666667Y-1595295D02*
X28714286Y-1500057D01*
X28714286Y-1500057D02*
X28761905Y-1452438D01*
X28761905Y-1452438D02*
X28857143Y-1404819D01*
X28857143Y-1404819D02*
X29095238Y-1404819D01*
X29095238Y-1404819D02*
X29238095Y-1452438D01*
X29571429Y-1404819D02*
X29809524Y-2404819D01*
X29809524Y-2404819D02*
X30000000Y-1690533D01*
X30000000Y-1690533D02*
X30190476Y-2404819D01*
X30190476Y-2404819D02*
X30428572Y-1404819D01*
X31333333Y-2404819D02*
X30761905Y-2404819D01*
X31047619Y-2404819D02*
X31047619Y-1404819D01*
X31047619Y-1404819D02*
X30952381Y-1547676D01*
X30952381Y-1547676D02*
X30857143Y-1642914D01*
X30857143Y-1642914D02*
X30761905Y-1690533D01*
X36929580Y-17642857D02*
X36977200Y-17690476D01*
X36977200Y-17690476D02*
X37024819Y-17833333D01*
X37024819Y-17833333D02*
X37024819Y-17928571D01*
X37024819Y-17928571D02*
X36977200Y-18071428D01*
X36977200Y-18071428D02*
X36881961Y-18166666D01*
X36881961Y-18166666D02*
X36786723Y-18214285D01*
X36786723Y-18214285D02*
X36596247Y-18261904D01*
X36596247Y-18261904D02*
X36453390Y-18261904D01*
X36453390Y-18261904D02*
X36262914Y-18214285D01*
X36262914Y-18214285D02*
X36167676Y-18166666D01*
X36167676Y-18166666D02*
X36072438Y-18071428D01*
X36072438Y-18071428D02*
X36024819Y-17928571D01*
X36024819Y-17928571D02*
X36024819Y-17833333D01*
X36024819Y-17833333D02*
X36072438Y-17690476D01*
X36072438Y-17690476D02*
X36120057Y-17642857D01*
X37024819Y-16690476D02*
X37024819Y-17261904D01*
X37024819Y-16976190D02*
X36024819Y-16976190D01*
X36024819Y-16976190D02*
X36167676Y-17071428D01*
X36167676Y-17071428D02*
X36262914Y-17166666D01*
X36262914Y-17166666D02*
X36310533Y-17261904D01*
X36024819Y-16357142D02*
X36024819Y-15738095D01*
X36024819Y-15738095D02*
X36405771Y-16071428D01*
X36405771Y-16071428D02*
X36405771Y-15928571D01*
X36405771Y-15928571D02*
X36453390Y-15833333D01*
X36453390Y-15833333D02*
X36501009Y-15785714D01*
X36501009Y-15785714D02*
X36596247Y-15738095D01*
X36596247Y-15738095D02*
X36834342Y-15738095D01*
X36834342Y-15738095D02*
X36929580Y-15785714D01*
X36929580Y-15785714D02*
X36977200Y-15833333D01*
X36977200Y-15833333D02*
X37024819Y-15928571D01*
X37024819Y-15928571D02*
X37024819Y-16214285D01*
X37024819Y-16214285D02*
X36977200Y-16309523D01*
X36977200Y-16309523D02*
X36929580Y-16357142D01*
X48524819Y-41166666D02*
X48048628Y-41499999D01*
X48524819Y-41738094D02*
X47524819Y-41738094D01*
X47524819Y-41738094D02*
X47524819Y-41357142D01*
X47524819Y-41357142D02*
X47572438Y-41261904D01*
X47572438Y-41261904D02*
X47620057Y-41214285D01*
X47620057Y-41214285D02*
X47715295Y-41166666D01*
X47715295Y-41166666D02*
X47858152Y-41166666D01*
X47858152Y-41166666D02*
X47953390Y-41214285D01*
X47953390Y-41214285D02*
X48001009Y-41261904D01*
X48001009Y-41261904D02*
X48048628Y-41357142D01*
X48048628Y-41357142D02*
X48048628Y-41738094D01*
X47858152Y-40309523D02*
X48524819Y-40309523D01*
X47477200Y-40547618D02*
X48191485Y-40785713D01*
X48191485Y-40785713D02*
X48191485Y-40166666D01*
X12524819Y-29166666D02*
X12048628Y-29499999D01*
X12524819Y-29738094D02*
X11524819Y-29738094D01*
X11524819Y-29738094D02*
X11524819Y-29357142D01*
X11524819Y-29357142D02*
X11572438Y-29261904D01*
X11572438Y-29261904D02*
X11620057Y-29214285D01*
X11620057Y-29214285D02*
X11715295Y-29166666D01*
X11715295Y-29166666D02*
X11858152Y-29166666D01*
X11858152Y-29166666D02*
X11953390Y-29214285D01*
X11953390Y-29214285D02*
X12001009Y-29261904D01*
X12001009Y-29261904D02*
X12048628Y-29357142D01*
X12048628Y-29357142D02*
X12048628Y-29738094D01*
X11620057Y-28785713D02*
X11572438Y-28738094D01*
X11572438Y-28738094D02*
X11524819Y-28642856D01*
X11524819Y-28642856D02*
X11524819Y-28404761D01*
X11524819Y-28404761D02*
X11572438Y-28309523D01*
X11572438Y-28309523D02*
X11620057Y-28261904D01*
X11620057Y-28261904D02*
X11715295Y-28214285D01*
X11715295Y-28214285D02*
X11810533Y-28214285D01*
X11810533Y-28214285D02*
X11953390Y-28261904D01*
X11953390Y-28261904D02*
X12524819Y-28833332D01*
X12524819Y-28833332D02*
X12524819Y-28214285D01*
X39238095Y-34054819D02*
X39238095Y-34864342D01*
X39238095Y-34864342D02*
X39285714Y-34959580D01*
X39285714Y-34959580D02*
X39333333Y-35007200D01*
X39333333Y-35007200D02*
X39428571Y-35054819D01*
X39428571Y-35054819D02*
X39619047Y-35054819D01*
X39619047Y-35054819D02*
X39714285Y-35007200D01*
X39714285Y-35007200D02*
X39761904Y-34959580D01*
X39761904Y-34959580D02*
X39809523Y-34864342D01*
X39809523Y-34864342D02*
X39809523Y-34054819D01*
X40761904Y-34054819D02*
X40285714Y-34054819D01*
X40285714Y-34054819D02*
X40238095Y-34531009D01*
X40238095Y-34531009D02*
X40285714Y-34483390D01*
X40285714Y-34483390D02*
X40380952Y-34435771D01*
X40380952Y-34435771D02*
X40619047Y-34435771D01*
X40619047Y-34435771D02*
X40714285Y-34483390D01*
X40714285Y-34483390D02*
X40761904Y-34531009D01*
X40761904Y-34531009D02*
X40809523Y-34626247D01*
X40809523Y-34626247D02*
X40809523Y-34864342D01*
X40809523Y-34864342D02*
X40761904Y-34959580D01*
X40761904Y-34959580D02*
X40714285Y-35007200D01*
X40714285Y-35007200D02*
X40619047Y-35054819D01*
X40619047Y-35054819D02*
X40380952Y-35054819D01*
X40380952Y-35054819D02*
X40285714Y-35007200D01*
X40285714Y-35007200D02*
X40238095Y-34959580D01*
X39833333Y-31929580D02*
X39785714Y-31977200D01*
X39785714Y-31977200D02*
X39642857Y-32024819D01*
X39642857Y-32024819D02*
X39547619Y-32024819D01*
X39547619Y-32024819D02*
X39404762Y-31977200D01*
X39404762Y-31977200D02*
X39309524Y-31881961D01*
X39309524Y-31881961D02*
X39261905Y-31786723D01*
X39261905Y-31786723D02*
X39214286Y-31596247D01*
X39214286Y-31596247D02*
X39214286Y-31453390D01*
X39214286Y-31453390D02*
X39261905Y-31262914D01*
X39261905Y-31262914D02*
X39309524Y-31167676D01*
X39309524Y-31167676D02*
X39404762Y-31072438D01*
X39404762Y-31072438D02*
X39547619Y-31024819D01*
X39547619Y-31024819D02*
X39642857Y-31024819D01*
X39642857Y-31024819D02*
X39785714Y-31072438D01*
X39785714Y-31072438D02*
X39833333Y-31120057D01*
X40690476Y-31024819D02*
X40500000Y-31024819D01*
X40500000Y-31024819D02*
X40404762Y-31072438D01*
X40404762Y-31072438D02*
X40357143Y-31120057D01*
X40357143Y-31120057D02*
X40261905Y-31262914D01*
X40261905Y-31262914D02*
X40214286Y-31453390D01*
X40214286Y-31453390D02*
X40214286Y-31834342D01*
X40214286Y-31834342D02*
X40261905Y-31929580D01*
X40261905Y-31929580D02*
X40309524Y-31977200D01*
X40309524Y-31977200D02*
X40404762Y-32024819D01*
X40404762Y-32024819D02*
X40595238Y-32024819D01*
X40595238Y-32024819D02*
X40690476Y-31977200D01*
X40690476Y-31977200D02*
X40738095Y-31929580D01*
X40738095Y-31929580D02*
X40785714Y-31834342D01*
X40785714Y-31834342D02*
X40785714Y-31596247D01*
X40785714Y-31596247D02*
X40738095Y-31501009D01*
X40738095Y-31501009D02*
X40690476Y-31453390D01*
X40690476Y-31453390D02*
X40595238Y-31405771D01*
X40595238Y-31405771D02*
X40404762Y-31405771D01*
X40404762Y-31405771D02*
X40309524Y-31453390D01*
X40309524Y-31453390D02*
X40261905Y-31501009D01*
X40261905Y-31501009D02*
X40214286Y-31596247D01*
X53261905Y-13024819D02*
X53261905Y-12024819D01*
X53261905Y-12024819D02*
X53500000Y-12024819D01*
X53500000Y-12024819D02*
X53642857Y-12072438D01*
X53642857Y-12072438D02*
X53738095Y-12167676D01*
X53738095Y-12167676D02*
X53785714Y-12262914D01*
X53785714Y-12262914D02*
X53833333Y-12453390D01*
X53833333Y-12453390D02*
X53833333Y-12596247D01*
X53833333Y-12596247D02*
X53785714Y-12786723D01*
X53785714Y-12786723D02*
X53738095Y-12881961D01*
X53738095Y-12881961D02*
X53642857Y-12977200D01*
X53642857Y-12977200D02*
X53500000Y-13024819D01*
X53500000Y-13024819D02*
X53261905Y-13024819D01*
X54166667Y-12024819D02*
X54785714Y-12024819D01*
X54785714Y-12024819D02*
X54452381Y-12405771D01*
X54452381Y-12405771D02*
X54595238Y-12405771D01*
X54595238Y-12405771D02*
X54690476Y-12453390D01*
X54690476Y-12453390D02*
X54738095Y-12501009D01*
X54738095Y-12501009D02*
X54785714Y-12596247D01*
X54785714Y-12596247D02*
X54785714Y-12834342D01*
X54785714Y-12834342D02*
X54738095Y-12929580D01*
X54738095Y-12929580D02*
X54690476Y-12977200D01*
X54690476Y-12977200D02*
X54595238Y-13024819D01*
X54595238Y-13024819D02*
X54309524Y-13024819D01*
X54309524Y-13024819D02*
X54214286Y-12977200D01*
X54214286Y-12977200D02*
X54166667Y-12929580D01*
X53261905Y-10024819D02*
X53261905Y-9024819D01*
X53261905Y-9024819D02*
X53500000Y-9024819D01*
X53500000Y-9024819D02*
X53642857Y-9072438D01*
X53642857Y-9072438D02*
X53738095Y-9167676D01*
X53738095Y-9167676D02*
X53785714Y-9262914D01*
X53785714Y-9262914D02*
X53833333Y-9453390D01*
X53833333Y-9453390D02*
X53833333Y-9596247D01*
X53833333Y-9596247D02*
X53785714Y-9786723D01*
X53785714Y-9786723D02*
X53738095Y-9881961D01*
X53738095Y-9881961D02*
X53642857Y-9977200D01*
X53642857Y-9977200D02*
X53500000Y-10024819D01*
X53500000Y-10024819D02*
X53261905Y-10024819D01*
X54214286Y-9120057D02*
X54261905Y-9072438D01*
X54261905Y-9072438D02*
X54357143Y-9024819D01*
X54357143Y-9024819D02*
X54595238Y-9024819D01*
X54595238Y-9024819D02*
X54690476Y-9072438D01*
X54690476Y-9072438D02*
X54738095Y-9120057D01*
X54738095Y-9120057D02*
X54785714Y-9215295D01*
X54785714Y-9215295D02*
X54785714Y-9310533D01*
X54785714Y-9310533D02*
X54738095Y-9453390D01*
X54738095Y-9453390D02*
X54166667Y-10024819D01*
X54166667Y-10024819D02*
X54785714Y-10024819D01*
X30857142Y-12929580D02*
X30809523Y-12977200D01*
X30809523Y-12977200D02*
X30666666Y-13024819D01*
X30666666Y-13024819D02*
X30571428Y-13024819D01*
X30571428Y-13024819D02*
X30428571Y-12977200D01*
X30428571Y-12977200D02*
X30333333Y-12881961D01*
X30333333Y-12881961D02*
X30285714Y-12786723D01*
X30285714Y-12786723D02*
X30238095Y-12596247D01*
X30238095Y-12596247D02*
X30238095Y-12453390D01*
X30238095Y-12453390D02*
X30285714Y-12262914D01*
X30285714Y-12262914D02*
X30333333Y-12167676D01*
X30333333Y-12167676D02*
X30428571Y-12072438D01*
X30428571Y-12072438D02*
X30571428Y-12024819D01*
X30571428Y-12024819D02*
X30666666Y-12024819D01*
X30666666Y-12024819D02*
X30809523Y-12072438D01*
X30809523Y-12072438D02*
X30857142Y-12120057D01*
X31809523Y-13024819D02*
X31238095Y-13024819D01*
X31523809Y-13024819D02*
X31523809Y-12024819D01*
X31523809Y-12024819D02*
X31428571Y-12167676D01*
X31428571Y-12167676D02*
X31333333Y-12262914D01*
X31333333Y-12262914D02*
X31238095Y-12310533D01*
X32666666Y-12358152D02*
X32666666Y-13024819D01*
X32428571Y-11977200D02*
X32190476Y-12691485D01*
X32190476Y-12691485D02*
X32809523Y-12691485D01*
X45024819Y-41166666D02*
X44548628Y-41499999D01*
X45024819Y-41738094D02*
X44024819Y-41738094D01*
X44024819Y-41738094D02*
X44024819Y-41357142D01*
X44024819Y-41357142D02*
X44072438Y-41261904D01*
X44072438Y-41261904D02*
X44120057Y-41214285D01*
X44120057Y-41214285D02*
X44215295Y-41166666D01*
X44215295Y-41166666D02*
X44358152Y-41166666D01*
X44358152Y-41166666D02*
X44453390Y-41214285D01*
X44453390Y-41214285D02*
X44501009Y-41261904D01*
X44501009Y-41261904D02*
X44548628Y-41357142D01*
X44548628Y-41357142D02*
X44548628Y-41738094D01*
X44024819Y-40833332D02*
X44024819Y-40214285D01*
X44024819Y-40214285D02*
X44405771Y-40547618D01*
X44405771Y-40547618D02*
X44405771Y-40404761D01*
X44405771Y-40404761D02*
X44453390Y-40309523D01*
X44453390Y-40309523D02*
X44501009Y-40261904D01*
X44501009Y-40261904D02*
X44596247Y-40214285D01*
X44596247Y-40214285D02*
X44834342Y-40214285D01*
X44834342Y-40214285D02*
X44929580Y-40261904D01*
X44929580Y-40261904D02*
X44977200Y-40309523D01*
X44977200Y-40309523D02*
X45024819Y-40404761D01*
X45024819Y-40404761D02*
X45024819Y-40690475D01*
X45024819Y-40690475D02*
X44977200Y-40785713D01*
X44977200Y-40785713D02*
X44929580Y-40833332D01*
X36929580Y-25166666D02*
X36977200Y-25214285D01*
X36977200Y-25214285D02*
X37024819Y-25357142D01*
X37024819Y-25357142D02*
X37024819Y-25452380D01*
X37024819Y-25452380D02*
X36977200Y-25595237D01*
X36977200Y-25595237D02*
X36881961Y-25690475D01*
X36881961Y-25690475D02*
X36786723Y-25738094D01*
X36786723Y-25738094D02*
X36596247Y-25785713D01*
X36596247Y-25785713D02*
X36453390Y-25785713D01*
X36453390Y-25785713D02*
X36262914Y-25738094D01*
X36262914Y-25738094D02*
X36167676Y-25690475D01*
X36167676Y-25690475D02*
X36072438Y-25595237D01*
X36072438Y-25595237D02*
X36024819Y-25452380D01*
X36024819Y-25452380D02*
X36024819Y-25357142D01*
X36024819Y-25357142D02*
X36072438Y-25214285D01*
X36072438Y-25214285D02*
X36120057Y-25166666D01*
X36453390Y-24595237D02*
X36405771Y-24690475D01*
X36405771Y-24690475D02*
X36358152Y-24738094D01*
X36358152Y-24738094D02*
X36262914Y-24785713D01*
X36262914Y-24785713D02*
X36215295Y-24785713D01*
X36215295Y-24785713D02*
X36120057Y-24738094D01*
X36120057Y-24738094D02*
X36072438Y-24690475D01*
X36072438Y-24690475D02*
X36024819Y-24595237D01*
X36024819Y-24595237D02*
X36024819Y-24404761D01*
X36024819Y-24404761D02*
X36072438Y-24309523D01*
X36072438Y-24309523D02*
X36120057Y-24261904D01*
X36120057Y-24261904D02*
X36215295Y-24214285D01*
X36215295Y-24214285D02*
X36262914Y-24214285D01*
X36262914Y-24214285D02*
X36358152Y-24261904D01*
X36358152Y-24261904D02*
X36405771Y-24309523D01*
X36405771Y-24309523D02*
X36453390Y-24404761D01*
X36453390Y-24404761D02*
X36453390Y-24595237D01*
X36453390Y-24595237D02*
X36501009Y-24690475D01*
X36501009Y-24690475D02*
X36548628Y-24738094D01*
X36548628Y-24738094D02*
X36643866Y-24785713D01*
X36643866Y-24785713D02*
X36834342Y-24785713D01*
X36834342Y-24785713D02*
X36929580Y-24738094D01*
X36929580Y-24738094D02*
X36977200Y-24690475D01*
X36977200Y-24690475D02*
X37024819Y-24595237D01*
X37024819Y-24595237D02*
X37024819Y-24404761D01*
X37024819Y-24404761D02*
X36977200Y-24309523D01*
X36977200Y-24309523D02*
X36929580Y-24261904D01*
X36929580Y-24261904D02*
X36834342Y-24214285D01*
X36834342Y-24214285D02*
X36643866Y-24214285D01*
X36643866Y-24214285D02*
X36548628Y-24261904D01*
X36548628Y-24261904D02*
X36501009Y-24309523D01*
X36501009Y-24309523D02*
X36453390Y-24404761D01*
X15238095Y-5554819D02*
X15238095Y-6364342D01*
X15238095Y-6364342D02*
X15285714Y-6459580D01*
X15285714Y-6459580D02*
X15333333Y-6507200D01*
X15333333Y-6507200D02*
X15428571Y-6554819D01*
X15428571Y-6554819D02*
X15619047Y-6554819D01*
X15619047Y-6554819D02*
X15714285Y-6507200D01*
X15714285Y-6507200D02*
X15761904Y-6459580D01*
X15761904Y-6459580D02*
X15809523Y-6364342D01*
X15809523Y-6364342D02*
X15809523Y-5554819D01*
X16238095Y-5650057D02*
X16285714Y-5602438D01*
X16285714Y-5602438D02*
X16380952Y-5554819D01*
X16380952Y-5554819D02*
X16619047Y-5554819D01*
X16619047Y-5554819D02*
X16714285Y-5602438D01*
X16714285Y-5602438D02*
X16761904Y-5650057D01*
X16761904Y-5650057D02*
X16809523Y-5745295D01*
X16809523Y-5745295D02*
X16809523Y-5840533D01*
X16809523Y-5840533D02*
X16761904Y-5983390D01*
X16761904Y-5983390D02*
X16190476Y-6554819D01*
X16190476Y-6554819D02*
X16809523Y-6554819D01*
X39333333Y-20024819D02*
X39000000Y-19548628D01*
X38761905Y-20024819D02*
X38761905Y-19024819D01*
X38761905Y-19024819D02*
X39142857Y-19024819D01*
X39142857Y-19024819D02*
X39238095Y-19072438D01*
X39238095Y-19072438D02*
X39285714Y-19120057D01*
X39285714Y-19120057D02*
X39333333Y-19215295D01*
X39333333Y-19215295D02*
X39333333Y-19358152D01*
X39333333Y-19358152D02*
X39285714Y-19453390D01*
X39285714Y-19453390D02*
X39238095Y-19501009D01*
X39238095Y-19501009D02*
X39142857Y-19548628D01*
X39142857Y-19548628D02*
X38761905Y-19548628D01*
X40238095Y-19024819D02*
X39761905Y-19024819D01*
X39761905Y-19024819D02*
X39714286Y-19501009D01*
X39714286Y-19501009D02*
X39761905Y-19453390D01*
X39761905Y-19453390D02*
X39857143Y-19405771D01*
X39857143Y-19405771D02*
X40095238Y-19405771D01*
X40095238Y-19405771D02*
X40190476Y-19453390D01*
X40190476Y-19453390D02*
X40238095Y-19501009D01*
X40238095Y-19501009D02*
X40285714Y-19596247D01*
X40285714Y-19596247D02*
X40285714Y-19834342D01*
X40285714Y-19834342D02*
X40238095Y-19929580D01*
X40238095Y-19929580D02*
X40190476Y-19977200D01*
X40190476Y-19977200D02*
X40095238Y-20024819D01*
X40095238Y-20024819D02*
X39857143Y-20024819D01*
X39857143Y-20024819D02*
X39761905Y-19977200D01*
X39761905Y-19977200D02*
X39714286Y-19929580D01*
X49833333Y-13024819D02*
X49500000Y-12548628D01*
X49261905Y-13024819D02*
X49261905Y-12024819D01*
X49261905Y-12024819D02*
X49642857Y-12024819D01*
X49642857Y-12024819D02*
X49738095Y-12072438D01*
X49738095Y-12072438D02*
X49785714Y-12120057D01*
X49785714Y-12120057D02*
X49833333Y-12215295D01*
X49833333Y-12215295D02*
X49833333Y-12358152D01*
X49833333Y-12358152D02*
X49785714Y-12453390D01*
X49785714Y-12453390D02*
X49738095Y-12501009D01*
X49738095Y-12501009D02*
X49642857Y-12548628D01*
X49642857Y-12548628D02*
X49261905Y-12548628D01*
X50309524Y-13024819D02*
X50500000Y-13024819D01*
X50500000Y-13024819D02*
X50595238Y-12977200D01*
X50595238Y-12977200D02*
X50642857Y-12929580D01*
X50642857Y-12929580D02*
X50738095Y-12786723D01*
X50738095Y-12786723D02*
X50785714Y-12596247D01*
X50785714Y-12596247D02*
X50785714Y-12215295D01*
X50785714Y-12215295D02*
X50738095Y-12120057D01*
X50738095Y-12120057D02*
X50690476Y-12072438D01*
X50690476Y-12072438D02*
X50595238Y-12024819D01*
X50595238Y-12024819D02*
X50404762Y-12024819D01*
X50404762Y-12024819D02*
X50309524Y-12072438D01*
X50309524Y-12072438D02*
X50261905Y-12120057D01*
X50261905Y-12120057D02*
X50214286Y-12215295D01*
X50214286Y-12215295D02*
X50214286Y-12453390D01*
X50214286Y-12453390D02*
X50261905Y-12548628D01*
X50261905Y-12548628D02*
X50309524Y-12596247D01*
X50309524Y-12596247D02*
X50404762Y-12643866D01*
X50404762Y-12643866D02*
X50595238Y-12643866D01*
X50595238Y-12643866D02*
X50690476Y-12596247D01*
X50690476Y-12596247D02*
X50738095Y-12548628D01*
X50738095Y-12548628D02*
X50785714Y-12453390D01*
X42738095Y-14306819D02*
X43309523Y-14306819D01*
X43023809Y-15306819D02*
X43023809Y-14306819D01*
X43642857Y-15306819D02*
X43642857Y-14306819D01*
X43642857Y-14306819D02*
X44023809Y-14306819D01*
X44023809Y-14306819D02*
X44119047Y-14354438D01*
X44119047Y-14354438D02*
X44166666Y-14402057D01*
X44166666Y-14402057D02*
X44214285Y-14497295D01*
X44214285Y-14497295D02*
X44214285Y-14640152D01*
X44214285Y-14640152D02*
X44166666Y-14735390D01*
X44166666Y-14735390D02*
X44119047Y-14783009D01*
X44119047Y-14783009D02*
X44023809Y-14830628D01*
X44023809Y-14830628D02*
X43642857Y-14830628D01*
X45071428Y-14640152D02*
X45071428Y-15306819D01*
X44833333Y-14259200D02*
X44595238Y-14973485D01*
X44595238Y-14973485D02*
X45214285Y-14973485D01*
X23929580Y-12142857D02*
X23977200Y-12190476D01*
X23977200Y-12190476D02*
X24024819Y-12333333D01*
X24024819Y-12333333D02*
X24024819Y-12428571D01*
X24024819Y-12428571D02*
X23977200Y-12571428D01*
X23977200Y-12571428D02*
X23881961Y-12666666D01*
X23881961Y-12666666D02*
X23786723Y-12714285D01*
X23786723Y-12714285D02*
X23596247Y-12761904D01*
X23596247Y-12761904D02*
X23453390Y-12761904D01*
X23453390Y-12761904D02*
X23262914Y-12714285D01*
X23262914Y-12714285D02*
X23167676Y-12666666D01*
X23167676Y-12666666D02*
X23072438Y-12571428D01*
X23072438Y-12571428D02*
X23024819Y-12428571D01*
X23024819Y-12428571D02*
X23024819Y-12333333D01*
X23024819Y-12333333D02*
X23072438Y-12190476D01*
X23072438Y-12190476D02*
X23120057Y-12142857D01*
X24024819Y-11190476D02*
X24024819Y-11761904D01*
X24024819Y-11476190D02*
X23024819Y-11476190D01*
X23024819Y-11476190D02*
X23167676Y-11571428D01*
X23167676Y-11571428D02*
X23262914Y-11666666D01*
X23262914Y-11666666D02*
X23310533Y-11761904D01*
X23024819Y-10857142D02*
X23024819Y-10190476D01*
X23024819Y-10190476D02*
X24024819Y-10619047D01*
X28333333Y-26429580D02*
X28285714Y-26477200D01*
X28285714Y-26477200D02*
X28142857Y-26524819D01*
X28142857Y-26524819D02*
X28047619Y-26524819D01*
X28047619Y-26524819D02*
X27904762Y-26477200D01*
X27904762Y-26477200D02*
X27809524Y-26381961D01*
X27809524Y-26381961D02*
X27761905Y-26286723D01*
X27761905Y-26286723D02*
X27714286Y-26096247D01*
X27714286Y-26096247D02*
X27714286Y-25953390D01*
X27714286Y-25953390D02*
X27761905Y-25762914D01*
X27761905Y-25762914D02*
X27809524Y-25667676D01*
X27809524Y-25667676D02*
X27904762Y-25572438D01*
X27904762Y-25572438D02*
X28047619Y-25524819D01*
X28047619Y-25524819D02*
X28142857Y-25524819D01*
X28142857Y-25524819D02*
X28285714Y-25572438D01*
X28285714Y-25572438D02*
X28333333Y-25620057D01*
X28809524Y-26524819D02*
X29000000Y-26524819D01*
X29000000Y-26524819D02*
X29095238Y-26477200D01*
X29095238Y-26477200D02*
X29142857Y-26429580D01*
X29142857Y-26429580D02*
X29238095Y-26286723D01*
X29238095Y-26286723D02*
X29285714Y-26096247D01*
X29285714Y-26096247D02*
X29285714Y-25715295D01*
X29285714Y-25715295D02*
X29238095Y-25620057D01*
X29238095Y-25620057D02*
X29190476Y-25572438D01*
X29190476Y-25572438D02*
X29095238Y-25524819D01*
X29095238Y-25524819D02*
X28904762Y-25524819D01*
X28904762Y-25524819D02*
X28809524Y-25572438D01*
X28809524Y-25572438D02*
X28761905Y-25620057D01*
X28761905Y-25620057D02*
X28714286Y-25715295D01*
X28714286Y-25715295D02*
X28714286Y-25953390D01*
X28714286Y-25953390D02*
X28761905Y-26048628D01*
X28761905Y-26048628D02*
X28809524Y-26096247D01*
X28809524Y-26096247D02*
X28904762Y-26143866D01*
X28904762Y-26143866D02*
X29095238Y-26143866D01*
X29095238Y-26143866D02*
X29190476Y-26096247D01*
X29190476Y-26096247D02*
X29238095Y-26048628D01*
X29238095Y-26048628D02*
X29285714Y-25953390D01*
X55666666Y-17124819D02*
X55666666Y-17839104D01*
X55666666Y-17839104D02*
X55619047Y-17981961D01*
X55619047Y-17981961D02*
X55523809Y-18077200D01*
X55523809Y-18077200D02*
X55380952Y-18124819D01*
X55380952Y-18124819D02*
X55285714Y-18124819D01*
X56095238Y-17220057D02*
X56142857Y-17172438D01*
X56142857Y-17172438D02*
X56238095Y-17124819D01*
X56238095Y-17124819D02*
X56476190Y-17124819D01*
X56476190Y-17124819D02*
X56571428Y-17172438D01*
X56571428Y-17172438D02*
X56619047Y-17220057D01*
X56619047Y-17220057D02*
X56666666Y-17315295D01*
X56666666Y-17315295D02*
X56666666Y-17410533D01*
X56666666Y-17410533D02*
X56619047Y-17553390D01*
X56619047Y-17553390D02*
X56047619Y-18124819D01*
X56047619Y-18124819D02*
X56666666Y-18124819D01*
X22238095Y-34554819D02*
X22238095Y-35364342D01*
X22238095Y-35364342D02*
X22285714Y-35459580D01*
X22285714Y-35459580D02*
X22333333Y-35507200D01*
X22333333Y-35507200D02*
X22428571Y-35554819D01*
X22428571Y-35554819D02*
X22619047Y-35554819D01*
X22619047Y-35554819D02*
X22714285Y-35507200D01*
X22714285Y-35507200D02*
X22761904Y-35459580D01*
X22761904Y-35459580D02*
X22809523Y-35364342D01*
X22809523Y-35364342D02*
X22809523Y-34554819D01*
X23714285Y-34888152D02*
X23714285Y-35554819D01*
X23476190Y-34507200D02*
X23238095Y-35221485D01*
X23238095Y-35221485D02*
X23857142Y-35221485D01*
X8333333Y-39929580D02*
X8285714Y-39977200D01*
X8285714Y-39977200D02*
X8142857Y-40024819D01*
X8142857Y-40024819D02*
X8047619Y-40024819D01*
X8047619Y-40024819D02*
X7904762Y-39977200D01*
X7904762Y-39977200D02*
X7809524Y-39881961D01*
X7809524Y-39881961D02*
X7761905Y-39786723D01*
X7761905Y-39786723D02*
X7714286Y-39596247D01*
X7714286Y-39596247D02*
X7714286Y-39453390D01*
X7714286Y-39453390D02*
X7761905Y-39262914D01*
X7761905Y-39262914D02*
X7809524Y-39167676D01*
X7809524Y-39167676D02*
X7904762Y-39072438D01*
X7904762Y-39072438D02*
X8047619Y-39024819D01*
X8047619Y-39024819D02*
X8142857Y-39024819D01*
X8142857Y-39024819D02*
X8285714Y-39072438D01*
X8285714Y-39072438D02*
X8333333Y-39120057D01*
X8714286Y-39120057D02*
X8761905Y-39072438D01*
X8761905Y-39072438D02*
X8857143Y-39024819D01*
X8857143Y-39024819D02*
X9095238Y-39024819D01*
X9095238Y-39024819D02*
X9190476Y-39072438D01*
X9190476Y-39072438D02*
X9238095Y-39120057D01*
X9238095Y-39120057D02*
X9285714Y-39215295D01*
X9285714Y-39215295D02*
X9285714Y-39310533D01*
X9285714Y-39310533D02*
X9238095Y-39453390D01*
X9238095Y-39453390D02*
X8666667Y-40024819D01*
X8666667Y-40024819D02*
X9285714Y-40024819D01*
X15833333Y-39679580D02*
X15785714Y-39727200D01*
X15785714Y-39727200D02*
X15642857Y-39774819D01*
X15642857Y-39774819D02*
X15547619Y-39774819D01*
X15547619Y-39774819D02*
X15404762Y-39727200D01*
X15404762Y-39727200D02*
X15309524Y-39631961D01*
X15309524Y-39631961D02*
X15261905Y-39536723D01*
X15261905Y-39536723D02*
X15214286Y-39346247D01*
X15214286Y-39346247D02*
X15214286Y-39203390D01*
X15214286Y-39203390D02*
X15261905Y-39012914D01*
X15261905Y-39012914D02*
X15309524Y-38917676D01*
X15309524Y-38917676D02*
X15404762Y-38822438D01*
X15404762Y-38822438D02*
X15547619Y-38774819D01*
X15547619Y-38774819D02*
X15642857Y-38774819D01*
X15642857Y-38774819D02*
X15785714Y-38822438D01*
X15785714Y-38822438D02*
X15833333Y-38870057D01*
X16166667Y-38774819D02*
X16785714Y-38774819D01*
X16785714Y-38774819D02*
X16452381Y-39155771D01*
X16452381Y-39155771D02*
X16595238Y-39155771D01*
X16595238Y-39155771D02*
X16690476Y-39203390D01*
X16690476Y-39203390D02*
X16738095Y-39251009D01*
X16738095Y-39251009D02*
X16785714Y-39346247D01*
X16785714Y-39346247D02*
X16785714Y-39584342D01*
X16785714Y-39584342D02*
X16738095Y-39679580D01*
X16738095Y-39679580D02*
X16690476Y-39727200D01*
X16690476Y-39727200D02*
X16595238Y-39774819D01*
X16595238Y-39774819D02*
X16309524Y-39774819D01*
X16309524Y-39774819D02*
X16214286Y-39727200D01*
X16214286Y-39727200D02*
X16166667Y-39679580D01*
X53261905Y-7024819D02*
X53261905Y-6024819D01*
X53261905Y-6024819D02*
X53500000Y-6024819D01*
X53500000Y-6024819D02*
X53642857Y-6072438D01*
X53642857Y-6072438D02*
X53738095Y-6167676D01*
X53738095Y-6167676D02*
X53785714Y-6262914D01*
X53785714Y-6262914D02*
X53833333Y-6453390D01*
X53833333Y-6453390D02*
X53833333Y-6596247D01*
X53833333Y-6596247D02*
X53785714Y-6786723D01*
X53785714Y-6786723D02*
X53738095Y-6881961D01*
X53738095Y-6881961D02*
X53642857Y-6977200D01*
X53642857Y-6977200D02*
X53500000Y-7024819D01*
X53500000Y-7024819D02*
X53261905Y-7024819D01*
X54785714Y-7024819D02*
X54214286Y-7024819D01*
X54500000Y-7024819D02*
X54500000Y-6024819D01*
X54500000Y-6024819D02*
X54404762Y-6167676D01*
X54404762Y-6167676D02*
X54309524Y-6262914D01*
X54309524Y-6262914D02*
X54214286Y-6310533D01*
X31238095Y-16624819D02*
X31238095Y-17434342D01*
X31238095Y-17434342D02*
X31285714Y-17529580D01*
X31285714Y-17529580D02*
X31333333Y-17577200D01*
X31333333Y-17577200D02*
X31428571Y-17624819D01*
X31428571Y-17624819D02*
X31619047Y-17624819D01*
X31619047Y-17624819D02*
X31714285Y-17577200D01*
X31714285Y-17577200D02*
X31761904Y-17529580D01*
X31761904Y-17529580D02*
X31809523Y-17434342D01*
X31809523Y-17434342D02*
X31809523Y-16624819D01*
X32809523Y-17624819D02*
X32238095Y-17624819D01*
X32523809Y-17624819D02*
X32523809Y-16624819D01*
X32523809Y-16624819D02*
X32428571Y-16767676D01*
X32428571Y-16767676D02*
X32333333Y-16862914D01*
X32333333Y-16862914D02*
X32238095Y-16910533D01*
X43357142Y-24429580D02*
X43309523Y-24477200D01*
X43309523Y-24477200D02*
X43166666Y-24524819D01*
X43166666Y-24524819D02*
X43071428Y-24524819D01*
X43071428Y-24524819D02*
X42928571Y-24477200D01*
X42928571Y-24477200D02*
X42833333Y-24381961D01*
X42833333Y-24381961D02*
X42785714Y-24286723D01*
X42785714Y-24286723D02*
X42738095Y-24096247D01*
X42738095Y-24096247D02*
X42738095Y-23953390D01*
X42738095Y-23953390D02*
X42785714Y-23762914D01*
X42785714Y-23762914D02*
X42833333Y-23667676D01*
X42833333Y-23667676D02*
X42928571Y-23572438D01*
X42928571Y-23572438D02*
X43071428Y-23524819D01*
X43071428Y-23524819D02*
X43166666Y-23524819D01*
X43166666Y-23524819D02*
X43309523Y-23572438D01*
X43309523Y-23572438D02*
X43357142Y-23620057D01*
X44309523Y-24524819D02*
X43738095Y-24524819D01*
X44023809Y-24524819D02*
X44023809Y-23524819D01*
X44023809Y-23524819D02*
X43928571Y-23667676D01*
X43928571Y-23667676D02*
X43833333Y-23762914D01*
X43833333Y-23762914D02*
X43738095Y-23810533D01*
X45166666Y-23524819D02*
X44976190Y-23524819D01*
X44976190Y-23524819D02*
X44880952Y-23572438D01*
X44880952Y-23572438D02*
X44833333Y-23620057D01*
X44833333Y-23620057D02*
X44738095Y-23762914D01*
X44738095Y-23762914D02*
X44690476Y-23953390D01*
X44690476Y-23953390D02*
X44690476Y-24334342D01*
X44690476Y-24334342D02*
X44738095Y-24429580D01*
X44738095Y-24429580D02*
X44785714Y-24477200D01*
X44785714Y-24477200D02*
X44880952Y-24524819D01*
X44880952Y-24524819D02*
X45071428Y-24524819D01*
X45071428Y-24524819D02*
X45166666Y-24477200D01*
X45166666Y-24477200D02*
X45214285Y-24429580D01*
X45214285Y-24429580D02*
X45261904Y-24334342D01*
X45261904Y-24334342D02*
X45261904Y-24096247D01*
X45261904Y-24096247D02*
X45214285Y-24001009D01*
X45214285Y-24001009D02*
X45166666Y-23953390D01*
X45166666Y-23953390D02*
X45071428Y-23905771D01*
X45071428Y-23905771D02*
X44880952Y-23905771D01*
X44880952Y-23905771D02*
X44785714Y-23953390D01*
X44785714Y-23953390D02*
X44738095Y-24001009D01*
X44738095Y-24001009D02*
X44690476Y-24096247D01*
X26333333Y-39929580D02*
X26285714Y-39977200D01*
X26285714Y-39977200D02*
X26142857Y-40024819D01*
X26142857Y-40024819D02*
X26047619Y-40024819D01*
X26047619Y-40024819D02*
X25904762Y-39977200D01*
X25904762Y-39977200D02*
X25809524Y-39881961D01*
X25809524Y-39881961D02*
X25761905Y-39786723D01*
X25761905Y-39786723D02*
X25714286Y-39596247D01*
X25714286Y-39596247D02*
X25714286Y-39453390D01*
X25714286Y-39453390D02*
X25761905Y-39262914D01*
X25761905Y-39262914D02*
X25809524Y-39167676D01*
X25809524Y-39167676D02*
X25904762Y-39072438D01*
X25904762Y-39072438D02*
X26047619Y-39024819D01*
X26047619Y-39024819D02*
X26142857Y-39024819D01*
X26142857Y-39024819D02*
X26285714Y-39072438D01*
X26285714Y-39072438D02*
X26333333Y-39120057D01*
X27238095Y-39024819D02*
X26761905Y-39024819D01*
X26761905Y-39024819D02*
X26714286Y-39501009D01*
X26714286Y-39501009D02*
X26761905Y-39453390D01*
X26761905Y-39453390D02*
X26857143Y-39405771D01*
X26857143Y-39405771D02*
X27095238Y-39405771D01*
X27095238Y-39405771D02*
X27190476Y-39453390D01*
X27190476Y-39453390D02*
X27238095Y-39501009D01*
X27238095Y-39501009D02*
X27285714Y-39596247D01*
X27285714Y-39596247D02*
X27285714Y-39834342D01*
X27285714Y-39834342D02*
X27238095Y-39929580D01*
X27238095Y-39929580D02*
X27190476Y-39977200D01*
X27190476Y-39977200D02*
X27095238Y-40024819D01*
X27095238Y-40024819D02*
X26857143Y-40024819D01*
X26857143Y-40024819D02*
X26761905Y-39977200D01*
X26761905Y-39977200D02*
X26714286Y-39929580D01*
X21333333Y-4929580D02*
X21285714Y-4977200D01*
X21285714Y-4977200D02*
X21142857Y-5024819D01*
X21142857Y-5024819D02*
X21047619Y-5024819D01*
X21047619Y-5024819D02*
X20904762Y-4977200D01*
X20904762Y-4977200D02*
X20809524Y-4881961D01*
X20809524Y-4881961D02*
X20761905Y-4786723D01*
X20761905Y-4786723D02*
X20714286Y-4596247D01*
X20714286Y-4596247D02*
X20714286Y-4453390D01*
X20714286Y-4453390D02*
X20761905Y-4262914D01*
X20761905Y-4262914D02*
X20809524Y-4167676D01*
X20809524Y-4167676D02*
X20904762Y-4072438D01*
X20904762Y-4072438D02*
X21047619Y-4024819D01*
X21047619Y-4024819D02*
X21142857Y-4024819D01*
X21142857Y-4024819D02*
X21285714Y-4072438D01*
X21285714Y-4072438D02*
X21333333Y-4120057D01*
X22285714Y-5024819D02*
X21714286Y-5024819D01*
X22000000Y-5024819D02*
X22000000Y-4024819D01*
X22000000Y-4024819D02*
X21904762Y-4167676D01*
X21904762Y-4167676D02*
X21809524Y-4262914D01*
X21809524Y-4262914D02*
X21714286Y-4310533D01*
D12*
%TO.C,RS1*%
X30272936Y-36590000D02*
X31727064Y-36590000D01*
X30272936Y-38410000D02*
X31727064Y-38410000D01*
%TO.C,U3*%
X12000000Y-35940000D02*
X11200000Y-35940000D01*
X12000000Y-35940000D02*
X12800000Y-35940000D01*
X12000000Y-39060000D02*
X11200000Y-39060000D01*
X12000000Y-39060000D02*
X12800000Y-39060000D01*
X10700000Y-35990000D02*
X10460000Y-35660000D01*
X10940000Y-35660000D01*
X10700000Y-35990000D01*
G36*
X10700000Y-35990000D02*
G01*
X10460000Y-35660000D01*
X10940000Y-35660000D01*
X10700000Y-35990000D01*
G37*
%TO.C,R1*%
X9977500Y-29237258D02*
X9977500Y-28762742D01*
X11022500Y-29237258D02*
X11022500Y-28762742D01*
%TO.C,C12*%
X24990000Y-25640580D02*
X24990000Y-25359420D01*
X26010000Y-25640580D02*
X26010000Y-25359420D01*
%TO.C,R7*%
X49762742Y-7477500D02*
X50237258Y-7477500D01*
X49762742Y-8522500D02*
X50237258Y-8522500D01*
%TO.C,R6*%
X20977500Y-11737258D02*
X20977500Y-11262742D01*
X22022500Y-11737258D02*
X22022500Y-11262742D01*
%TO.C,C4*%
X19859420Y-40490000D02*
X20140580Y-40490000D01*
X19859420Y-41510000D02*
X20140580Y-41510000D01*
%TO.C,J3*%
X50170000Y-28670000D02*
X51500000Y-28670000D01*
X50170000Y-30000000D02*
X50170000Y-28670000D01*
X50170000Y-31270000D02*
X50170000Y-36410000D01*
X50170000Y-31270000D02*
X52830000Y-31270000D01*
X50170000Y-36410000D02*
X52830000Y-36410000D01*
X52830000Y-31270000D02*
X52830000Y-36410000D01*
%TO.C,C10*%
X35359420Y-13490000D02*
X35640580Y-13490000D01*
X35359420Y-14510000D02*
X35640580Y-14510000D01*
%TO.C,R8*%
X49762742Y-10477500D02*
X50237258Y-10477500D01*
X49762742Y-11522500D02*
X50237258Y-11522500D01*
%TO.C,TP3*%
X46950000Y-33000000D02*
G75*
G03*
X45050000Y-33000000I-950000J0D01*
G01*
X45050000Y-33000000D02*
G75*
G03*
X46950000Y-33000000I950000J0D01*
G01*
%TO.C,TP2*%
X21950000Y-31000000D02*
G75*
G03*
X20050000Y-31000000I-950000J0D01*
G01*
X20050000Y-31000000D02*
G75*
G03*
X21950000Y-31000000I950000J0D01*
G01*
%TO.C,TP1*%
X35950000Y-33000000D02*
G75*
G03*
X34050000Y-33000000I-950000J0D01*
G01*
X34050000Y-33000000D02*
G75*
G03*
X35950000Y-33000000I950000J0D01*
G01*
%TO.C,C11*%
X30738748Y-30765000D02*
X31261252Y-30765000D01*
X30738748Y-32235000D02*
X31261252Y-32235000D01*
%TO.C,C7*%
X25490000Y-17140580D02*
X25490000Y-16859420D01*
X26510000Y-17140580D02*
X26510000Y-16859420D01*
%TO.C,C15*%
X31859420Y-27490000D02*
X32140580Y-27490000D01*
X31859420Y-28510000D02*
X32140580Y-28510000D01*
%TO.C,Y1*%
X42100000Y-19425000D02*
X42100000Y-22575000D01*
X42100000Y-22575000D02*
X45900000Y-22575000D01*
%TO.C,J1*%
X3775000Y-18330000D02*
X5475000Y-18330000D01*
X3775000Y-27670000D02*
X5475000Y-27670000D01*
%TO.C,SW1*%
X26770000Y-2770000D02*
X33230000Y-2770000D01*
X26770000Y-2800000D02*
X26770000Y-2770000D01*
X26770000Y-4700000D02*
X26770000Y-7300000D01*
X26770000Y-9230000D02*
X26770000Y-9200000D01*
X26770000Y-9230000D02*
X33230000Y-9230000D01*
X33230000Y-2770000D02*
X33230000Y-2800000D01*
X33230000Y-4700000D02*
X33230000Y-7300000D01*
X33230000Y-9230000D02*
X33230000Y-9200000D01*
%TO.C,C13*%
X37490000Y-17140580D02*
X37490000Y-16859420D01*
X38510000Y-17140580D02*
X38510000Y-16859420D01*
%TO.C,R4*%
X48977500Y-41237258D02*
X48977500Y-40762742D01*
X50022500Y-41237258D02*
X50022500Y-40762742D01*
%TO.C,R2*%
X12977500Y-29237258D02*
X12977500Y-28762742D01*
X14022500Y-29237258D02*
X14022500Y-28762742D01*
%TO.C,U5*%
X40000000Y-35440000D02*
X38050000Y-35440000D01*
X40000000Y-35440000D02*
X41950000Y-35440000D01*
X40000000Y-40560000D02*
X38050000Y-40560000D01*
X40000000Y-40560000D02*
X41950000Y-40560000D01*
X37300000Y-35535000D02*
X37060000Y-35205000D01*
X37540000Y-35205000D01*
X37300000Y-35535000D01*
G36*
X37300000Y-35535000D02*
G01*
X37060000Y-35205000D01*
X37540000Y-35205000D01*
X37300000Y-35535000D01*
G37*
%TO.C,C6*%
X39859420Y-32490000D02*
X40140580Y-32490000D01*
X39859420Y-33510000D02*
X40140580Y-33510000D01*
%TO.C,D3*%
X52515000Y-13265000D02*
X52515000Y-14735000D01*
X52515000Y-14735000D02*
X54800000Y-14735000D01*
X54800000Y-13265000D02*
X52515000Y-13265000D01*
%TO.C,D2*%
X52515000Y-10265000D02*
X52515000Y-11735000D01*
X52515000Y-11735000D02*
X54800000Y-11735000D01*
X54800000Y-10265000D02*
X52515000Y-10265000D01*
%TO.C,C14*%
X31359420Y-13490000D02*
X31640580Y-13490000D01*
X31359420Y-14510000D02*
X31640580Y-14510000D01*
%TO.C,R3*%
X45477500Y-41237258D02*
X45477500Y-40762742D01*
X46522500Y-41237258D02*
X46522500Y-40762742D01*
%TO.C,C8*%
X37490000Y-25140580D02*
X37490000Y-24859420D01*
X38510000Y-25140580D02*
X38510000Y-24859420D01*
%TO.C,U2*%
X16000000Y-6940000D02*
X14050000Y-6940000D01*
X16000000Y-6940000D02*
X17950000Y-6940000D01*
X16000000Y-17060000D02*
X14050000Y-17060000D01*
X16000000Y-17060000D02*
X17950000Y-17060000D01*
X13300000Y-6995000D02*
X13060000Y-6665000D01*
X13540000Y-6665000D01*
X13300000Y-6995000D01*
G36*
X13300000Y-6995000D02*
G01*
X13060000Y-6665000D01*
X13540000Y-6665000D01*
X13300000Y-6995000D01*
G37*
%TO.C,R5*%
X39262742Y-20477500D02*
X39737258Y-20477500D01*
X39262742Y-21522500D02*
X39737258Y-21522500D01*
%TO.C,R9*%
X49762742Y-13477500D02*
X50237258Y-13477500D01*
X49762742Y-14522500D02*
X50237258Y-14522500D01*
%TO.C,TP4*%
X44950000Y-16500000D02*
G75*
G03*
X43050000Y-16500000I-950000J0D01*
G01*
X43050000Y-16500000D02*
G75*
G03*
X44950000Y-16500000I950000J0D01*
G01*
%TO.C,C17*%
X24490000Y-11640580D02*
X24490000Y-11359420D01*
X25510000Y-11640580D02*
X25510000Y-11359420D01*
%TO.C,C9*%
X28359420Y-26990000D02*
X28640580Y-26990000D01*
X28359420Y-28010000D02*
X28640580Y-28010000D01*
%TO.C,J2*%
X54670000Y-18670000D02*
X56000000Y-18670000D01*
X54670000Y-20000000D02*
X54670000Y-18670000D01*
X54670000Y-21270000D02*
X54670000Y-34030000D01*
X54670000Y-21270000D02*
X57330000Y-21270000D01*
X54670000Y-34030000D02*
X57330000Y-34030000D01*
X57330000Y-21270000D02*
X57330000Y-34030000D01*
%TO.C,U4*%
X23000000Y-35940000D02*
X22200000Y-35940000D01*
X23000000Y-35940000D02*
X23800000Y-35940000D01*
X23000000Y-39060000D02*
X22200000Y-39060000D01*
X23000000Y-39060000D02*
X23800000Y-39060000D01*
X21700000Y-35990000D02*
X21460000Y-35660000D01*
X21940000Y-35660000D01*
X21700000Y-35990000D01*
G36*
X21700000Y-35990000D02*
G01*
X21460000Y-35660000D01*
X21940000Y-35660000D01*
X21700000Y-35990000D01*
G37*
%TO.C,C2*%
X8359420Y-40490000D02*
X8640580Y-40490000D01*
X8359420Y-41510000D02*
X8640580Y-41510000D01*
%TO.C,C3*%
X15738748Y-40265000D02*
X16261252Y-40265000D01*
X15738748Y-41735000D02*
X16261252Y-41735000D01*
%TO.C,D1*%
X52515000Y-7265000D02*
X52515000Y-8735000D01*
X52515000Y-8735000D02*
X54800000Y-8735000D01*
X54800000Y-7265000D02*
X52515000Y-7265000D01*
%TO.C,U1*%
X29390000Y-18865000D02*
X29390000Y-18630000D01*
X29390000Y-23610000D02*
X29390000Y-23135000D01*
X29865000Y-18390000D02*
X29690000Y-18390000D01*
X29865000Y-23610000D02*
X29390000Y-23610000D01*
X34135000Y-18390000D02*
X34610000Y-18390000D01*
X34135000Y-23610000D02*
X34610000Y-23610000D01*
X34610000Y-18390000D02*
X34610000Y-18865000D01*
X34610000Y-23610000D02*
X34610000Y-23135000D01*
X29390000Y-18390000D02*
X29150000Y-18060000D01*
X29630000Y-18060000D01*
X29390000Y-18390000D01*
G36*
X29390000Y-18390000D02*
G01*
X29150000Y-18060000D01*
X29630000Y-18060000D01*
X29390000Y-18390000D01*
G37*
%TO.C,C16*%
X43859420Y-24990000D02*
X44140580Y-24990000D01*
X43859420Y-26010000D02*
X44140580Y-26010000D01*
%TO.C,C5*%
X26359420Y-40490000D02*
X26640580Y-40490000D01*
X26359420Y-41510000D02*
X26640580Y-41510000D01*
%TO.C,C1*%
X21359420Y-5490000D02*
X21640580Y-5490000D01*
X21359420Y-6510000D02*
X21640580Y-6510000D01*
%TD*%
M02*
